<?xml version="1.0" encoding="UTF-8"?>
<svg xmlns="http://www.w3.org/2000/svg" xmlns:xlink="http://www.w3.org/1999/xlink" width="112px" height="28px" viewBox="0 0 110 28" version="1.1">
<g id="surface1">
<path style=" stroke:none;fill-rule:nonzero;fill:rgb(0%,0%,0%);fill-opacity:1;" d="M 17.203125 18.042969 C 18.222656 18.042969 19.050781 17.328125 19.527344 16.421875 C 19.746094 15.960938 20.027344 15.265625 20.027344 14.621094 C 20.027344 13.96875 19.894531 13.003906 19.660156 12.023438 L 19.585938 11.980469 C 19.066406 12.367188 18.59375 12.828125 18.148438 13.285156 C 18.445312 14.117188 18.683594 15.039062 18.683594 15.589844 C 18.683594 16.003906 18.269531 16.246094 17.8125 16.246094 C 17.023438 16.246094 16.035156 15.796875 16.035156 14.652344 C 16.035156 14.265625 16.078125 13.777344 16.199219 13.253906 L 16.136719 13.183594 L 15.148438 13.6875 L 14.75 15.054688 C 14.585938 15.578125 14.242188 15.902344 13.816406 16.140625 C 13.433594 16.347656 13.003906 16.4375 12.722656 16.4375 C 11.703125 16.4375 11.59375 15.621094 11.375 15.1875 C 11.078125 14.429688 10.78125 13.761719 10.324219 13.0625 L 10.238281 13.0625 C 9.792969 13.582031 9.421875 14.074219 9.140625 14.566406 C 10.074219 16.050781 10.679688 16.796875 10.84375 18.414062 C 10.398438 19.898438 7.929688 21.164062 5.929688 21.164062 C 3.769531 21.164062 1.90625 20.0625 1.90625 17.761719 C 1.90625 16.914062 2.203125 16.050781 2.691406 15.128906 L 2.070312 14.878906 C 1.300781 15.886719 0.796875 17.300781 0.796875 18.816406 C 0.796875 21.28125 2.394531 23.125 5.589844 23.125 C 7.867188 23.125 10.308594 21.996094 11.136719 20.378906 C 11.433594 19.78125 11.640625 19.15625 11.703125 18.234375 L 12.128906 18.234375 C 13.503906 18.234375 14.375 17.597656 14.925781 16.914062 L 14.96875 16.914062 C 15.574219 17.65625 16.417969 18.042969 17.203125 18.042969 Z M 17.203125 18.042969 "/>
<path style=" stroke:none;fill-rule:nonzero;fill:rgb(0%,0%,0%);fill-opacity:1;" d="M 22.214844 11.355469 L 22.113281 11.339844 C 21.714844 11.917969 21.328125 12.5 20.945312 13.09375 C 21.671875 14.03125 22.324219 15.070312 22.929688 16.183594 C 23.03125 16.40625 23.148438 16.6875 23.148438 16.929688 C 23.148438 17.089844 23.105469 17.316406 22.972656 17.550781 C 21.894531 19.632812 19.527344 21.34375 17.203125 21.34375 C 16.480469 21.34375 15.886719 21.222656 15.382812 21.089844 L 15.207031 21.550781 C 16.816406 22.25 18.210938 22.632812 19.421875 22.632812 C 20.25 22.632812 21.140625 22.265625 22.128906 21.355469 C 23.402344 20.035156 24.203125 18.695312 24.203125 17.449219 L 24.203125 15.902344 C 24.203125 14.699219 23.8125 13.925781 23.371094 13.226562 Z M 22.214844 11.355469 "/>
<path style=" stroke:none;fill-rule:nonzero;fill:rgb(0%,0%,0%);fill-opacity:1;" d="M 31.65625 11.667969 C 30.5625 10.507812 29.050781 9.46875 27.722656 8.769531 L 27.585938 8.785156 C 27.203125 9.304688 26.742188 10.03125 26.742188 10.386719 C 26.742188 10.550781 26.875 10.746094 27.277344 10.910156 C 28.445312 11.414062 29.703125 12.1875 30.636719 13.035156 C 31.613281 13.953125 32.1875 14.949219 32.1875 15.710938 C 32.1875 15.8125 32.070312 15.933594 31.863281 16.035156 C 30.664062 16.632812 29.570312 16.957031 28.285156 16.957031 C 26.226562 16.957031 25.636719 16.003906 25.574219 14.785156 L 25.574219 14.773438 L 24.910156 14.773438 C 24.835938 15.21875 24.835938 15.5625 24.835938 15.796875 C 24.835938 17.878906 26.109375 18.769531 27.988281 18.769531 C 29.539062 18.769531 31.109375 18.191406 32.558594 17.464844 C 32.972656 16.703125 33.242188 15.871094 33.242188 14.996094 C 33.28125 13.820312 32.664062 12.734375 31.65625 11.667969 Z M 31.65625 11.667969 "/>
<path style=" stroke:none;fill-rule:nonzero;fill:rgb(0%,0%,0%);fill-opacity:1;" d="M 35.605469 16.019531 C 35.605469 16.957031 35.589844 17.953125 35.429688 18.832031 L 35.636719 18.917969 C 36.582031 18.011719 37.027344 17.433594 37.085938 16.660156 C 37.160156 16.035156 37.203125 15.1875 37.203125 14.34375 C 37.203125 11.070312 37.113281 7.519531 36.773438 4.460938 L 36.625 4.414062 C 36.125 4.800781 35.472656 5.394531 35.011719 5.898438 C 35.28125 8.335938 35.605469 12.066406 35.605469 14.636719 Z M 35.605469 16.019531 "/>
<path style=" stroke:none;fill-rule:nonzero;fill:rgb(0%,0%,0%);fill-opacity:1;" d="M 49.039062 5.914062 C 48.386719 5.335938 47.738281 4.832031 47.058594 4.414062 C 46.613281 4.847656 46.167969 5.351562 45.726562 5.839844 C 46.390625 6.316406 47.011719 6.777344 47.660156 7.28125 C 48.226562 6.882812 48.667969 6.417969 49.039062 5.914062 Z M 49.039062 5.914062 "/>
<path style=" stroke:none;fill-rule:nonzero;fill:rgb(0%,0%,0%);fill-opacity:1;" d="M 50.902344 11.636719 C 50.144531 9.945312 49.082031 8.855469 47.765625 8.855469 C 47.027344 8.855469 46.300781 9.230469 45.648438 9.796875 C 44.867188 10.492188 44.425781 11.519531 44.425781 12.558594 C 44.425781 12.929688 44.511719 13.269531 44.660156 13.570312 C 45.234375 14.652344 46.699219 15.085938 48.59375 15.085938 C 49.1875 15.085938 49.867188 15.085938 50.457031 15.039062 C 50.503906 15.128906 50.503906 15.25 50.503906 15.335938 C 50.503906 15.710938 49.613281 16.246094 48.5625 16.511719 C 47.632812 16.75 46.40625 16.796875 44.96875 16.796875 L 44.96875 16.78125 L 43.578125 16.78125 C 43.503906 16.78125 43.433594 16.78125 43.371094 16.796875 L 43.3125 16.796875 C 41.40625 16.796875 40.546875 15.695312 39.617188 13.761719 L 39.496094 13.777344 C 39.214844 14.238281 38.921875 14.757812 38.59375 15.414062 C 38.976562 16.097656 39.375 16.71875 40.03125 17.492188 C 40.234375 17.730469 40.398438 17.953125 40.472656 18.132812 C 40.101562 20.214844 37.21875 22.335938 35.011719 22.335938 C 34.171875 22.335938 33.5625 22.203125 33.121094 22.039062 L 32.882812 22.5 C 34.246094 23.125 35.769531 23.601562 36.996094 23.601562 C 38.207031 23.601562 39.632812 22.753906 40.933594 20.804688 C 41.375 20.121094 41.597656 19.289062 41.597656 18.636719 C 41.597656 18.472656 41.566406 18.3125 41.550781 18.132812 L 41.613281 18.132812 C 42.011719 18.445312 42.546875 18.578125 43.269531 18.578125 L 44.925781 18.578125 C 47.855469 18.578125 49.746094 18.191406 50.800781 17.195312 C 51.375 16.632812 51.609375 15.886719 51.609375 14.980469 C 51.582031 13.644531 51.300781 12.570312 50.902344 11.636719 Z M 45.429688 11.964844 C 45.429688 11.429688 46.316406 10.714844 47.410156 10.714844 C 48.742188 10.714844 49.867188 12.097656 50.207031 13.433594 C 47.605469 13.449219 45.429688 13.09375 45.429688 11.964844 Z M 45.429688 11.964844 "/>
<path style=" stroke:none;fill-rule:nonzero;fill:rgb(81.960784%,82.352941%,82.745098%);fill-opacity:1;" d="M 68.964844 4.414062 C 69.039062 4.164062 68.832031 3.910156 68.503906 3.863281 C 67.871094 3.773438 67.234375 3.699219 66.597656 3.65625 C 66.273438 3.640625 65.949219 3.820312 65.855469 4.070312 C 65.695312 4.546875 65.535156 5.023438 65.371094 5.5 C 65.28125 5.75 65.488281 5.960938 65.828125 5.972656 C 66.496094 6.019531 67.160156 6.105469 67.828125 6.214844 C 68.164062 6.253906 68.503906 6.121094 68.566406 5.855469 C 68.683594 5.378906 68.816406 4.886719 68.964844 4.414062 Z M 68.964844 4.414062 "/>
<path style=" stroke:none;fill-rule:nonzero;fill:rgb(81.960784%,82.352941%,82.745098%);fill-opacity:1;" d="M 72.488281 5.320312 C 72.53125 5.066406 72.324219 4.769531 71.996094 4.667969 C 71.363281 4.472656 70.742188 4.3125 70.101562 4.164062 C 69.777344 4.085938 69.46875 4.234375 69.394531 4.488281 C 69.261719 4.964844 69.128906 5.46875 69.011719 5.960938 C 68.933594 6.214844 69.160156 6.464844 69.496094 6.539062 C 70.164062 6.6875 70.8125 6.867188 71.480469 7.0625 C 71.820312 7.164062 72.128906 7.0625 72.175781 6.792969 C 72.277344 6.316406 72.382812 5.8125 72.488281 5.320312 Z M 72.488281 5.320312 "/>
<path style=" stroke:none;fill-rule:nonzero;fill:rgb(81.960784%,82.352941%,82.745098%);fill-opacity:1;" d="M 75.960938 6.746094 C 76.007812 6.496094 75.769531 6.152344 75.457031 6.003906 C 74.839844 5.707031 74.21875 5.453125 73.59375 5.203125 C 73.285156 5.082031 72.972656 5.203125 72.929688 5.453125 C 72.839844 5.945312 72.738281 6.449219 72.632812 6.9375 C 72.589844 7.195312 72.8125 7.488281 73.152344 7.621094 C 73.804688 7.878906 74.46875 8.144531 75.105469 8.429688 C 75.445312 8.578125 75.738281 8.5 75.753906 8.25 C 75.828125 7.757812 75.902344 7.253906 75.960938 6.746094 Z M 75.960938 6.746094 "/>
<path style=" stroke:none;fill-rule:nonzero;fill:rgb(81.960784%,82.352941%,82.745098%);fill-opacity:1;" d="M 79.378906 8.738281 C 79.394531 8.484375 79.15625 8.101562 78.863281 7.90625 C 78.253906 7.519531 77.648438 7.148438 77.042969 6.820312 C 76.734375 6.644531 76.449219 6.734375 76.421875 6.984375 C 76.359375 7.488281 76.304688 7.980469 76.242188 8.484375 C 76.199219 8.738281 76.449219 9.082031 76.789062 9.261719 C 77.441406 9.601562 78.078125 9.957031 78.699219 10.359375 C 79.023438 10.566406 79.289062 10.519531 79.304688 10.269531 C 79.304688 9.734375 79.351562 9.246094 79.378906 8.738281 Z M 79.378906 8.738281 "/>
<path style=" stroke:none;fill-rule:nonzero;fill:rgb(81.960784%,82.352941%,82.745098%);fill-opacity:1;" d="M 68.210938 7.117188 C 68.285156 6.867188 68.0625 6.613281 67.722656 6.570312 C 67.039062 6.464844 66.390625 6.390625 65.707031 6.332031 C 65.371094 6.300781 65.015625 6.496094 64.941406 6.734375 C 64.777344 7.207031 64.617188 7.683594 64.453125 8.160156 C 64.367188 8.414062 64.585938 8.621094 64.941406 8.648438 C 65.636719 8.710938 66.332031 8.796875 67.039062 8.917969 C 67.398438 8.976562 67.734375 8.828125 67.8125 8.578125 C 67.945312 8.085938 68.078125 7.609375 68.210938 7.117188 Z M 68.210938 7.117188 "/>
<path style=" stroke:none;fill-rule:nonzero;fill:rgb(81.960784%,82.352941%,82.745098%);fill-opacity:1;" d="M 67.453125 9.824219 C 67.53125 9.570312 67.292969 9.316406 66.9375 9.261719 C 66.242188 9.140625 65.535156 9.050781 64.835938 8.988281 C 64.484375 8.949219 64.109375 9.140625 64.039062 9.378906 C 63.875 9.851562 63.710938 10.328125 63.550781 10.804688 C 63.460938 11.054688 63.699219 11.265625 64.070312 11.3125 C 64.808594 11.382812 65.535156 11.472656 66.257812 11.605469 C 66.640625 11.667969 66.996094 11.53125 67.054688 11.265625 C 67.1875 10.804688 67.320312 10.316406 67.453125 9.824219 Z M 67.453125 9.824219 "/>
<path style=" stroke:none;fill-rule:nonzero;fill:rgb(81.960784%,82.352941%,82.745098%);fill-opacity:1;" d="M 71.363281 10.820312 C 71.40625 10.566406 71.167969 10.269531 70.8125 10.164062 C 70.117188 9.957031 69.425781 9.78125 68.714844 9.617188 C 68.359375 9.539062 68.019531 9.675781 67.945312 9.929688 C 67.8125 10.417969 67.679688 10.910156 67.5625 11.398438 C 67.484375 11.652344 67.734375 11.917969 68.105469 11.996094 C 68.847656 12.15625 69.570312 12.351562 70.296875 12.570312 C 70.679688 12.695312 71.023438 12.570312 71.066406 12.320312 C 71.167969 11.816406 71.257812 11.324219 71.363281 10.820312 Z M 71.363281 10.820312 "/>
<path style=" stroke:none;fill-rule:nonzero;fill:rgb(81.960784%,82.352941%,82.745098%);fill-opacity:1;" d="M 75.222656 12.335938 C 75.269531 12.082031 75 11.738281 74.644531 11.59375 C 73.953125 11.296875 73.269531 11.011719 72.574219 10.761719 C 72.222656 10.628906 71.894531 10.746094 71.832031 11 C 71.746094 11.488281 71.644531 11.996094 71.539062 12.484375 C 71.496094 12.734375 71.746094 13.050781 72.113281 13.183594 C 72.839844 13.433594 73.5625 13.71875 74.277344 14.03125 C 74.644531 14.195312 74.972656 14.101562 75 13.851562 C 75.089844 13.332031 75.160156 12.839844 75.222656 12.335938 Z M 75.222656 12.335938 "/>
<path style=" stroke:none;fill-rule:nonzero;fill:rgb(81.960784%,82.352941%,82.745098%);fill-opacity:1;" d="M 66.703125 12.542969 C 66.773438 12.289062 66.523438 12.039062 66.152344 11.964844 C 65.414062 11.847656 64.6875 11.738281 63.949219 11.667969 C 63.566406 11.621094 63.210938 11.800781 63.121094 12.050781 C 62.957031 12.53125 62.792969 13.003906 62.632812 13.480469 C 62.542969 13.734375 62.792969 13.9375 63.183594 13.984375 C 63.9375 14.0625 64.703125 14.179688 65.472656 14.3125 C 65.855469 14.386719 66.230469 14.238281 66.300781 14 C 66.433594 13.511719 66.566406 13.019531 66.703125 12.542969 Z M 66.703125 12.542969 "/>
<path style=" stroke:none;fill-rule:nonzero;fill:rgb(81.960784%,82.352941%,82.745098%);fill-opacity:1;" d="M 65.949219 15.25 C 66.019531 14.996094 65.753906 14.730469 65.355469 14.652344 C 64.585938 14.519531 63.816406 14.402344 63.050781 14.3125 C 62.660156 14.265625 62.277344 14.445312 62.191406 14.699219 C 62.027344 15.171875 61.863281 15.648438 61.703125 16.125 C 61.613281 16.378906 61.878906 16.601562 62.277344 16.644531 C 63.078125 16.734375 63.875 16.851562 64.660156 17 C 65.074219 17.078125 65.457031 16.945312 65.519531 16.6875 C 65.683594 16.214844 65.816406 15.738281 65.949219 15.25 Z M 65.949219 15.25 "/>
<path style=" stroke:none;fill-rule:nonzero;fill:rgb(81.960784%,82.352941%,82.745098%);fill-opacity:1;" d="M 89.421875 6.96875 C 89.382812 6.71875 89.113281 6.628906 88.804688 6.804688 C 88.195312 7.148438 87.574219 7.503906 86.984375 7.894531 C 86.671875 8.101562 86.4375 8.46875 86.464844 8.722656 C 86.507812 9.230469 86.523438 9.734375 86.554688 10.238281 C 86.570312 10.492188 86.851562 10.535156 87.160156 10.328125 C 87.796875 9.945312 88.433594 9.570312 89.070312 9.230469 C 89.410156 9.050781 89.632812 8.710938 89.617188 8.457031 C 89.542969 7.980469 89.484375 7.476562 89.421875 6.96875 Z M 89.421875 6.96875 "/>
<path style=" stroke:none;fill-rule:nonzero;fill:rgb(81.960784%,82.352941%,82.745098%);fill-opacity:1;" d="M 92.886719 5.46875 C 92.84375 5.214844 92.53125 5.097656 92.21875 5.214844 C 91.597656 5.453125 90.980469 5.722656 90.355469 6.019531 C 90.046875 6.167969 89.808594 6.496094 89.851562 6.761719 C 89.925781 7.265625 89.984375 7.757812 90.058594 8.265625 C 90.105469 8.515625 90.402344 8.605469 90.710938 8.441406 C 91.363281 8.144531 92.011719 7.878906 92.664062 7.636719 C 93.003906 7.519531 93.226562 7.207031 93.183594 6.953125 C 93.078125 6.449219 92.988281 5.972656 92.886719 5.46875 Z M 92.886719 5.46875 "/>
<path style=" stroke:none;fill-rule:nonzero;fill:rgb(81.960784%,82.352941%,82.745098%);fill-opacity:1;" d="M 96.40625 4.488281 C 96.332031 4.234375 96.023438 4.085938 95.695312 4.164062 C 95.0625 4.296875 94.425781 4.472656 93.800781 4.667969 C 93.476562 4.753906 93.269531 5.050781 93.316406 5.320312 C 93.417969 5.8125 93.519531 6.316406 93.625 6.804688 C 93.667969 7.0625 93.996094 7.179688 94.320312 7.074219 C 94.972656 6.867188 95.640625 6.6875 96.304688 6.554688 C 96.644531 6.480469 96.863281 6.214844 96.792969 5.972656 C 96.671875 5.46875 96.539062 4.980469 96.40625 4.488281 Z M 96.40625 4.488281 "/>
<path style=" stroke:none;fill-rule:nonzero;fill:rgb(81.960784%,82.352941%,82.745098%);fill-opacity:1;" d="M 89.765625 9.765625 C 89.71875 9.511719 89.4375 9.421875 89.113281 9.601562 C 88.460938 9.945312 87.824219 10.300781 87.175781 10.699219 C 86.851562 10.910156 86.597656 11.28125 86.613281 11.53125 C 86.65625 12.039062 86.671875 12.542969 86.703125 13.050781 C 86.71875 13.300781 87.011719 13.347656 87.355469 13.136719 C 88.019531 12.75 88.683594 12.378906 89.382812 12.039062 C 89.734375 11.859375 89.984375 11.519531 89.941406 11.265625 C 89.882812 10.773438 89.824219 10.269531 89.765625 9.765625 Z M 89.765625 9.765625 "/>
<path style=" stroke:none;fill-rule:nonzero;fill:rgb(81.960784%,82.352941%,82.745098%);fill-opacity:1;" d="M 100.875 6.734375 C 100.785156 6.480469 100.445312 6.300781 100.105469 6.332031 C 99.425781 6.378906 98.757812 6.464844 98.09375 6.570312 C 97.753906 6.613281 97.53125 6.882812 97.605469 7.117188 C 97.738281 7.59375 97.871094 8.101562 98.003906 8.578125 C 98.078125 8.828125 98.417969 8.960938 98.773438 8.917969 C 99.46875 8.796875 100.164062 8.710938 100.875 8.648438 C 101.226562 8.605469 101.453125 8.398438 101.359375 8.160156 C 101.214844 7.683594 101.035156 7.207031 100.875 6.734375 Z M 100.875 6.734375 "/>
<path style=" stroke:none;fill-rule:nonzero;fill:rgb(81.960784%,82.352941%,82.745098%);fill-opacity:1;" d="M 90.105469 12.558594 C 90.058594 12.304688 89.765625 12.214844 89.410156 12.394531 C 88.726562 12.734375 88.050781 13.105469 87.382812 13.496094 C 87.042969 13.703125 86.777344 14.074219 86.789062 14.34375 C 86.835938 14.847656 86.851562 15.351562 86.878906 15.855469 C 86.894531 16.113281 87.191406 16.152344 87.558594 15.949219 C 88.253906 15.5625 88.964844 15.1875 89.675781 14.832031 C 90.046875 14.652344 90.3125 14.3125 90.28125 14.0625 C 90.238281 13.554688 90.179688 13.0625 90.105469 12.558594 Z M 90.105469 12.558594 "/>
<path style=" stroke:none;fill-rule:nonzero;fill:rgb(81.960784%,82.352941%,82.745098%);fill-opacity:1;" d="M 101.789062 9.394531 C 101.703125 9.140625 101.347656 8.960938 100.992188 9.003906 C 100.296875 9.066406 99.585938 9.152344 98.890625 9.273438 C 98.539062 9.332031 98.296875 9.585938 98.375 9.835938 C 98.507812 10.316406 98.640625 10.820312 98.773438 11.296875 C 98.847656 11.546875 99.203125 11.683594 99.574219 11.636719 C 100.3125 11.519531 101.035156 11.414062 101.761719 11.339844 C 102.148438 11.296875 102.367188 11.085938 102.28125 10.835938 C 102.117188 10.34375 101.953125 9.867188 101.789062 9.394531 Z M 101.789062 9.394531 "/>
<path style=" stroke:none;fill-rule:nonzero;fill:rgb(81.960784%,82.352941%,82.745098%);fill-opacity:1;" d="M 90.457031 15.351562 C 90.414062 15.101562 90.105469 15.027344 89.734375 15.203125 C 89.007812 15.5625 88.316406 15.933594 87.605469 16.316406 C 87.25 16.527344 86.96875 16.898438 86.984375 17.164062 C 87.027344 17.671875 87.042969 18.175781 87.070312 18.683594 C 87.085938 18.933594 87.410156 18.980469 87.785156 18.769531 C 88.523438 18.382812 89.261719 18 90 17.640625 C 90.386719 17.464844 90.667969 17.121094 90.636719 16.867188 C 90.578125 16.347656 90.519531 15.84375 90.457031 15.351562 Z M 90.457031 15.351562 "/>
<path style=" stroke:none;fill-rule:nonzero;fill:rgb(81.960784%,82.352941%,82.745098%);fill-opacity:1;" d="M 102.707031 12.050781 C 102.621094 11.800781 102.25 11.621094 101.882812 11.667969 C 101.140625 11.738281 100.417969 11.847656 99.675781 11.964844 C 99.292969 12.023438 99.054688 12.289062 99.128906 12.542969 C 99.261719 13.019531 99.394531 13.523438 99.527344 14 C 99.601562 14.253906 99.957031 14.386719 100.355469 14.3125 C 101.125 14.179688 101.882812 14.0625 102.648438 13.984375 C 103.035156 13.9375 103.285156 13.71875 103.199219 13.480469 C 103.019531 13.003906 102.855469 12.53125 102.707031 12.050781 Z M 102.707031 12.050781 "/>
<path style=" stroke:none;fill-rule:nonzero;fill:rgb(81.960784%,82.352941%,82.745098%);fill-opacity:1;" d="M 90.800781 18.132812 C 90.753906 17.878906 90.429688 17.804688 90.046875 17.984375 C 89.289062 18.339844 88.550781 18.710938 87.8125 19.113281 C 87.425781 19.320312 87.144531 19.707031 87.160156 19.960938 C 87.207031 20.464844 87.21875 20.96875 87.25 21.476562 C 87.261719 21.730469 87.589844 21.773438 87.988281 21.566406 C 88.757812 21.164062 89.527344 20.792969 90.3125 20.433594 C 90.710938 20.253906 91.007812 19.914062 90.980469 19.648438 C 90.933594 19.144531 90.859375 18.636719 90.800781 18.132812 Z M 90.800781 18.132812 "/>
<path style=" stroke:none;fill-rule:nonzero;fill:rgb(81.960784%,82.352941%,82.745098%);fill-opacity:1;" d="M 95.046875 16.511719 C 95 16.261719 94.632812 16.152344 94.246094 16.289062 C 93.492188 16.554688 92.722656 16.835938 91.96875 17.152344 C 91.582031 17.316406 91.289062 17.65625 91.332031 17.910156 C 91.40625 18.414062 91.464844 18.902344 91.539062 19.410156 C 91.582031 19.664062 91.921875 19.734375 92.324219 19.570312 C 93.109375 19.261719 93.90625 18.964844 94.691406 18.695312 C 95.089844 18.5625 95.382812 18.25 95.34375 18 C 95.238281 17.492188 95.132812 17 95.046875 16.511719 Z M 95.046875 16.511719 "/>
<path style=" stroke:none;fill-rule:nonzero;fill:rgb(81.960784%,82.352941%,82.745098%);fill-opacity:1;" d="M 99.320312 15.351562 C 99.246094 15.101562 98.890625 14.964844 98.492188 15.054688 C 97.722656 15.234375 96.953125 15.441406 96.183594 15.664062 C 95.800781 15.785156 95.519531 16.097656 95.578125 16.347656 C 95.679688 16.835938 95.785156 17.34375 95.890625 17.835938 C 95.933594 18.085938 96.316406 18.191406 96.714844 18.070312 C 97.515625 17.847656 98.3125 17.640625 99.113281 17.449219 C 99.527344 17.359375 99.792969 17.078125 99.722656 16.835938 C 99.585938 16.332031 99.453125 15.84375 99.320312 15.351562 Z M 99.320312 15.351562 "/>
<path style=" stroke:none;fill-rule:nonzero;fill:rgb(15.294118%,65.882353%,87.843137%);fill-opacity:1;" d="M 65.828125 2.824219 C 65.738281 3.078125 65.398438 3.253906 65.089844 3.253906 C 64.453125 3.253906 63.816406 3.300781 63.183594 3.371094 C 62.855469 3.417969 62.675781 3.253906 62.769531 3.015625 C 62.957031 2.554688 63.152344 2.082031 63.34375 1.621094 C 63.433594 1.382812 63.773438 1.144531 64.082031 1.101562 C 64.6875 1.027344 65.308594 0.964844 65.933594 0.949219 C 66.242188 0.949219 66.433594 1.128906 66.347656 1.382812 C 66.152344 1.871094 65.992188 2.347656 65.828125 2.824219 Z M 65.828125 2.824219 "/>
<path style=" stroke:none;fill-rule:nonzero;fill:rgb(15.294118%,65.882353%,87.843137%);fill-opacity:1;" d="M 69.71875 1.695312 C 69.792969 1.441406 69.601562 1.203125 69.292969 1.160156 C 68.683594 1.070312 68.09375 1.011719 67.46875 0.980469 C 67.160156 0.964844 66.835938 1.160156 66.746094 1.414062 C 66.582031 1.886719 66.421875 2.363281 66.257812 2.835938 C 66.167969 3.089844 66.375 3.285156 66.6875 3.316406 C 67.320312 3.359375 67.960938 3.417969 68.59375 3.519531 C 68.917969 3.566406 69.230469 3.417969 69.304688 3.164062 C 69.4375 2.675781 69.570312 2.183594 69.71875 1.695312 Z M 69.71875 1.695312 "/>
<path style=" stroke:none;fill-rule:nonzero;fill:rgb(15.294118%,65.882353%,87.843137%);fill-opacity:1;" d="M 73.03125 2.554688 C 73.078125 2.304688 72.886719 2.003906 72.574219 1.917969 C 71.980469 1.738281 71.390625 1.5625 70.785156 1.441406 C 70.476562 1.367188 70.179688 1.53125 70.101562 1.785156 C 69.96875 2.261719 69.835938 2.765625 69.71875 3.253906 C 69.644531 3.507812 69.851562 3.761719 70.179688 3.835938 C 70.8125 3.96875 71.433594 4.148438 72.058594 4.339844 C 72.367188 4.429688 72.675781 4.324219 72.738281 4.070312 C 72.839844 3.550781 72.945312 3.046875 73.03125 2.554688 Z M 73.03125 2.554688 "/>
<path style=" stroke:none;fill-rule:nonzero;fill:rgb(15.294118%,65.882353%,87.843137%);fill-opacity:1;" d="M 76.332031 3.984375 C 76.375 3.730469 76.15625 3.386719 75.859375 3.238281 C 75.269531 2.945312 74.691406 2.6875 74.097656 2.46875 C 73.804688 2.347656 73.507812 2.46875 73.460938 2.71875 C 73.375 3.210938 73.269531 3.714844 73.164062 4.203125 C 73.121094 4.460938 73.328125 4.753906 73.640625 4.886719 C 74.261719 5.128906 74.882812 5.394531 75.488281 5.679688 C 75.800781 5.828125 76.082031 5.75 76.125 5.484375 C 76.199219 4.980469 76.257812 4.472656 76.332031 3.984375 Z M 76.332031 3.984375 "/>
<path style=" stroke:none;fill-rule:nonzero;fill:rgb(15.294118%,65.882353%,87.843137%);fill-opacity:1;" d="M 79.554688 5.929688 C 79.570312 5.679688 79.351562 5.289062 79.054688 5.097656 C 78.476562 4.710938 77.902344 4.355469 77.324219 4.011719 C 77.027344 3.847656 76.757812 3.921875 76.734375 4.175781 C 76.671875 4.683594 76.613281 5.171875 76.554688 5.679688 C 76.507812 5.929688 76.746094 6.269531 77.054688 6.433594 C 77.664062 6.777344 78.269531 7.132812 78.878906 7.519531 C 79.1875 7.730469 79.4375 7.683594 79.46875 7.429688 C 79.484375 6.9375 79.527344 6.433594 79.554688 5.929688 Z M 79.554688 5.929688 "/>
<path style=" stroke:none;fill-rule:nonzero;fill:rgb(15.294118%,65.882353%,87.843137%);fill-opacity:1;" d="M 82.695312 8.457031 C 82.695312 8.203125 82.46875 7.773438 82.191406 7.519531 C 81.644531 7.03125 81.082031 6.570312 80.519531 6.136719 C 80.222656 5.914062 79.984375 5.960938 79.96875 6.214844 C 79.941406 6.71875 79.914062 7.222656 79.882812 7.730469 C 79.867188 7.980469 80.101562 8.367188 80.398438 8.589844 C 80.992188 9.019531 81.582031 9.480469 82.160156 9.988281 C 82.457031 10.238281 82.695312 10.238281 82.695312 9.988281 C 82.679688 9.46875 82.695312 8.960938 82.695312 8.457031 Z M 82.695312 8.457031 "/>
<path style=" stroke:none;fill-rule:nonzero;fill:rgb(15.294118%,65.882353%,87.843137%);fill-opacity:1;" d="M 65.398438 4.054688 C 65.488281 3.804688 65.28125 3.613281 64.96875 3.628906 C 64.335938 3.628906 63.683594 3.671875 63.050781 3.746094 C 62.722656 3.789062 62.367188 4.011719 62.277344 4.25 C 62.085938 4.710938 61.894531 5.1875 61.703125 5.648438 C 61.613281 5.886719 61.789062 6.035156 62.128906 6.019531 C 62.792969 5.960938 63.460938 5.929688 64.125 5.929688 C 64.46875 5.929688 64.824219 5.75 64.898438 5.5 C 65.058594 5.011719 65.238281 4.53125 65.398438 4.054688 Z M 65.398438 4.054688 "/>
<path style=" stroke:none;fill-rule:nonzero;fill:rgb(15.294118%,65.882353%,87.843137%);fill-opacity:1;" d="M 82.664062 11.28125 C 82.664062 11.027344 82.425781 10.597656 82.128906 10.34375 C 81.539062 9.851562 80.960938 9.394531 80.371094 8.949219 C 80.0625 8.722656 79.808594 8.769531 79.792969 9.019531 C 79.765625 9.527344 79.734375 10.03125 79.703125 10.535156 C 79.6875 10.789062 79.941406 11.175781 80.25 11.398438 C 80.871094 11.832031 81.496094 12.304688 82.101562 12.796875 C 82.414062 13.050781 82.664062 13.050781 82.664062 12.796875 C 82.664062 12.289062 82.664062 11.769531 82.664062 11.28125 Z M 82.664062 11.28125 "/>
<path style=" stroke:none;fill-rule:nonzero;fill:rgb(15.294118%,65.882353%,87.843137%);fill-opacity:1;" d="M 64.46875 6.703125 C 64.554688 6.449219 64.351562 6.253906 64.007812 6.242188 C 63.328125 6.242188 62.660156 6.269531 61.996094 6.316406 C 61.65625 6.347656 61.304688 6.570312 61.195312 6.820312 C 61.007812 7.28125 60.8125 7.757812 60.621094 8.21875 C 60.53125 8.457031 60.726562 8.621094 61.078125 8.605469 C 61.773438 8.5625 62.472656 8.546875 63.167969 8.5625 C 63.519531 8.5625 63.890625 8.382812 63.964844 8.128906 C 64.125 7.652344 64.289062 7.179688 64.46875 6.703125 Z M 64.46875 6.703125 "/>
<path style=" stroke:none;fill-rule:nonzero;fill:rgb(15.294118%,65.882353%,87.843137%);fill-opacity:1;" d="M 71.925781 8.070312 C 71.964844 7.816406 71.746094 7.519531 71.40625 7.417969 C 70.742188 7.207031 70.074219 7.03125 69.425781 6.898438 C 69.082031 6.820312 68.742188 6.96875 68.683594 7.222656 C 68.550781 7.714844 68.417969 8.203125 68.300781 8.695312 C 68.226562 8.949219 68.460938 9.199219 68.816406 9.289062 C 69.511719 9.453125 70.207031 9.632812 70.902344 9.835938 C 71.257812 9.945312 71.582031 9.835938 71.644531 9.570312 C 71.730469 9.066406 71.820312 8.5625 71.925781 8.070312 Z M 71.925781 8.070312 "/>
<path style=" stroke:none;fill-rule:nonzero;fill:rgb(15.294118%,65.882353%,87.843137%);fill-opacity:1;" d="M 75.589844 9.539062 C 75.636719 9.289062 75.386719 8.949219 75.042969 8.796875 C 74.394531 8.5 73.726562 8.234375 73.078125 7.980469 C 72.738281 7.863281 72.425781 7.964844 72.382812 8.21875 C 72.292969 8.710938 72.191406 9.214844 72.085938 9.703125 C 72.042969 9.957031 72.277344 10.253906 72.632812 10.386719 C 73.328125 10.640625 74.007812 10.910156 74.691406 11.203125 C 75.042969 11.355469 75.339844 11.28125 75.386719 11.027344 C 75.457031 10.550781 75.519531 10.046875 75.589844 9.539062 Z M 75.589844 9.539062 "/>
<path style=" stroke:none;fill-rule:nonzero;fill:rgb(15.294118%,65.882353%,87.843137%);fill-opacity:1;" d="M 79.1875 11.546875 C 79.203125 11.296875 78.949219 10.910156 78.625 10.714844 C 77.988281 10.328125 77.335938 9.957031 76.6875 9.617188 C 76.347656 9.4375 76.066406 9.527344 76.035156 9.78125 C 75.976562 10.285156 75.917969 10.773438 75.859375 11.28125 C 75.816406 11.53125 76.082031 11.875 76.421875 12.050781 C 77.101562 12.394531 77.78125 12.765625 78.449219 13.152344 C 78.789062 13.363281 79.082031 13.316406 79.097656 13.0625 C 79.128906 12.542969 79.15625 12.050781 79.1875 11.546875 Z M 79.1875 11.546875 "/>
<path style=" stroke:none;fill-rule:nonzero;fill:rgb(15.294118%,65.882353%,87.843137%);fill-opacity:1;" d="M 82.664062 14.089844 C 82.664062 13.835938 82.414062 13.40625 82.101562 13.152344 C 81.496094 12.664062 80.871094 12.203125 80.238281 11.753906 C 79.914062 11.53125 79.648438 11.578125 79.632812 11.832031 C 79.601562 12.335938 79.570312 12.839844 79.542969 13.347656 C 79.527344 13.597656 79.792969 13.984375 80.117188 14.207031 C 80.769531 14.636719 81.417969 15.113281 82.058594 15.605469 C 82.382812 15.855469 82.648438 15.855469 82.648438 15.605469 C 82.664062 15.101562 82.664062 14.59375 82.664062 14.089844 Z M 82.664062 14.089844 "/>
<path style=" stroke:none;fill-rule:nonzero;fill:rgb(15.294118%,65.882353%,87.843137%);fill-opacity:1;" d="M 63.535156 9.363281 C 63.625 9.113281 63.402344 8.902344 63.050781 8.902344 C 62.351562 8.886719 61.640625 8.902344 60.945312 8.949219 C 60.59375 8.976562 60.222656 9.199219 60.132812 9.421875 C 59.941406 9.882812 59.746094 10.359375 59.558594 10.820312 C 59.464844 11.054688 59.675781 11.234375 60.042969 11.203125 C 60.769531 11.164062 61.492188 11.164062 62.21875 11.191406 C 62.605469 11.191406 62.957031 11.027344 63.050781 10.773438 C 63.195312 10.316406 63.371094 9.835938 63.535156 9.363281 Z M 63.535156 9.363281 "/>
<path style=" stroke:none;fill-rule:nonzero;fill:rgb(15.294118%,65.882353%,87.843137%);fill-opacity:1;" d="M 79.011719 14.355469 C 79.023438 14.101562 78.757812 13.71875 78.417969 13.511719 C 77.738281 13.121094 77.070312 12.75 76.390625 12.410156 C 76.035156 12.230469 75.738281 12.304688 75.695312 12.570312 C 75.636719 13.078125 75.578125 13.570312 75.519531 14.074219 C 75.472656 14.328125 75.753906 14.683594 76.125 14.847656 C 76.835938 15.203125 77.546875 15.578125 78.238281 15.960938 C 78.597656 16.167969 78.890625 16.125 78.921875 15.871094 C 78.949219 15.351562 78.964844 14.847656 79.011719 14.355469 Z M 79.011719 14.355469 "/>
<path style=" stroke:none;fill-rule:nonzero;fill:rgb(15.294118%,65.882353%,87.843137%);fill-opacity:1;" d="M 82.648438 16.898438 C 82.648438 16.644531 82.382812 16.214844 82.058594 15.960938 C 81.417969 15.46875 80.769531 15.011719 80.101562 14.566406 C 79.765625 14.34375 79.484375 14.386719 79.46875 14.636719 C 79.4375 15.144531 79.410156 15.648438 79.378906 16.152344 C 79.363281 16.40625 79.648438 16.796875 79.984375 17.015625 C 80.679688 17.449219 81.347656 17.921875 82.011719 18.414062 C 82.351562 18.667969 82.617188 18.667969 82.617188 18.414062 C 82.648438 17.910156 82.648438 17.402344 82.648438 16.898438 Z M 82.648438 16.898438 "/>
<path style=" stroke:none;fill-rule:nonzero;fill:rgb(15.294118%,65.882353%,87.843137%);fill-opacity:1;" d="M 62.605469 12.011719 C 62.691406 11.753906 62.457031 11.546875 62.085938 11.53125 C 61.34375 11.503906 60.621094 11.519531 59.894531 11.546875 C 59.527344 11.5625 59.140625 11.785156 59.054688 12.023438 C 58.859375 12.484375 58.667969 12.960938 58.476562 13.417969 C 58.390625 13.65625 58.609375 13.835938 58.996094 13.820312 C 59.746094 13.792969 60.503906 13.804688 61.257812 13.835938 C 61.640625 13.851562 62.027344 13.671875 62.117188 13.433594 C 62.261719 12.960938 62.441406 12.484375 62.605469 12.011719 Z M 62.605469 12.011719 "/>
<path style=" stroke:none;fill-rule:nonzero;fill:rgb(15.294118%,65.882353%,87.843137%);fill-opacity:1;" d="M 70.796875 13.582031 C 70.84375 13.332031 70.59375 13.035156 70.207031 12.914062 C 69.46875 12.695312 68.742188 12.5 68.003906 12.335938 C 67.617188 12.246094 67.265625 12.378906 67.203125 12.648438 C 67.070312 13.121094 66.9375 13.628906 66.820312 14.117188 C 66.746094 14.371094 67.011719 14.636719 67.414062 14.730469 C 68.179688 14.90625 68.933594 15.113281 69.703125 15.335938 C 70.089844 15.457031 70.445312 15.335938 70.503906 15.085938 C 70.59375 14.582031 70.695312 14.074219 70.796875 13.582031 Z M 70.796875 13.582031 "/>
<path style=" stroke:none;fill-rule:nonzero;fill:rgb(15.294118%,65.882353%,87.843137%);fill-opacity:1;" d="M 74.851562 15.113281 C 74.894531 14.863281 74.617188 14.519531 74.246094 14.355469 C 73.523438 14.046875 72.796875 13.761719 72.074219 13.511719 C 71.699219 13.378906 71.347656 13.480469 71.316406 13.734375 C 71.226562 14.222656 71.125 14.730469 71.023438 15.21875 C 70.976562 15.46875 71.242188 15.785156 71.628906 15.917969 C 72.382812 16.183594 73.152344 16.46875 73.90625 16.78125 C 74.289062 16.945312 74.628906 16.867188 74.660156 16.601562 C 74.734375 16.125 74.792969 15.621094 74.851562 15.113281 Z M 74.851562 15.113281 "/>
<path style=" stroke:none;fill-rule:nonzero;fill:rgb(15.294118%,65.882353%,87.843137%);fill-opacity:1;" d="M 78.832031 17.164062 C 78.847656 16.914062 78.566406 16.527344 78.210938 16.316406 C 77.5 15.933594 76.789062 15.546875 76.082031 15.203125 C 75.710938 15.027344 75.386719 15.101562 75.355469 15.351562 C 75.296875 15.855469 75.238281 16.347656 75.175781 16.851562 C 75.136719 17.105469 75.429688 17.464844 75.816406 17.628906 C 76.554688 17.984375 77.292969 18.355469 78.035156 18.753906 C 78.417969 18.964844 78.730469 18.917969 78.746094 18.667969 C 78.757812 18.164062 78.800781 17.65625 78.832031 17.164062 Z M 78.832031 17.164062 "/>
<path style=" stroke:none;fill-rule:nonzero;fill:rgb(15.294118%,65.882353%,87.843137%);fill-opacity:1;" d="M 82.632812 19.707031 C 82.632812 19.453125 82.367188 19.023438 82.027344 18.769531 C 81.347656 18.28125 80.667969 17.820312 79.984375 17.371094 C 79.632812 17.152344 79.335938 17.179688 79.320312 17.449219 C 79.289062 17.953125 79.261719 18.460938 79.230469 18.964844 C 79.21875 19.214844 79.5 19.601562 79.867188 19.828125 C 80.59375 20.253906 81.285156 20.734375 81.984375 21.222656 C 82.335938 21.476562 82.617188 21.476562 82.617188 21.222656 C 82.632812 20.71875 82.632812 20.214844 82.632812 19.707031 Z M 82.632812 19.707031 "/>
<path style=" stroke:none;fill-rule:nonzero;fill:rgb(15.294118%,65.882353%,87.843137%);fill-opacity:1;" d="M 61.671875 14.667969 C 61.761719 14.417969 61.507812 14.207031 61.125 14.195312 C 60.371094 14.148438 59.597656 14.148438 58.847656 14.179688 C 58.460938 14.179688 58.078125 14.402344 57.972656 14.636719 C 57.78125 15.101562 57.589844 15.578125 57.398438 16.035156 C 57.308594 16.273438 57.53125 16.46875 57.945312 16.453125 C 58.710938 16.4375 59.511719 16.453125 60.296875 16.496094 C 60.695312 16.527344 61.09375 16.347656 61.183594 16.113281 C 61.332031 15.605469 61.492188 15.128906 61.671875 14.667969 Z M 61.671875 14.667969 "/>
<path style=" stroke:none;fill-rule:nonzero;fill:rgb(15.294118%,65.882353%,87.843137%);fill-opacity:1;" d="M 70.234375 16.347656 C 70.28125 16.097656 70.015625 15.785156 69.628906 15.664062 C 68.863281 15.441406 68.09375 15.234375 67.320312 15.054688 C 66.9375 14.964844 66.566406 15.101562 66.496094 15.351562 C 66.363281 15.828125 66.230469 16.332031 66.109375 16.824219 C 66.035156 17.078125 66.316406 17.34375 66.730469 17.433594 C 67.53125 17.613281 68.328125 17.820312 69.128906 18.054688 C 69.542969 18.175781 69.898438 18.070312 69.957031 17.820312 C 70.03125 17.328125 70.148438 16.824219 70.234375 16.347656 Z M 70.234375 16.347656 "/>
<path style=" stroke:none;fill-rule:nonzero;fill:rgb(15.294118%,65.882353%,87.843137%);fill-opacity:1;" d="M 74.496094 17.910156 C 74.542969 17.65625 74.246094 17.316406 73.859375 17.152344 C 73.105469 16.835938 72.339844 16.554688 71.582031 16.289062 C 71.199219 16.152344 70.84375 16.246094 70.785156 16.511719 C 70.695312 17 70.59375 17.507812 70.488281 18 C 70.445312 18.25 70.726562 18.5625 71.140625 18.695312 C 71.9375 18.964844 72.738281 19.261719 73.507812 19.570312 C 73.90625 19.734375 74.261719 19.664062 74.289062 19.410156 C 74.363281 18.902344 74.421875 18.414062 74.496094 17.910156 Z M 74.496094 17.910156 "/>
<path style=" stroke:none;fill-rule:nonzero;fill:rgb(15.294118%,65.882353%,87.843137%);fill-opacity:1;" d="M 78.652344 19.960938 C 78.667969 19.707031 78.386719 19.320312 78.003906 19.113281 C 77.265625 18.710938 76.523438 18.339844 75.769531 17.984375 C 75.386719 17.804688 75.042969 17.878906 75.015625 18.132812 C 74.957031 18.636719 74.894531 19.128906 74.839844 19.632812 C 74.792969 19.886719 75.105469 20.242188 75.503906 20.417969 C 76.273438 20.777344 77.054688 21.148438 77.824219 21.550781 C 78.210938 21.757812 78.550781 21.714844 78.566406 21.460938 C 78.582031 20.96875 78.625 20.464844 78.652344 19.960938 Z M 78.652344 19.960938 "/>
<path style=" stroke:none;fill-rule:nonzero;fill:rgb(15.294118%,65.882353%,87.843137%);fill-opacity:1;" d="M 82.617188 22.515625 C 82.617188 22.265625 82.335938 21.832031 81.984375 21.582031 C 81.285156 21.089844 80.5625 20.613281 79.851562 20.183594 C 79.484375 19.960938 79.171875 19.988281 79.15625 20.253906 C 79.128906 20.761719 79.097656 21.265625 79.070312 21.773438 C 79.054688 22.027344 79.363281 22.414062 79.75 22.632812 C 80.503906 23.066406 81.246094 23.539062 81.96875 24.03125 C 82.335938 24.285156 82.632812 24.285156 82.632812 24.03125 C 82.617188 23.527344 82.617188 23.019531 82.617188 22.515625 Z M 82.617188 22.515625 "/>
<path style=" stroke:none;fill-rule:nonzero;fill:rgb(15.294118%,65.882353%,87.843137%);fill-opacity:1;" d="M 60.742188 17.316406 C 60.828125 17.0625 60.5625 16.835938 60.164062 16.824219 C 59.363281 16.78125 58.578125 16.765625 57.796875 16.78125 C 57.398438 16.78125 56.996094 17 56.894531 17.238281 C 56.699219 17.699219 56.511719 18.175781 56.316406 18.636719 C 56.230469 18.875 56.464844 19.066406 56.878906 19.066406 C 57.679688 19.066406 58.492188 19.097656 59.320312 19.144531 C 59.746094 19.171875 60.148438 19.011719 60.222656 18.753906 C 60.414062 18.265625 60.578125 17.789062 60.742188 17.316406 Z M 60.742188 17.316406 "/>
<path style=" stroke:none;fill-rule:nonzero;fill:rgb(15.294118%,65.882353%,87.843137%);fill-opacity:1;" d="M 65.191406 17.953125 C 65.265625 17.699219 64.984375 17.433594 64.585938 17.359375 C 63.789062 17.210938 62.988281 17.089844 62.175781 17 C 61.761719 16.957031 61.375 17.121094 61.289062 17.371094 C 61.125 17.847656 60.960938 18.324219 60.796875 18.800781 C 60.710938 19.050781 60.992188 19.277344 61.40625 19.320312 C 62.234375 19.421875 63.0625 19.558594 63.890625 19.707031 C 64.320312 19.78125 64.703125 19.664062 64.777344 19.410156 C 64.925781 18.933594 65.058594 18.429688 65.191406 17.953125 Z M 65.191406 17.953125 "/>
<path style=" stroke:none;fill-rule:nonzero;fill:rgb(15.294118%,65.882353%,87.843137%);fill-opacity:1;" d="M 69.675781 19.097656 C 69.71875 18.847656 69.4375 18.53125 69.023438 18.414062 C 68.226562 18.175781 67.414062 17.984375 66.613281 17.773438 C 66.199219 17.683594 65.816406 17.820312 65.753906 18.070312 C 65.621094 18.5625 65.488281 19.050781 65.371094 19.542969 C 65.296875 19.796875 65.589844 20.0625 66.019531 20.167969 C 66.851562 20.363281 67.695312 20.582031 68.519531 20.820312 C 68.949219 20.9375 69.335938 20.851562 69.378906 20.597656 C 69.480469 20.078125 69.570312 19.585938 69.675781 19.097656 Z M 69.675781 19.097656 "/>
<path style=" stroke:none;fill-rule:nonzero;fill:rgb(15.294118%,65.882353%,87.843137%);fill-opacity:1;" d="M 74.128906 20.703125 C 74.171875 20.449219 73.859375 20.09375 73.445312 19.945312 C 72.648438 19.632812 71.847656 19.335938 71.066406 19.066406 C 70.648438 18.933594 70.296875 19.023438 70.234375 19.289062 C 70.148438 19.78125 70.046875 20.285156 69.941406 20.777344 C 69.898438 21.03125 70.195312 21.34375 70.625 21.488281 C 71.449219 21.773438 72.277344 22.070312 73.105469 22.382812 C 73.535156 22.546875 73.890625 22.46875 73.921875 22.21875 C 73.980469 21.699219 74.054688 21.195312 74.128906 20.703125 Z M 74.128906 20.703125 "/>
<path style=" stroke:none;fill-rule:nonzero;fill:rgb(15.294118%,65.882353%,87.843137%);fill-opacity:1;" d="M 78.464844 22.769531 C 78.476562 22.515625 78.167969 22.128906 77.78125 21.921875 C 77.015625 21.519531 76.226562 21.148438 75.457031 20.792969 C 75.058594 20.613281 74.707031 20.671875 74.675781 20.925781 C 74.617188 21.429688 74.558594 21.921875 74.496094 22.429688 C 74.453125 22.679688 74.777344 23.035156 75.191406 23.214844 C 76.007812 23.570312 76.820312 23.957031 77.605469 24.359375 C 78.019531 24.566406 78.359375 24.519531 78.371094 24.269531 C 78.402344 23.78125 78.433594 23.273438 78.464844 22.769531 Z M 78.464844 22.769531 "/>
<path style=" stroke:none;fill-rule:nonzero;fill:rgb(15.294118%,65.882353%,87.843137%);fill-opacity:1;" d="M 82.617188 25.339844 C 82.617188 25.085938 82.324219 24.65625 81.953125 24.402344 C 81.230469 23.914062 80.472656 23.4375 79.71875 23.003906 C 79.335938 22.785156 79.011719 22.8125 78.996094 23.082031 C 78.964844 23.585938 78.933594 24.089844 78.90625 24.597656 C 78.890625 24.847656 79.203125 25.234375 79.601562 25.460938 C 80.371094 25.902344 81.152344 26.367188 81.910156 26.855469 C 82.292969 27.105469 82.601562 27.105469 82.601562 26.855469 C 82.601562 26.351562 82.617188 25.832031 82.617188 25.339844 Z M 82.617188 25.339844 "/>
<path style=" stroke:none;fill-rule:nonzero;fill:rgb(15.294118%,65.882353%,87.843137%);fill-opacity:1;" d="M 85.945312 7.714844 C 85.960938 7.964844 85.726562 8.351562 85.429688 8.578125 C 84.839844 9.003906 84.246094 9.46875 83.667969 9.972656 C 83.375 10.226562 83.136719 10.226562 83.136719 9.972656 C 83.136719 9.46875 83.136719 8.960938 83.136719 8.457031 C 83.136719 8.203125 83.359375 7.773438 83.640625 7.519531 C 84.1875 7.03125 84.75 6.570312 85.3125 6.136719 C 85.609375 5.914062 85.84375 5.960938 85.859375 6.214844 C 85.890625 6.71875 85.917969 7.222656 85.945312 7.714844 Z M 85.945312 7.714844 "/>
<path style=" stroke:none;fill-rule:nonzero;fill:rgb(15.294118%,65.882353%,87.843137%);fill-opacity:1;" d="M 89.070312 4.191406 C 89.023438 3.9375 88.773438 3.847656 88.476562 4.027344 C 87.902344 4.367188 87.324219 4.726562 86.746094 5.113281 C 86.453125 5.304688 86.226562 5.679688 86.242188 5.945312 C 86.289062 6.449219 86.304688 6.953125 86.332031 7.460938 C 86.347656 7.714844 86.613281 7.757812 86.925781 7.550781 C 87.527344 7.164062 88.121094 6.792969 88.742188 6.464844 C 89.054688 6.285156 89.289062 5.960938 89.246094 5.707031 C 89.203125 5.1875 89.140625 4.683594 89.070312 4.191406 Z M 89.070312 4.191406 "/>
<path style=" stroke:none;fill-rule:nonzero;fill:rgb(15.294118%,65.882353%,87.843137%);fill-opacity:1;" d="M 92.351562 2.703125 C 92.308594 2.453125 92.011719 2.332031 91.71875 2.453125 C 91.125 2.6875 90.535156 2.945312 89.957031 3.226562 C 89.660156 3.371094 89.453125 3.699219 89.484375 3.96875 C 89.554688 4.472656 89.617188 4.964844 89.691406 5.46875 C 89.734375 5.722656 90 5.8125 90.324219 5.664062 C 90.933594 5.367188 91.554688 5.113281 92.175781 4.875 C 92.484375 4.753906 92.710938 4.445312 92.648438 4.191406 C 92.546875 3.699219 92.457031 3.195312 92.351562 2.703125 Z M 92.351562 2.703125 "/>
<path style=" stroke:none;fill-rule:nonzero;fill:rgb(15.294118%,65.882353%,87.843137%);fill-opacity:1;" d="M 95.679688 1.785156 C 95.609375 1.53125 95.3125 1.382812 95 1.441406 C 94.410156 1.578125 93.800781 1.738281 93.210938 1.917969 C 92.898438 2.003906 92.710938 2.304688 92.753906 2.554688 C 92.855469 3.046875 92.960938 3.550781 93.0625 4.042969 C 93.109375 4.296875 93.417969 4.414062 93.746094 4.3125 C 94.363281 4.117188 94.984375 3.953125 95.625 3.804688 C 95.949219 3.730469 96.140625 3.480469 96.082031 3.226562 C 95.933594 2.75 95.8125 2.261719 95.679688 1.785156 Z M 95.679688 1.785156 "/>
<path style=" stroke:none;fill-rule:nonzero;fill:rgb(15.294118%,65.882353%,87.843137%);fill-opacity:1;" d="M 99.054688 1.414062 C 98.964844 1.160156 98.65625 0.980469 98.328125 0.980469 C 97.722656 1.011719 97.117188 1.070312 96.511719 1.160156 C 96.199219 1.203125 96.007812 1.457031 96.082031 1.695312 C 96.214844 2.167969 96.347656 2.675781 96.480469 3.152344 C 96.554688 3.402344 96.863281 3.550781 97.191406 3.507812 C 97.828125 3.417969 98.460938 3.34375 99.097656 3.300781 C 99.425781 3.285156 99.617188 3.078125 99.527344 2.824219 C 99.394531 2.363281 99.230469 1.886719 99.054688 1.414062 Z M 99.054688 1.414062 "/>
<path style=" stroke:none;fill-rule:nonzero;fill:rgb(15.294118%,65.882353%,87.843137%);fill-opacity:1;" d="M 102.488281 1.632812 C 102.398438 1.398438 102.058594 1.160156 101.75 1.113281 C 101.140625 1.039062 100.519531 0.980469 99.894531 0.964844 C 99.585938 0.964844 99.394531 1.144531 99.484375 1.398438 C 99.644531 1.871094 99.824219 2.347656 99.988281 2.824219 C 100.074219 3.078125 100.417969 3.253906 100.726562 3.253906 C 101.359375 3.253906 102 3.300781 102.636719 3.371094 C 102.957031 3.417969 103.136719 3.253906 103.050781 3.015625 C 102.871094 2.570312 102.679688 2.113281 102.488281 1.632812 Z M 102.488281 1.632812 "/>
<path style=" stroke:none;fill-rule:nonzero;fill:rgb(15.294118%,65.882353%,87.843137%);fill-opacity:1;" d="M 86.023438 9.019531 C 86.007812 8.769531 85.742188 8.722656 85.445312 8.949219 C 84.855469 9.378906 84.261719 9.851562 83.683594 10.34375 C 83.390625 10.597656 83.152344 11.027344 83.152344 11.28125 C 83.152344 11.785156 83.152344 12.289062 83.152344 12.796875 C 83.152344 13.0625 83.402344 13.050781 83.714844 12.796875 C 84.320312 12.304688 84.941406 11.847656 85.5625 11.398438 C 85.875 11.175781 86.125 10.789062 86.109375 10.535156 C 86.078125 10.03125 86.050781 9.527344 86.023438 9.019531 Z M 86.023438 9.019531 "/>
<path style=" stroke:none;fill-rule:nonzero;fill:rgb(15.294118%,65.882353%,87.843137%);fill-opacity:1;" d="M 99.972656 4.070312 C 99.882812 3.820312 99.542969 3.640625 99.230469 3.65625 C 98.59375 3.699219 97.960938 3.773438 97.324219 3.863281 C 96.996094 3.910156 96.792969 4.164062 96.863281 4.414062 C 96.996094 4.886719 97.128906 5.394531 97.265625 5.871094 C 97.339844 6.121094 97.664062 6.269531 98.003906 6.226562 C 98.671875 6.121094 99.335938 6.050781 100.003906 5.988281 C 100.339844 5.960938 100.550781 5.75 100.460938 5.515625 C 100.296875 5.023438 100.136719 4.546875 99.972656 4.070312 Z M 99.972656 4.070312 "/>
<path style=" stroke:none;fill-rule:nonzero;fill:rgb(15.294118%,65.882353%,87.843137%);fill-opacity:1;" d="M 103.550781 4.234375 C 103.464844 4 103.105469 3.761719 102.78125 3.730469 C 102.132812 3.65625 101.492188 3.628906 100.859375 3.613281 C 100.535156 3.613281 100.339844 3.820312 100.429688 4.042969 C 100.59375 4.519531 100.769531 4.996094 100.933594 5.46875 C 101.023438 5.722656 101.359375 5.898438 101.703125 5.898438 C 102.367188 5.898438 103.035156 5.929688 103.699219 5.988281 C 104.039062 6.019531 104.234375 5.855469 104.128906 5.617188 C 103.9375 5.171875 103.746094 4.695312 103.550781 4.234375 Z M 103.550781 4.234375 "/>
<path style=" stroke:none;fill-rule:nonzero;fill:rgb(15.294118%,65.882353%,87.843137%);fill-opacity:1;" d="M 86.1875 11.832031 C 86.171875 11.578125 85.890625 11.53125 85.578125 11.753906 C 84.941406 12.1875 84.332031 12.664062 83.714844 13.152344 C 83.402344 13.40625 83.152344 13.835938 83.152344 14.089844 C 83.152344 14.59375 83.152344 15.101562 83.152344 15.605469 C 83.152344 15.871094 83.417969 15.855469 83.742188 15.605469 C 84.378906 15.113281 85.03125 14.652344 85.679688 14.207031 C 86.023438 13.984375 86.273438 13.597656 86.257812 13.347656 C 86.226562 12.839844 86.199219 12.320312 86.1875 11.832031 Z M 86.1875 11.832031 "/>
<path style=" stroke:none;fill-rule:nonzero;fill:rgb(15.294118%,65.882353%,87.843137%);fill-opacity:1;" d="M 93.433594 8.234375 C 93.386719 7.980469 93.0625 7.863281 92.738281 7.996094 C 92.085938 8.25 91.421875 8.515625 90.769531 8.8125 C 90.429688 8.960938 90.191406 9.304688 90.222656 9.554688 C 90.296875 10.0625 90.355469 10.550781 90.429688 11.054688 C 90.472656 11.3125 90.769531 11.398438 91.125 11.234375 C 91.804688 10.9375 92.5 10.65625 93.183594 10.417969 C 93.535156 10.285156 93.773438 9.988281 93.730469 9.734375 C 93.625 9.214844 93.519531 8.722656 93.433594 8.234375 Z M 93.433594 8.234375 "/>
<path style=" stroke:none;fill-rule:nonzero;fill:rgb(15.294118%,65.882353%,87.843137%);fill-opacity:1;" d="M 97.128906 7.207031 C 97.058594 6.953125 96.730469 6.820312 96.390625 6.882812 C 95.726562 7.03125 95.0625 7.207031 94.410156 7.402344 C 94.066406 7.503906 93.847656 7.800781 93.894531 8.054688 C 93.996094 8.546875 94.097656 9.050781 94.203125 9.539062 C 94.246094 9.796875 94.585938 9.914062 94.941406 9.808594 C 95.640625 9.601562 96.332031 9.421875 97.027344 9.261719 C 97.382812 9.183594 97.621094 8.917969 97.546875 8.664062 C 97.398438 8.1875 97.265625 7.699219 97.128906 7.207031 Z M 97.128906 7.207031 "/>
<path style=" stroke:none;fill-rule:nonzero;fill:rgb(15.294118%,65.882353%,87.843137%);fill-opacity:1;" d="M 104.617188 6.835938 C 104.527344 6.597656 104.15625 6.378906 103.816406 6.332031 C 103.136719 6.269531 102.472656 6.242188 101.804688 6.253906 C 101.464844 6.253906 101.257812 6.464844 101.347656 6.71875 C 101.507812 7.195312 101.6875 7.667969 101.851562 8.144531 C 101.9375 8.398438 102.292969 8.578125 102.648438 8.578125 C 103.347656 8.578125 104.039062 8.578125 104.734375 8.621094 C 105.089844 8.648438 105.296875 8.484375 105.195312 8.234375 C 105 7.757812 104.824219 7.296875 104.617188 6.835938 Z M 104.617188 6.835938 "/>
<path style=" stroke:none;fill-rule:nonzero;fill:rgb(15.294118%,65.882353%,87.843137%);fill-opacity:1;" d="M 86.332031 14.636719 C 86.320312 14.386719 86.023438 14.34375 85.695312 14.566406 C 85.042969 14.996094 84.378906 15.46875 83.742188 15.960938 C 83.417969 16.214844 83.152344 16.644531 83.152344 16.898438 C 83.152344 17.402344 83.152344 17.910156 83.152344 18.414062 C 83.152344 18.683594 83.417969 18.667969 83.757812 18.414062 C 84.425781 17.921875 85.105469 17.464844 85.785156 17.015625 C 86.140625 16.796875 86.421875 16.40625 86.390625 16.152344 C 86.40625 15.648438 86.359375 15.128906 86.332031 14.636719 Z M 86.332031 14.636719 "/>
<path style=" stroke:none;fill-rule:nonzero;fill:rgb(15.294118%,65.882353%,87.843137%);fill-opacity:1;" d="M 93.964844 10.984375 C 93.921875 10.730469 93.582031 10.628906 93.226562 10.746094 C 92.53125 11 91.835938 11.265625 91.152344 11.578125 C 90.800781 11.726562 90.550781 12.066406 90.578125 12.320312 C 90.652344 12.828125 90.710938 13.316406 90.785156 13.820312 C 90.832031 14.074219 91.140625 14.164062 91.511719 14 C 92.234375 13.6875 92.945312 13.40625 93.667969 13.152344 C 94.042969 13.019531 94.308594 12.722656 94.246094 12.453125 C 94.160156 11.980469 94.066406 11.488281 93.964844 10.984375 Z M 93.964844 10.984375 "/>
<path style=" stroke:none;fill-rule:nonzero;fill:rgb(15.294118%,65.882353%,87.843137%);fill-opacity:1;" d="M 97.871094 9.929688 C 97.796875 9.675781 97.457031 9.539062 97.101562 9.617188 C 96.40625 9.78125 95.710938 9.957031 95 10.164062 C 94.644531 10.269531 94.394531 10.566406 94.453125 10.820312 C 94.558594 11.3125 94.660156 11.816406 94.765625 12.304688 C 94.808594 12.558594 95.148438 12.664062 95.53125 12.558594 C 96.257812 12.335938 96.996094 12.144531 97.722656 11.980469 C 98.109375 11.886719 98.34375 11.621094 98.269531 11.382812 C 98.136719 10.894531 98.003906 10.417969 97.871094 9.929688 Z M 97.871094 9.929688 "/>
<path style=" stroke:none;fill-rule:nonzero;fill:rgb(15.294118%,65.882353%,87.843137%);fill-opacity:1;" d="M 105.695312 9.4375 C 105.609375 9.199219 105.238281 8.976562 104.882812 8.960938 C 104.1875 8.917969 103.492188 8.902344 102.78125 8.917969 C 102.425781 8.917969 102.207031 9.140625 102.292969 9.378906 C 102.457031 9.851562 102.636719 10.328125 102.796875 10.804688 C 102.886719 11.054688 103.253906 11.234375 103.625 11.21875 C 104.351562 11.191406 105.078125 11.203125 105.800781 11.234375 C 106.167969 11.25 106.394531 11.085938 106.289062 10.847656 C 106.082031 10.359375 105.886719 9.898438 105.695312 9.4375 Z M 105.695312 9.4375 "/>
<path style=" stroke:none;fill-rule:nonzero;fill:rgb(15.294118%,65.882353%,87.843137%);fill-opacity:1;" d="M 86.496094 17.449219 C 86.480469 17.195312 86.1875 17.152344 85.828125 17.371094 C 85.132812 17.804688 84.453125 18.28125 83.789062 18.769531 C 83.445312 19.023438 83.179688 19.453125 83.179688 19.707031 C 83.179688 20.214844 83.179688 20.71875 83.179688 21.222656 C 83.179688 21.488281 83.476562 21.476562 83.816406 21.222656 C 84.511719 20.734375 85.222656 20.253906 85.929688 19.828125 C 86.304688 19.601562 86.585938 19.214844 86.570312 18.964844 C 86.554688 18.460938 86.539062 17.953125 86.496094 17.449219 Z M 86.496094 17.449219 "/>
<path style=" stroke:none;fill-rule:nonzero;fill:rgb(15.294118%,65.882353%,87.843137%);fill-opacity:1;" d="M 94.496094 13.746094 C 94.453125 13.496094 94.113281 13.390625 93.746094 13.523438 C 93.019531 13.777344 92.28125 14.074219 91.570312 14.371094 C 91.199219 14.535156 90.933594 14.878906 90.964844 15.128906 C 91.035156 15.632812 91.097656 16.125 91.167969 16.632812 C 91.214844 16.882812 91.539062 16.972656 91.921875 16.808594 C 92.679688 16.496094 93.433594 16.214844 94.203125 15.949219 C 94.585938 15.8125 94.867188 15.515625 94.808594 15.25 C 94.707031 14.746094 94.601562 14.238281 94.496094 13.746094 Z M 94.496094 13.746094 "/>
<path style=" stroke:none;fill-rule:nonzero;fill:rgb(15.294118%,65.882353%,87.843137%);fill-opacity:1;" d="M 98.59375 12.632812 C 98.523438 12.378906 98.164062 12.246094 97.796875 12.320312 C 97.058594 12.484375 96.332031 12.679688 95.59375 12.898438 C 95.210938 13.019531 94.957031 13.316406 95 13.570312 C 95.105469 14.0625 95.210938 14.566406 95.3125 15.054688 C 95.355469 15.304688 95.726562 15.414062 96.109375 15.304688 C 96.863281 15.085938 97.632812 14.878906 98.40625 14.699219 C 98.789062 14.609375 99.054688 14.34375 98.996094 14.089844 C 98.863281 13.613281 98.726562 13.121094 98.59375 12.632812 Z M 98.59375 12.632812 "/>
<path style=" stroke:none;fill-rule:nonzero;fill:rgb(15.294118%,65.882353%,87.843137%);fill-opacity:1;" d="M 106.761719 12.023438 C 106.675781 11.785156 106.289062 11.5625 105.917969 11.546875 C 105.195312 11.503906 104.453125 11.503906 103.730469 11.53125 C 103.347656 11.53125 103.121094 11.753906 103.210938 12.011719 C 103.375 12.484375 103.550781 12.960938 103.714844 13.433594 C 103.804688 13.6875 104.1875 13.867188 104.570312 13.835938 C 105.328125 13.792969 106.082031 13.792969 106.835938 13.820312 C 107.21875 13.820312 107.441406 13.65625 107.351562 13.417969 C 107.148438 12.960938 106.953125 12.5 106.761719 12.023438 Z M 106.761719 12.023438 "/>
<path style=" stroke:none;fill-rule:nonzero;fill:rgb(15.294118%,65.882353%,87.843137%);fill-opacity:1;" d="M 86.65625 20.253906 C 86.640625 20.003906 86.320312 19.960938 85.960938 20.183594 C 85.238281 20.613281 84.527344 21.089844 83.832031 21.582031 C 83.476562 21.832031 83.195312 22.265625 83.195312 22.515625 C 83.195312 23.019531 83.195312 23.527344 83.195312 24.03125 C 83.195312 24.300781 83.492188 24.285156 83.863281 24.03125 C 84.589844 23.539062 85.328125 23.066406 86.078125 22.632812 C 86.464844 22.414062 86.761719 22.027344 86.761719 21.773438 C 86.71875 21.265625 86.6875 20.761719 86.65625 20.253906 Z M 86.65625 20.253906 "/>
<path style=" stroke:none;fill-rule:nonzero;fill:rgb(15.294118%,65.882353%,87.843137%);fill-opacity:1;" d="M 103.613281 14.714844 C 103.519531 14.460938 103.136719 14.296875 102.753906 14.328125 C 101.984375 14.402344 101.214844 14.519531 100.445312 14.667969 C 100.058594 14.746094 99.792969 15.011719 99.855469 15.265625 C 99.988281 15.738281 100.121094 16.246094 100.253906 16.71875 C 100.324219 16.972656 100.710938 17.105469 101.109375 17.03125 C 101.910156 16.898438 102.707031 16.765625 103.492188 16.675781 C 103.890625 16.632812 104.15625 16.40625 104.070312 16.152344 C 103.9375 15.664062 103.773438 15.171875 103.613281 14.714844 Z M 103.613281 14.714844 "/>
<path style=" stroke:none;fill-rule:nonzero;fill:rgb(15.294118%,65.882353%,87.843137%);fill-opacity:1;" d="M 107.84375 14.621094 C 107.75 14.386719 107.351562 14.164062 106.96875 14.164062 C 106.214844 14.132812 105.460938 14.148438 104.6875 14.179688 C 104.304688 14.195312 104.054688 14.417969 104.144531 14.652344 C 104.304688 15.128906 104.484375 15.605469 104.648438 16.082031 C 104.734375 16.332031 105.117188 16.496094 105.535156 16.46875 C 106.316406 16.421875 107.101562 16.40625 107.886719 16.421875 C 108.273438 16.421875 108.523438 16.261719 108.433594 16.003906 C 108.226562 15.5625 108.03125 15.101562 107.84375 14.621094 Z M 107.84375 14.621094 "/>
<path style=" stroke:none;fill-rule:nonzero;fill:rgb(15.294118%,65.882353%,87.843137%);fill-opacity:1;" d="M 86.820312 23.066406 C 86.804688 22.8125 86.480469 22.769531 86.09375 22.988281 C 85.339844 23.4375 84.601562 23.898438 83.863281 24.386719 C 83.476562 24.640625 83.195312 25.070312 83.195312 25.324219 C 83.195312 25.832031 83.195312 26.335938 83.195312 26.839844 C 83.195312 27.09375 83.507812 27.09375 83.890625 26.839844 C 84.644531 26.351562 85.414062 25.875 86.199219 25.445312 C 86.597656 25.21875 86.925781 24.835938 86.894531 24.582031 C 86.878906 24.078125 86.851562 23.570312 86.820312 23.066406 Z M 86.820312 23.066406 "/>
<path style=" stroke:none;fill-rule:nonzero;fill:rgb(15.294118%,65.882353%,87.843137%);fill-opacity:1;" d="M 91.140625 20.925781 C 91.097656 20.671875 90.753906 20.597656 90.355469 20.792969 C 89.570312 21.148438 88.789062 21.535156 88.035156 21.921875 C 87.648438 22.128906 87.339844 22.515625 87.355469 22.769531 C 87.394531 23.273438 87.410156 23.78125 87.441406 24.285156 C 87.457031 24.535156 87.796875 24.582031 88.210938 24.371094 C 89.007812 23.972656 89.824219 23.601562 90.621094 23.230469 C 91.050781 23.050781 91.347656 22.695312 91.316406 22.441406 C 91.273438 21.921875 91.199219 21.429688 91.140625 20.925781 Z M 91.140625 20.925781 "/>
<path style=" stroke:none;fill-rule:nonzero;fill:rgb(15.294118%,65.882353%,87.843137%);fill-opacity:1;" d="M 95.578125 19.277344 C 95.53125 19.023438 95.148438 18.917969 94.75 19.050781 C 93.949219 19.320312 93.152344 19.617188 92.367188 19.929688 C 91.96875 20.09375 91.671875 20.433594 91.6875 20.6875 C 91.761719 21.195312 91.820312 21.683594 91.894531 22.1875 C 91.9375 22.441406 92.296875 22.515625 92.710938 22.351562 C 93.519531 22.027344 94.363281 21.730469 95.195312 21.460938 C 95.625 21.328125 95.917969 21 95.875 20.746094 C 95.773438 20.253906 95.679688 19.765625 95.578125 19.277344 Z M 95.578125 19.277344 "/>
<path style=" stroke:none;fill-rule:nonzero;fill:rgb(15.294118%,65.882353%,87.843137%);fill-opacity:1;" d="M 100.042969 18.070312 C 99.972656 17.820312 99.585938 17.683594 99.1875 17.773438 C 98.390625 17.953125 97.574219 18.164062 96.777344 18.414062 C 96.363281 18.53125 96.082031 18.847656 96.125 19.097656 C 96.230469 19.585938 96.332031 20.09375 96.433594 20.582031 C 96.480469 20.835938 96.863281 20.9375 97.292969 20.804688 C 98.125 20.570312 98.964844 20.347656 99.792969 20.152344 C 100.222656 20.0625 100.519531 19.765625 100.445312 19.53125 C 100.3125 19.039062 100.175781 18.5625 100.042969 18.070312 Z M 100.042969 18.070312 "/>
<path style=" stroke:none;fill-rule:nonzero;fill:rgb(15.294118%,65.882353%,87.843137%);fill-opacity:1;" d="M 104.527344 17.371094 C 104.4375 17.121094 104.054688 16.957031 103.640625 17 C 102.839844 17.089844 102.042969 17.210938 101.226562 17.359375 C 100.816406 17.433594 100.550781 17.699219 100.621094 17.953125 C 100.753906 18.429688 100.890625 18.933594 101.023438 19.410156 C 101.09375 19.664062 101.492188 19.796875 101.910156 19.707031 C 102.738281 19.542969 103.566406 19.421875 104.394531 19.320312 C 104.824219 19.277344 105.089844 19.023438 105 18.800781 C 104.835938 18.324219 104.6875 17.835938 104.527344 17.371094 Z M 104.527344 17.371094 "/>
<path style=" stroke:none;fill-rule:nonzero;fill:rgb(15.294118%,65.882353%,87.843137%);fill-opacity:1;" d="M 108.90625 17.226562 C 108.816406 16.988281 108.40625 16.78125 108.007812 16.765625 C 107.234375 16.75 106.433594 16.765625 105.636719 16.808594 C 105.238281 16.835938 104.972656 17.0625 105.0625 17.300781 C 105.222656 17.773438 105.402344 18.25 105.5625 18.726562 C 105.652344 18.980469 106.066406 19.144531 106.464844 19.113281 C 107.28125 19.066406 108.09375 19.023438 108.90625 19.039062 C 109.320312 19.039062 109.574219 18.859375 109.46875 18.605469 C 109.292969 18.164062 109.097656 17.683594 108.90625 17.226562 Z M 108.90625 17.226562 "/>
</g>
</svg>
