<?xml version="1.0" encoding="UTF-8"?>
<!DOCTYPE svg PUBLIC "-//W3C//DTD SVG 1.1//EN" "http://www.w3.org/Graphics/SVG/1.1/DTD/svg11.dtd">
<!-- Creator: CorelDRAW 2017 -->
<svg xmlns="http://www.w3.org/2000/svg" xml:space="preserve" width="3.70333in" height="2.08333in" version="1.1" style="shape-rendering:geometricPrecision; text-rendering:geometricPrecision; image-rendering:optimizeQuality; fill-rule:evenodd; clip-rule:evenodd"
viewBox="0 0 3703 2083"
 xmlns:xlink="http://www.w3.org/1999/xlink">
 <defs>
  <style type="text/css">
   <![CDATA[
    .fil4 {fill:#FEFEFE}
    .fil5 {fill:#727376}
    .fil3 {fill:#F58634}
    .fil13 {fill:#00AFEF}
    .fil10 {fill:#0C0B0C}
    .fil7 {fill:#171717}
    .fil14 {fill:#373A3B}
    .fil8 {fill:#3E3E3E}
    .fil9 {fill:#787776}
    .fil11 {fill:#E4E4FE}
    .fil0 {fill:#E6E7E8}
    .fil12 {fill:#FBAD5B}
    .fil6 {fill:#FEFEFE}
    .fil15 {fill:#727376;fill-rule:nonzero}
    .fil2 {fill:#373435;fill-opacity:0.031373}
    .fil1 {fill:#373435;fill-opacity:0.101961}
   ]]>
  </style>
 </defs>
 <g id="Layer_x0020_1">
  <metadata id="CorelCorpID_0Corel-Layer"/>
  <polygon class="fil0" points="0,0 3703,0 3703,2083 0,2083 "/>
  <polygon class="fil1" points="1485,2083 1325,2083 1166,2083 1163,2083 1142,2083 1053,2083 1046,2083 1041,2083 999,2083 999,2083 968,2083 963,2083 962,2083 962,2083 891,2083 891,2083 889,2083 871,2083 868,2083 865,2083 863,2083 863,2083 862,2083 859,2083 858,2083 850,2083 845,2083 843,2083 843,2083 840,2083 820,2083 820,2083 820,2083 815,2083 813,2083 810,2083 797,2083 797,2083 794,2083 787,2083 784,2083 777,2083 775,2083 732,2083 728,2083 721,2083 720,2083 717,2083 711,2083 684,2083 679,2083 673,2083 672,2083 671,2083 664,2083 663,2083 663,2083 644,2083 638,2083 630,2083 623,2083 604,2083 576,2083 574,2083 573,2083 568,2083 567,2083 563,2083 559,2083 544,2083 481,2083 473,2083 470,2083 469,2083 457,2083 446,2083 442,2083 436,2083 421,2083 421,2083 414,2083 409,2083 407,2083 407,2083 402,2083 402,2083 391,2083 387,2083 387,2083 377,2083 370,2083 365,2083 358,2083 338,2083 334,2083 269,2083 264,2083 261,2083 257,2083 255,2083 244,2083 243,2083 242,2083 241,2083 237,2083 236,2083 235,2083 229,2083 229,2083 226,2083 218,2083 204,2083 201,2083 198,2083 196,2083 193,2083 187,2083 177,2083 162,2083 158,2083 153,2083 138,2083 126,2083 117,2083 97,2083 97,2083 90,2083 90,2083 84,2083 83,2083 77,2083 74,2083 71,2083 69,2083 65,2083 65,2083 65,2083 63,2083 62,2083 59,2083 52,2083 46,2083 33,2083 27,2083 24,2083 11,2083 8,2083 4,2083 2,2083 0,2083 0,2080 0,2078 0,2077 0,2074 0,2067 0,2058 0,2056 0,2056 0,2050 0,2040 0,2034 0,2022 0,2017 0,2016 0,2013 0,2011 0,2009 0,1994 0,1993 0,1988 0,1988 0,1988 0,1985 0,1984 0,1981 0,1981 0,1976 0,1974 0,1973 0,1972 0,1969 0,1965 0,1963 0,1963 0,1961 0,1958 0,1957 0,1952 0,1932 0,1930 0,1914 0,1913 0,1878 0,1875 0,1872 0,1863 0,1837 0,1836 0,1836 0,1835 0,1833 0,1827 0,1818 0,1815 0,1811 0,1805 0,1797 0,1794 0,1793 0,1790 0,1788 0,1785 0,1784 0,1782 0,1779 0,1777 0,1777 0,1775 0,1775 0,1774 0,1771 0,1769 0,1759 0,1758 0,1758 0,1756 0,1755 0,1747 0,1747 0,1742 0,1740 0,1740 0,1739 0,1736 0,1734 0,1713 0,1711 0,1704 0,1696 0,1690 0,1689 0,1685 0,1681 0,1679 0,1679 0,1676 0,1671 0,1670 0,1666 0,1653 0,1653 0,1650 0,1648 0,1648 0,1645 0,1645 0,1644 0,1642 0,1639 0,1632 0,1627 0,1620 0,1614 0,1612 0,1611 0,1608 0,1603 0,1602 0,1601 0,1597 0,1590 0,1580 0,1578 0,1556 0,1550 0,1547 0,1536 0,1514 0,1511 0,1489 0,1478 0,1475 0,1466 0,1444 0,1441 0,1418 0,1411 0,1407 0,1396 0,1373 0,1370 0,1347 0,1339 0,1335 0,1310 0,1263 0,1203 955,476 955,544 1092,441 1092,524 1203,441 1203,525 1318,441 1318,521 1428,441 1428,526 1548,441 1548,519 1658,441 1658,521 1774,441 1774,517 1884,441 1884,522 2003,441 2003,515 2114,441 2114,518 2231,441 2231,513 2341,441 2341,518 2461,441 2461,512 2571,441 2571,544 2678,544 2678,1447 2550,1515 2748,1515 1662,2083 "/>
  <path class="fil2" d="M217 1826c7,11 12,21 16,32 3,7 5,19 21,19 5,0 11,-1 17,-5 7,-3 12,-9 14,-16l6 -21 15 -8 1 1c-2,8 -3,16 -3,21 0,18 15,24 27,24 7,0 13,-3 13,-10 0,-8 -4,-22 -8,-35 7,-7 14,-14 22,-20l1 1c4,15 6,30 6,40 0,10 -4,20 -8,28 -7,14 -20,25 -36,25 -12,0 -25,-6 -34,-17l-1 0c-9,11 -22,20 -43,20l-7 0c-1,14 -4,24 -9,33 -13,25 -50,42 -85,42 -49,0 -73,-28 -73,-66 0,-23 8,-45 19,-60l10 4c-7,14 -12,27 -12,40 0,35 28,52 62,52 31,0 68,-19 75,-42 -3,-25 -12,-36 -26,-59 4,-8 10,-15 17,-23l1 0 0 0 0 0 0 0 0 0 0 0 2 0zm564 -133c10,6 20,14 30,23 -5,8 -12,15 -21,21 -10,-8 -20,-15 -30,-22 7,-8 14,-15 21,-22l0 0 0 0 0 0 0 0zm5 96c-17,0 -30,11 -30,19 0,17 33,23 73,23 -5,-20 -22,-42 -43,-42l0 0zm-37 93c22,0 41,-1 55,-4 16,-4 30,-12 30,-18 0,-1 0,-3 -1,-5 -9,1 -19,1 -28,1 -29,0 -52,-7 -61,-23 -2,-4 -4,-10 -4,-15 0,-16 7,-32 19,-42 10,-9 21,-14 33,-14 20,0 37,17 48,43 6,14 11,31 11,51 0,14 -4,25 -12,34 -16,16 -45,21 -90,21l-21 0 0 0 -5 0c-11,0 -19,-2 -25,-7l-1 0c0,3 1,5 1,8 0,10 -3,23 -10,33 -20,30 -42,43 -60,43 -19,0 -42,-7 -63,-17l4 -7c7,3 16,5 29,5 34,0 78,-33 84,-64 -1,-3 -4,-6 -7,-10 -10,-12 -16,-22 -22,-32 5,-10 10,-18 14,-25l2 0c14,29 28,46 57,46l5 0 0 0 21 0 0 0 0 0 0 0 0 0 0 0 -3 -2zm-146 31c3,-14 3,-29 3,-43l0 -21c0,-39 -5,-96 -9,-133 7,-8 17,-17 25,-23l2 1c5,47 7,101 7,151 0,13 -1,26 -2,35 -1,12 -8,21 -22,35l-3 -1 0 0 -1 -1zm-151 -62c1,18 10,33 41,33 20,0 36,-5 55,-14 3,-1 5,-3 5,-5 0,-12 -9,-27 -24,-41 -14,-13 -34,-25 -51,-32 -6,-3 -8,-5 -8,-8 0,-5 7,-16 13,-24l2 0c20,11 43,27 60,44 15,16 25,33 25,51 0,13 -4,26 -11,38 -23,11 -47,20 -70,20 -29,0 -49,-13 -49,-45 0,-3 0,-9 1,-16l10 0 0 0 0 0 1 -1zm-52 -52l18 29c6,11 13,22 13,41l0 24c0,19 -12,39 -32,60 -15,14 -29,20 -42,20 -19,0 -40,-6 -65,-17l3 -7c8,2 17,4 28,4 36,0 72,-26 89,-58 2,-4 3,-7 3,-9 0,-4 -2,-8 -4,-11 -9,-17 -19,-33 -30,-47 6,-9 12,-18 18,-27l1 0 0 0 0 0 0 0 0 0 0 0 0 -2z"/>
  <rect class="fil3" x="955" y="476" width="1793" height="1039"/>
  <rect class="fil4" x="1026" y="544" width="1652" height="903"/>
  <g id="_2633274090864">
   <g>
    <polygon class="fil5" points="1092,538 1132,538 1132,564 1092,564 "/>
    <polygon class="fil5" points="1092,530 1132,498 1132,564 1092,564 "/>
   </g>
   <g>
    <polygon class="fil5" points="1203,538 1244,538 1244,564 1203,564 "/>
    <polygon class="fil5" points="1203,531 1244,499 1244,564 1203,564 "/>
   </g>
   <g>
    <polygon class="fil5" points="1318,538 1358,538 1358,564 1318,564 "/>
    <polygon class="fil5" points="1318,527 1358,495 1358,564 1318,564 "/>
   </g>
   <g>
    <polygon class="fil5" points="1428,538 1469,538 1469,564 1428,564 "/>
    <polygon class="fil5" points="1428,532 1469,501 1469,564 1428,564 "/>
   </g>
   <g>
    <polygon class="fil5" points="1548,538 1588,538 1588,564 1548,564 "/>
    <polygon class="fil5" points="1588,494 1548,524 1548,564 1588,564 "/>
   </g>
   <g>
    <polygon class="fil5" points="1658,538 1699,538 1699,564 1658,564 "/>
    <polygon class="fil5" points="1699,497 1658,526 1658,564 1699,564 "/>
   </g>
   <g>
    <polygon class="fil5" points="1774,538 1814,538 1814,564 1774,564 "/>
    <polygon class="fil5" points="1814,492 1774,522 1774,564 1814,564 "/>
   </g>
   <g>
    <polygon class="fil5" points="1884,538 1924,538 1924,564 1884,564 "/>
    <polygon class="fil5" points="1924,498 1884,527 1884,564 1924,564 "/>
   </g>
   <g>
    <polygon class="fil5" points="2003,538 2044,538 2044,564 2003,564 "/>
    <polygon class="fil5" points="2044,491 2003,519 2003,564 2044,564 "/>
   </g>
   <polygon class="fil5" points="2114,538 2154,538 2154,564 2114,564 "/>
   <rect class="fil5" x="1092" y="441" width="40" height="123"/>
   <rect class="fil5" x="1203" y="441" width="40" height="123"/>
   <rect class="fil5" x="1318" y="441" width="40" height="123"/>
   <rect class="fil5" x="1428" y="441" width="40" height="123"/>
   <rect class="fil5" x="1548" y="441" width="40" height="123"/>
   <rect class="fil5" x="1658" y="441" width="40" height="123"/>
   <rect class="fil5" x="1774" y="441" width="40" height="123"/>
   <rect class="fil5" x="1884" y="441" width="40" height="123"/>
   <rect class="fil5" x="2003" y="441" width="40" height="123"/>
   <rect class="fil5" x="2114" y="441" width="40" height="123"/>
   <rect class="fil5" x="2231" y="441" width="40" height="123"/>
   <rect class="fil5" x="2341" y="441" width="40" height="123"/>
   <rect class="fil5" x="2461" y="441" width="40" height="123"/>
   <rect class="fil5" x="2571" y="441" width="40" height="123"/>
  </g>
  <g id="_2633274082288">
   <g>
    <path class="fil6" d="M1209 1002c-1,31 49,19 56,-1l-56 1z"/>
    <path class="fil6" d="M1429 1211c-3,32 47,18 56,0l-56 0z"/>
    <path class="fil6" d="M1560 1001c-1,13 13,20 26,17 15,-3 22,-14 28,-18l-54 1z"/>
    <path class="fil6" d="M1166 1212c2,25 37,17 47,0l-47 0z"/>
   </g>
   <g>
    <path class="fil7" d="M1429 1211l56 0c-9,18 -59,32 -56,0zm-263 1l47 0c-10,18 -45,25 -47,0zm-5 -12c-1,4 -1,3 -2,6 -1,2 -1,5 -1,5 0,0 -1,2 -1,2 21,52 66,-1 68,-2 16,0 33,-1 49,1l145 -2c5,20 14,32 38,27 27,-6 23,-14 41,-27l827 -6 5 13c0,-1 1,-2 1,-2 2,6 0,-3 4,-11 34,-1 208,1 223,-4l-160 -1c0,-12 -4,-17 6,-21 6,-3 19,1 14,-7l-5 2c0,0 -1,0 -1,0 -6,-1 0,-2 -7,2 -9,4 2,4 -14,1l1 23c-11,2 -53,5 -61,-2 4,-4 0,-2 7,-3 2,0 9,1 13,0 -4,-9 4,-2 -7,-8 10,-7 7,0 9,-11 -20,2 -4,15 -29,10 2,18 8,14 -9,14 -3,-7 1,-26 3,-32 12,-4 28,0 35,-8 -6,-4 -34,-2 -42,1l-6 39 -279 2 9 -30c52,-7 79,-6 124,-27 39,-18 40,-23 70,-45 7,-5 19,-7 24,-16l-3 -1c0,0 -1,0 -2,0l-9 3c-28,15 -34,34 -97,60 -20,8 -49,14 -72,17 -59,7 -33,-11 -52,38l-278 3c4,-9 6,-10 8,-22 47,-1 84,-17 118,-43 8,-6 27,-15 31,-23 -16,-7 -47,38 -105,53 -16,4 -35,3 -50,6l-10 27 -233 2 5 -23c38,-4 79,-12 110,-34 4,-3 8,-6 14,-9 11,-6 11,-3 14,-13 -27,4 -35,30 -100,44 -13,3 -34,1 -43,6l-6 26c-11,5 -51,4 -64,4l5 -20c-12,6 -9,10 -15,20l-83 1c3,-8 20,-30 -1,-39 -6,11 22,39 -37,39 6,-9 15,-13 15,-23 -16,3 -13,19 -31,22 -13,2 -40,0 -55,1l9 -29c33,5 77,-11 99,-31 9,-8 21,-17 24,-26 -14,3 -19,10 -28,19 -8,8 -15,11 -27,17 -23,12 -46,14 -76,15 -4,11 -9,26 -11,33l-54 0c2,-18 9,-19 10,-28 -11,1 -13,9 -14,20z"/>
    <path class="fil7" d="M1209 1002l56 -1c-7,20 -57,32 -56,1zm352 -2l54 -1c-6,4 -14,15 -28,18 -13,3 -27,-5 -26,-17zm579 -81c-14,22 -17,33 -61,25 -9,26 -2,18 -7,46 -17,6 -223,2 -261,4l4 -26c7,-1 9,-1 16,-4 7,-3 6,-6 14,-9 11,-5 24,-9 18,-25 -7,4 -5,8 -10,13 -7,7 -3,2 -14,-1 -6,14 -9,16 -20,16 -8,0 2,-1 -6,0 -6,1 -1,-1 -5,2l-4 31c-27,6 -55,3 -87,3 -29,0 -59,0 -88,0l7 -26c15,-4 38,-13 32,-32 -11,3 -2,1 -9,7l-8 6c0,0 -1,1 -1,1 -11,9 -4,9 -24,10 -1,18 1,20 -8,34 -14,2 -46,4 -58,0 2,-8 6,-13 4,-20 -13,10 -7,10 -14,21l-185 1c6,-8 30,-28 4,-42 -7,13 10,18 -5,32 -9,8 -19,11 -36,9 7,-10 15,-12 15,-25 -13,6 -20,32 -64,25 10,-35 7,-14 36,-32l1 -15c-1,1 -2,1 -2,2 -2,9 -21,13 -22,13 -14,8 -5,2 -18,5l-3 28 -61 1c2,-10 4,-10 7,-20 -12,5 -9,3 -14,19l-58 4c11,3 48,0 53,1 10,2 -2,28 39,26 17,-1 34,-16 38,-27 23,0 48,1 69,2 61,1 137,-6 209,-2 7,48 61,20 74,-1l167 -1c25,2 13,-1 49,-1 74,0 149,-1 224,-2l4 5c2,2 0,1 4,4 0,-1 5,-8 5,-8l1 -4c0,-1 0,-1 1,-2l1 -23c0,-4 0,-3 0,-7 4,-21 23,9 54,-21 16,-15 26,-5 35,-20l1 -16c-12,7 -5,11 -13,17 -10,7 -10,0 -20,-1z"/>
    <path class="fil7" d="M2477 925c-21,36 -28,29 -67,29l1 34c-27,6 -224,2 -282,3l-31 0c-10,2 -3,-1 -9,4l323 -2c-2,13 -6,23 -2,29 6,-8 8,-19 10,-29l54 -5c8,-4 7,-3 17,-2 -3,-8 -6,-5 -6,-7 18,-12 47,-30 50,-56 -34,40 -2,15 -52,50 -6,-1 2,1 -3,-2 -3,-2 0,-2 -5,-4 -7,20 -30,22 -53,21l-6 -27c30,5 45,-6 60,-20 11,-10 -1,-3 15,-6 19,-4 29,-23 22,-39 -7,7 -5,17 -10,24 -7,11 -15,7 -26,4z"/>
    <path class="fil7" d="M2240 1129c-14,7 -29,28 -58,41 7,-5 4,-1 8,-9 -12,-2 -8,1 -16,8 -7,6 -10,3 -11,14l25 2c-17,-14 10,-14 26,-30 11,-11 22,-15 25,-26z"/>
    <path class="fil7" d="M2429 928l-13 -6c-9,11 -13,1 -22,12 34,11 20,6 24,3 13,-10 41,-5 47,-27l-36 18z"/>
    <path class="fil7" d="M2443 1140c11,0 27,-12 37,-18 6,-4 9,-8 14,-12 19,-15 11,-5 15,-16 -19,5 -21,16 -51,33 -12,6 -12,2 -16,13z"/>
    <path class="fil7" d="M2363 1158c11,7 43,-3 57,-8 18,-6 14,-7 15,-11 -10,-5 -1,0 -32,9 -11,3 -32,3 -40,9z"/>
    <path class="fil7" d="M2476 901c18,-1 25,-9 30,-25 -13,5 -6,10 -16,13 -7,2 2,-6 -7,2 0,0 -3,4 -4,4 -3,5 0,-2 -3,6z"/>
    <path class="fil7" d="M2517 1092c13,-2 8,-3 19,-8 8,-3 12,-2 16,-9 -14,-3 -28,6 -34,17z"/>
    <path class="fil7" d="M2428 885l-14 -3 5 24c5,-5 4,-4 3,-16 11,0 15,-3 16,-12 -7,4 -3,3 -10,7z"/>
    <path class="fil7" d="M2483 1145l1 27c7,-7 6,-10 6,-20 7,-8 4,-1 9,-10l-16 3z"/>
    <path class="fil7" d="M2487 870c1,-2 3,0 2,-12 -2,-21 1,-7 -5,-13 -3,6 -3,4 -2,12 0,2 1,5 1,7 2,8 1,3 3,6z"/>
    <path class="fil7" d="M2547 1132l-2 -26c-8,3 -7,-1 -5,11 0,0 2,8 2,8 3,8 1,3 5,6z"/>
   </g>
   <path class="fil8" d="M2240 1129c7,-1 17,-5 22,-12 -9,2 -6,1 -13,5 0,0 -5,2 -5,3 -4,3 -2,1 -4,4z"/>
   <path class="fil9" d="M1158 1213c0,-1 1,-3 1,-2 0,0 1,-2 1,-5 1,-3 1,-2 2,-6l-14 13c1,0 8,0 10,0z"/>
  </g>
  <g id="_2633274081616">
   <path class="fil10" d="M1948 757c2,-4 5,-5 9,-4 11,3 22,4 34,2 31,-6 57,-25 83,-42 3,-2 7,-5 5,3 -18,13 -35,27 -53,38 -22,13 -42,19 -68,15l0 0c-1,0 -2,0 -4,0 0,0 -7,21 -13,30 -7,11 -23,23 -36,23 -21,0 -23,-23 -17,-35 3,-8 8,-15 11,-22 0,0 0,0 0,0 0,0 0,0 0,0 2,-3 4,-5 6,-8 -1,5 -2,8 -4,12 0,0 0,0 0,0 -33,63 43,48 46,-4 0,-5 -2,-5 0,-9zm-154 -7c1,-1 4,-2 4,-3 0,-3 -3,-2 -5,-2 -4,0 -8,0 -12,-3l0 0 0 0c-4,-4 -4,-9 -1,-11 23,-16 32,-13 57,-35 2,-2 5,-3 8,-3 2,0 4,2 1,4 -16,19 -23,20 -47,31 -4,2 -8,4 -11,6l0 0 0 0c5,4 10,2 16,2 4,0 7,1 7,5 0,2 -7,7 -9,9 0,0 -1,1 -1,1 -38,33 -98,59 -148,39 -3,-1 -6,-2 -8,-3 -2,0 -2,0 -3,2 -3,4 -5,8 -9,11 -4,5 -14,9 -21,5 1,-3 8,-4 15,-9 4,-2 6,-7 9,-10 0,0 8,-9 9,-10 3,-3 7,-3 12,-1 36,13 109,2 139,-26zm332 -13c5,3 -1,9 1,15 3,19 -15,48 -16,37 3,-8 7,-16 9,-25 2,-7 2,-15 4,-22 0,0 1,-3 2,-5zm-117 -33c-1,2 -1,3 -2,5 -5,4 -9,6 -15,2 -7,7 -15,6 -19,-2 0,0 0,-1 0,-1 0,0 1,0 1,0l0 0c1,-2 2,-3 3,-5 2,-3 5,-7 9,-2 6,5 9,-1 13,-3 7,-2 7,3 9,7zm-124 7c0,0 0,0 0,0l0 0c0,2 0,3 0,5 -8,7 -10,7 -16,-1 1,-1 1,-4 3,-4l0 0c1,-1 1,-2 2,-2 6,-7 7,-6 11,3zm-312 19c70,7 105,2 175,-14 9,-2 23,-5 32,-10 3,-1 6,-3 9,1 -1,1 -2,2 -3,3 -28,24 -133,40 -186,36 -14,-1 -29,-2 -38,-6 -3,-1 -7,-4 -10,-8 -1,-2 -2,-7 -2,-10 1,-2 3,-6 9,-10 18,-10 24,-7 36,-12 2,-1 3,-2 5,-4 2,-3 6,0 8,0 -5,5 -10,12 -18,14l0 0c-3,1 -10,1 -28,9 -3,1 -6,5 -4,7 3,2 9,3 13,3zm268 -1c-2,11 -2,21 -6,31 -1,4 -1,4 -2,10 3,-2 6,-4 9,-6 3,-1 6,-2 8,1 5,6 -2,16 -5,18 6,0 9,-3 13,-6 4,-4 6,-8 10,-12 1,-1 6,-3 6,-5 0,-1 -3,-3 -3,-4 -5,-6 -12,-1 -18,1 0,-4 2,-5 3,-6 8,-6 16,-6 18,-2 3,6 8,-1 12,2 1,2 2,5 -1,6 0,0 0,0 -1,0l1 0c-3,3 -7,5 -10,8l0 0c0,0 0,0 0,0 -8,7 -12,17 -21,22 -19,9 -19,6 -40,11 -3,1 -6,-2 -7,-5 12,-4 27,-5 34,-16 -3,-1 -2,-4 -9,0 -4,4 -6,9 -13,9 3,-4 3,-7 5,-10 7,-14 5,-34 17,-47zm-123 7c0,0 0,0 0,0zm-107 32c0,-2 3,-5 5,-6 7,-1 12,-4 17,-9 1,-1 3,-2 4,-1 2,1 -1,6 -2,8 -2,4 -4,8 -8,10l0 0c-35,18 -10,9 -30,24 -1,1 -3,1 -4,1 -2,0 -4,0 -7,1 2,-14 21,-15 24,-27zm-53 32l0 0c-4,5 -9,7 -14,1 -2,-6 2,-10 7,-13 3,-3 6,-5 0,-7 -4,-2 -5,-4 -2,-8 0,0 1,-1 1,-1 3,-2 5,-8 9,-7 4,1 3,8 7,11 0,0 0,3 -1,3 -11,4 -6,12 -5,19 -1,1 -2,2 -3,2zm510 -25c-15,-1 -3,-18 2,-17 3,1 3,4 4,7 2,9 20,-24 27,-22 5,2 4,9 4,13 0,4 -3,5 -5,4 -9,-4 -17,5 -25,15 -1,1 0,12 -4,17 -5,5 -20,4 -21,4 -1,0 11,-6 15,-11 3,-4 3,-9 3,-9zm-51 20c6,-4 13,-10 18,-16 4,-6 5,-13 7,-19 1,-3 2,-2 3,-5 4,27 -3,40 -27,40zm-31 -105c0,-2 -1,-5 0,-6 1,-3 3,-7 7,-7 2,0 5,3 5,6 1,4 1,8 -4,10 -2,1 -4,1 -6,2 -1,1 -1,1 -1,0 0,-1 -1,-2 -1,-3zm89 7c-2,0 -2,2 -2,3 -1,2 -2,3 -3,5 -5,3 -7,-1 -9,-4 -3,-3 -4,-6 -1,-10 1,-1 1,-1 2,-2 2,0 2,-2 3,-3 7,0 10,4 10,10zm56 24c-8,1 -17,-1 -23,8 -5,-7 12,-22 18,-20 12,2 20,-2 28,-11 2,-2 4,-4 6,0 -3,1 -10,22 -29,24z"/>
   <path class="fil10" d="M1829 668c-1,2 -1,3 -2,5 -5,4 -9,6 -15,2 -7,7 -15,6 -19,-2 0,0 0,-1 0,-1 0,0 1,0 1,0l0 0c1,-2 2,-3 3,-5 2,-3 5,-7 9,-2 6,5 9,-1 13,-3 7,-2 7,3 9,7z"/>
  </g>
  <g id="_2633274078864">
   <polygon class="fil11" points="1802,1449 1794,1469 1844,1488 1852,1468 "/>
   <path class="fil12" d="M1173 1209l-11 29c15,14 36,40 61,49l11 -27 8 -20 11 -29c-21,-6 -56,-2 -79,-2z"/>
   <path class="fil13" d="M1889 1440l-90 -35 -3 -1 -491 -183c-20,-7 -36,-8 -53,-11l-11 29 560 209 51 20 -9 20 -50 -19 -560 -209 -11 27 11 9c4,3 7,5 12,8 32,19 287,109 326,123 93,35 185,71 278,106 0,0 1,0 1,-1 0,0 -1,0 -1,1l26 10 36 -95 -22 -8 0 0zm-1 5c0,-1 0,-1 0,-2 0,1 0,1 0,2zm0 -2c0,-1 0,-1 0,-2 0,1 0,1 0,2z"/>
   <path class="fil14" d="M1795 1404l3 1 90 35 22 8 -36 95c-2,9 0,19 10,22 8,3 18,1 23,-10 77,30 171,60 230,52l13 -33c-21,-29 -65,-48 -71,-55 -1,-1 -7,-20 -10,-25 -17,-38 -60,-47 -113,-67 2,-6 2,-9 0,-14 -1,-3 -7,-8 -10,-9 -10,-4 -17,2 -23,10 -38,-15 -66,-30 -104,-25 -13,2 -20,4 -24,14z"/>
   <polygon class="fil14" points="1241,1240 1234,1260 1794,1469 1802,1449 "/>
   <path class="fil14" d="M1162 1238l11 -29c-40,-15 -56,3 -31,20 6,4 13,6 20,9z"/>
   <path class="fil15" d="M2069 1529c4,2 6,7 4,12 -2,4 -7,6 -12,4 -8,-4 -121,-45 -121,-45 -4,-2 -7,-7 -5,-11 2,-4 7,-7 11,-5 0,0 115,41 124,46z"/>
  </g>
 </g>
</svg>
