<?xml version="1.0" encoding="UTF-8"?>
<!DOCTYPE svg PUBLIC "-//W3C//DTD SVG 1.0//EN" "http://www.w3.org/TR/2001/REC-SVG-20010904/DTD/svg10.dtd">
<!-- Creator: CorelDRAW 2017 -->
<svg xmlns="http://www.w3.org/2000/svg" xml:space="preserve" width="356px" height="200px" version="1.0" shape-rendering="geometricPrecision" text-rendering="geometricPrecision" image-rendering="optimizeQuality" fill-rule="evenodd" clip-rule="evenodd"
viewBox="0 0 35600 20025"
 xmlns:xlink="http://www.w3.org/1999/xlink">
 <g id="Layer_x0020_1">
  <metadata id="CorelCorpID_0Corel-Layer"/>
  <g id="_1475063663904">
   <path fill="#E6E7E8" d="M0 0l35600 0 0 20025 -35600 0 0 -20025z"/>
   <path fill="#000411" fill-opacity="0.078431" d="M0 15733l9681 -10472 -48 58 -44 59 -52 81 -46 81 -40 81 -35 82 -30 83 -26 84 -21 85 -18 88 -15 89 -12 92 -10 95 -8 97 -6 101 -5 103 -4 108 -4 112 -4 107 -2 108 -1 108 0 27 1188 -1286 18 -12 36 -39 30 -27 38 -25 42 -22 46 -20 48 -16 47 -14 46 -11 54 -9 55 -6 54 -4 55 -3 56 -1 56 0 57 0 57 0 -1989 2152 -2 76 -4 109 -5 108 -6 107 -8 107 -10 107 -13 107 -22 130 -32 129 -43 123 -53 117 -65 109 -77 99 -770 834 0 341 61 -3 68 4 72 10 74 14 72 18 68 21 23 8 470 -508 192 -69 32 -21 57 -29 77 -40 93 -57 105 -77 112 -102 -933 1009 12 9 22 18 20 17 19 18 15 16 18 19 20 22 19 24 20 25 18 24 16 25 13 22 67 122 22 33 22 47 21 59 19 65 18 67 15 64 11 58 8 48 9 64 7 66 7 65 4 47 3729 -4034 -217 239 -193 258 -169 277 -141 294 -113 308 -83 322 -50 333 -18 344 18 343 50 333 83 321 2020 -2185 119 -108 129 -96 139 -85 146 -70 155 -57 160 -41 167 -26 172 -8 121 4 119 13 117 21 113 29 110 36 107 44 103 50 99 57 94 64 90 70 84 75 8 8 3643 -3941 0 831 58 0 57 0 56 0 55 1 55 3 55 4 54 6 55 9 45 11 48 14 47 16 47 20 42 22 37 25 30 27 21 29 34 22 29 50 26 70 21 81 17 84 13 80 10 67 5 46 16 176 10 183 7 190 4 194 3 197 3 200 4 200 8 199 11 197 17 194 25 189 32 183 42 176 53 166 65 157 79 145 113 162 115 129 112 102 104 77 93 57 78 40 56 29 33 21 191 69 -1104 1195 -26 104 -31 170 -25 177 -18 182 -12 186 -4 87 5006 -5415 -46 57 -39 62 -31 67 -25 72 -17 77 -11 82 -3 87 2 54 4 52 9 51 11 49 14 48 18 46 21 45 25 43 27 41 29 39 31 37 34 35 36 32 38 31 40 28 42 26 45 24 45 21 47 17 47 14 49 12 50 8 51 5 53 1 70 -4 69 -10 67 -19 66 -25 64 -33 62 -41 61 -47 60 -55 -6871 7432 91 -1 173 -4 178 -11 175 -21 169 -32 155 -47 136 -65 14 -9 10 -7 7 -6 6 -4 4 -3 6 -2 7 -2 10 -2 87 -70 28 -31 37 -38 -61 66 6 -5 -4768 5158 -16821 0 0 -4292zm20554 4292l-3078 0 8515 -9211 -48 59 -41 62 -33 66 -26 68 -19 72 -11 75 -4 78 4 90 11 84 19 79 27 74 34 70 41 64 49 58 57 54 62 48 65 42 68 35 71 29 73 22 76 16 79 10 82 3 -9 122 -28 117 -46 111 -65 106 -83 100 -562 609 1 26 4 33 8 32 11 30 13 30 17 28 19 27 23 27 25 24 27 21 28 18 31 14 33 12 34 8 37 4 38 2 63 -4 64 -12 66 -20 69 -28 70 -35 71 -44 74 -52 75 -60 76 -67 72 -72 -6329 6846z"/>
   <path fill="#FEFEFE" stroke="#FEFEFE" stroke-width="417" d="M9410 13111l-71 -58c0,18 2,22 -3,41l18 16c7,6 7,18 40,10 20,-5 6,0 16,-9z"/>
   <path fill="#FEFEFE" d="M9410 13111l-71 -58c0,18 2,22 -3,41l18 16c7,6 7,18 40,10 20,-5 6,0 16,-9z"/>
   <path fill="#4B4B4D" d="M8387 9546l-60 18c-20,3 -41,5 -61,7 -42,4 -87,7 -133,7l1 872c150,-19 407,50 526,107 76,37 142,87 190,133 37,36 109,120 139,177l67 122c59,64 121,333 136,441 24,170 36,352 44,529 24,572 -19,1685 120,2187 135,488 398,680 419,721l97 78c32,5 19,8 63,35 333,199 930,180 1298,181l0 -831c-239,2 -496,3 -677,-110 -176,-109 -208,-292 -237,-548 -98,-867 58,-2075 -298,-2823 -282,-591 -735,-718 -787,-765l-192 -70 192 -69c49,-48 407,-139 704,-617 460,-742 278,-2029 378,-2946 10,-88 60,-484 155,-500 42,-80 201,-140 318,-164 145,-28 289,-22 444,-23l0 -831 -364 1c-245,24 -534,13 -787,110 -220,85 -384,246 -493,403 -294,430 -311,856 -332,1462 -21,573 12,1162 -61,1728 -45,351 -195,692 -481,868 -59,37 -250,125 -328,110z"/>
   <path fill="#4B4B4D" d="M22976 9546l60 18c20,3 41,5 61,7 42,4 87,7 133,7l0 872c-150,-19 -408,50 -526,107 -76,37 -142,87 -190,133 -38,36 -110,120 -140,177l-67 122c-58,64 -120,333 -136,441 -24,170 -36,352 -43,529 -24,572 18,1685 -121,2187 -135,488 -397,680 -418,721l-97 78c-32,5 -19,8 -64,35 -332,199 -930,180 -1298,181l0 -831c240,2 497,3 678,-110 176,-109 207,-292 236,-548 98,-867 -58,-2075 299,-2823 281,-591 735,-718 787,-765l191 -70 -191 -69c-50,-48 -408,-139 -704,-617 -460,-742 -279,-2029 -379,-2946 -9,-88 -60,-484 -155,-500 -42,-80 -201,-140 -317,-164 -146,-28 -290,-22 -445,-23l0 -831 365 1c245,24 534,13 786,110 221,85 385,246 493,403 295,430 311,856 333,1462 20,573 -12,1162 61,1728 45,351 195,692 480,868 60,37 250,125 328,110z"/>
   <path fill="#4B4B4D" fill-rule="nonzero" d="M26627 12072c-221,0 -414,-69 -576,-205 -161,-136 -242,-328 -242,-573 0,-212 79,-391 238,-536 157,-145 345,-218 561,-218 162,0 309,44 440,132 131,87 233,217 307,386 74,171 112,381 112,630 0,334 -71,647 -212,938 -142,292 -314,521 -520,692 -203,171 -388,255 -552,255 -105,0 -189,-34 -253,-103 -64,-69 -97,-149 -97,-240 0,-138 68,-250 204,-335 393,-215 590,-490 590,-823zm-692 -4868c0,-238 74,-424 224,-555 150,-131 331,-197 544,-197 207,0 383,67 531,200 148,133 222,318 222,552 0,193 -77,368 -234,525 -157,157 -330,234 -519,234 -142,0 -269,-34 -387,-102 -115,-67 -208,-157 -277,-269 -69,-114 -104,-243 -104,-388z"/>
   <g>
    <path fill="#235DC2" fill-rule="nonzero" d="M16818 10774c-278,544 -843,917 -1496,917 -927,0 -1679,-751 -1679,-1678 0,-928 752,-1679 1679,-1679 653,0 1218,373 1496,917l1496 -762c-555,-1088 -1686,-1834 -2992,-1834 -1855,0 -3358,1503 -3358,3358 0,1854 1503,3357 3358,3357 1306,0 2437,-746 2992,-1834l-1496 -762z"/>
    <path fill="#235DC2" fill-rule="nonzero" d="M17748 9866l-393 0 0 -394c0,-76 -62,-138 -139,-138 -76,0 -138,62 -138,138l0 394 -394 0c-77,0 -138,62 -138,138 0,77 61,139 138,139l394 0 0 393c0,77 62,139 138,139 77,0 139,-62 139,-139l0 -393 393 0c77,0 138,-62 138,-139 0,-76 -61,-138 -138,-138z"/>
    <path fill="#235DC2" fill-rule="nonzero" d="M19261 9866l-394 0 0 -394c0,-76 -62,-138 -138,-138 -77,0 -139,62 -139,138l0 394 -393 0c-77,0 -139,62 -139,138 0,77 62,139 139,139l393 0 0 393c0,77 62,139 139,139 76,0 138,-62 138,-139l0 -393 394 0c76,0 138,-62 138,-139 0,-76 -62,-138 -138,-138z"/>
   </g>
   <path fill="#373435" fill-opacity="0.031373" d="M2082 17547c68,104 112,203 155,312 32,64 49,183 199,183 44,0 107,-14 163,-45 63,-33 111,-83 136,-159l60 -202 146 -72 10 10c-20,77 -25,149 -25,206 0,170 146,234 262,234 68,0 129,-34 129,-95 0,-81 -34,-217 -78,-339 68,-68 136,-136 214,-191l12 6c34,144 53,287 53,381 0,93 -41,196 -75,264 -70,132 -194,238 -344,238 -114,0 -241,-58 -328,-163l-5 0c-82,101 -209,193 -412,193l-63 0c-10,134 -39,229 -83,314 -121,237 -480,404 -818,404 -470,0 -706,-272 -706,-633 0,-223 73,-431 185,-578l92 38c-70,134 -117,262 -117,385 0,338 275,499 592,499 294,0 658,-187 724,-404 -25,-237 -114,-348 -250,-565 41,-72 94,-144 160,-221l12 0zm5421 -1274c99,62 196,136 291,221 -53,74 -119,142 -201,202 -95,-77 -190,-143 -287,-213 66,-74 131,-146 197,-210zm51 926c-160,0 -291,105 -291,183 0,168 320,219 703,217 -48,-196 -216,-400 -412,-400zm-359 895c208,0 390,-6 529,-41 155,-39 286,-118 286,-171 0,-15 0,-31 -5,-46 -87,8 -187,8 -274,8 -282,0 -498,-64 -583,-222 -21,-44 -36,-93 -36,-149 0,-152 66,-303 182,-406 97,-85 204,-138 313,-138 197,0 354,158 464,408 60,136 101,293 101,491 0,132 -36,243 -118,326 -153,148 -435,204 -867,204l-196 0 0 0 -51 0c-107,0 -184,-19 -245,-66l-10 0c3,25 5,50 5,72 0,97 -32,221 -97,320 -192,287 -400,410 -580,410 -182,0 -405,-70 -606,-161l36 -70c65,27 155,46 279,46 325,0 752,-314 805,-619 -12,-25 -34,-58 -65,-93 -95,-113 -155,-208 -211,-307 48,-95 92,-171 133,-239l17 -2c139,282 265,445 546,445l44 0 0 0 204 0zm-1408 299c24,-130 26,-276 26,-413l0 -202c0,-377 -48,-926 -87,-1282 68,-75 163,-161 238,-219l22 6c51,450 63,972 63,1452 0,126 -5,250 -17,340 -7,114 -73,201 -214,332l-31 -14zm-1449 -596c7,177 94,318 398,318 189,0 349,-50 526,-135 32,-14 49,-33 49,-49 0,-111 -85,-258 -228,-392 -139,-126 -323,-237 -495,-311 -59,-25 -78,-52 -78,-77 0,-51 68,-158 124,-235l19 -2c197,103 417,256 580,427 148,157 240,316 240,489 0,128 -39,250 -102,361 -216,109 -446,192 -674,192 -277,0 -466,-130 -466,-436 0,-33 0,-84 12,-150l95 0zm-501 -503l172 278c63,103 122,215 122,392l0 227c0,183 -117,379 -306,573 -148,132 -279,188 -400,188 -180,0 -386,-56 -624,-159l27 -70c75,21 162,37 269,37 342,-2 692,-252 852,-557 19,-35 26,-68 26,-90 0,-36 -19,-75 -34,-110 -87,-165 -184,-315 -291,-453 56,-89 112,-174 173,-258l14 2z"/>
  </g>
 </g>
</svg>
