<?xml version="1.0" encoding="UTF-8"?>
<!DOCTYPE svg PUBLIC "-//W3C//DTD SVG 1.0//EN" "http://www.w3.org/TR/2001/REC-SVG-20010904/DTD/svg10.dtd">
<!-- Creator: CorelDRAW 2017 -->
<svg xmlns="http://www.w3.org/2000/svg" xml:space="preserve" width="356px" height="200px" version="1.0" style="shape-rendering:geometricPrecision; text-rendering:geometricPrecision; image-rendering:optimizeQuality; fill-rule:evenodd; clip-rule:evenodd"
viewBox="0 0 35600 20025"
 xmlns:xlink="http://www.w3.org/1999/xlink">
 <defs>
  <style type="text/css">
   <![CDATA[
    .fil0 {fill:#E6E7E8}
    .fil4 {fill:#373435;fill-rule:nonzero}
    .fil3 {fill:#2D8F00;fill-rule:nonzero}
    .fil1 {fill:#373435;fill-opacity:0.031373}
    .fil2 {fill:#373435;fill-opacity:0.078431}
   ]]>
  </style>
 </defs>
 <g id="Layer_x0020_1">
  <metadata id="CorelCorpID_0Corel-Layer"/>
  <g id="_1646855960384">
   <path class="fil0" d="M0 0l35600 0 0 20025 -35600 0 0 -20025z"/>
   <path class="fil1" d="M2082 17547c68,103 112,202 155,312 32,64 49,183 199,183 44,0 107,-14 163,-45 63,-33 111,-83 136,-159l60 -202 146 -72 10 10c-20,76 -25,149 -25,206 0,169 146,233 262,233 68,0 129,-33 129,-95 0,-80 -34,-216 -78,-338 68,-68 136,-136 214,-191l12 6c34,144 53,286 53,381 0,93 -41,196 -75,264 -70,132 -194,237 -344,237 -114,0 -241,-57 -328,-163l-5 0c-82,102 -209,194 -412,194l-63 0c-10,134 -39,229 -83,314 -121,237 -480,404 -818,404 -470,0 -706,-272 -706,-633 0,-223 73,-431 185,-578l92 38c-70,134 -117,261 -117,385 0,338 275,499 592,499 294,0 658,-187 724,-404 -25,-237 -114,-349 -250,-565 41,-72 94,-144 160,-221l12 0 0 0zm5421 -1274c99,62 196,136 291,220 -53,75 -119,143 -201,203 -95,-77 -190,-143 -287,-213 66,-74 131,-146 197,-210l0 0zm51 926c-160,0 -291,105 -291,183 0,167 320,219 703,217 -48,-196 -216,-400 -412,-400zm-359 895c208,0 390,-6 529,-41 155,-40 286,-118 286,-172 0,-14 0,-31 -5,-45 -87,8 -187,8 -274,8 -282,0 -498,-64 -583,-222 -21,-44 -36,-93 -36,-149 0,-153 66,-303 182,-406 97,-85 204,-138 313,-138 197,0 354,158 464,408 60,136 101,293 101,491 0,132 -36,243 -118,326 -153,148 -435,204 -867,204l-196 0 0 0 -51 0c-107,0 -184,-19 -245,-66l-10 0c3,25 5,49 5,72 0,97 -32,221 -97,320 -192,286 -400,410 -580,410 -182,0 -405,-70 -606,-161l36 -70c65,27 155,45 279,45 325,0 752,-313 805,-618 -12,-25 -34,-58 -65,-93 -95,-113 -155,-208 -211,-307 48,-95 92,-171 133,-240l17 -2c139,283 265,446 546,446l44 0 0 0 204 0 0 0zm-1408 299c24,-130 26,-276 26,-413l0 -202c0,-377 -48,-926 -87,-1283 68,-74 163,-160 238,-218l22 6c51,450 63,971 63,1452 0,126 -5,249 -17,340 -7,114 -73,200 -214,332l-31 -14zm-1449 -596c7,177 94,317 398,317 189,0 349,-49 526,-134 32,-14 49,-33 49,-49 0,-111 -85,-258 -228,-392 -139,-126 -323,-237 -495,-311 -59,-25 -78,-52 -78,-77 0,-51 68,-158 124,-235l19 -2c197,103 417,256 580,427 148,157 240,316 240,489 0,128 -39,249 -102,361 -216,109 -446,192 -674,192 -277,0 -466,-130 -466,-436 0,-33 0,-84 12,-150l95 0 0 0zm-501 -503l172 278c63,103 122,215 122,392l0 227c0,183 -117,379 -306,573 -148,132 -279,188 -400,188 -180,0 -386,-56 -624,-159l27 -70c75,20 162,37 269,37 342,-2 692,-252 852,-557 19,-35 26,-68 26,-91 0,-35 -19,-74 -34,-109 -87,-165 -184,-315 -291,-454 56,-88 112,-173 173,-257l14 2 0 0z"/>
   <path class="fil2" d="M8314 20025l-109 0 -225 0 -63 0 -204 0 -968 0 -71 0 -152 0 -138 0 -205 0 -113 0 -182 0 -3 0 -88 0 -91 0 -25 0 -10 0 -97 0 -104 0 -87 0 -17 0 -24 0 -20 0 -37 0 -359 0 -6 0 -216 0 -125 0 -114 0 -23 0 -47 0 -47 0 -55 0 -107 0 -68 0 -143 0 -60 0 -93 0 -232 0 -90 0 -3 0 -123 0 -99 0 -19 0 -213 0 -125 0 -66 0 -124 0 -106 0 -256 0 -655 0 -274 0 -476 0 -957 0 0 -3278 12147 -13226 0 5136 2287 -2490 124 -8 127 -13 130 -14 131 -15 132 -14 133 -13 132 -10 131 -5 129 1 125 7 123 16 117 26 113 36 106 48 100 62 92 77 66 73 9 12 2536 -2762 0 1489 2976 0 0 2380 892 0 -1573 1713 220 220 -2323 2529 4271 0 -3177 3459 189 0 -222 243 0 870 659 -718 -40 48 -34 52 -29 57 -24 62 -19 66 -13 71 -8 76 -2 55 354 -385 27 -24 28 -21 30 -17 32 -15 32 -11 35 -8 36 -5 37 -1 41 2 39 6 38 10 35 14 34 18 31 22 29 26 28 30 16 22 15 25 13 27 11 29 10 33 8 34 6 38 5 40 -168 182 253 0 516 -562 -26 31 -23 34 -21 36 -19 38 -16 41 -14 42 -12 44 -10 45 -8 48 -5 48 -4 51 0 27 331 -361 28 -29 29 -24 31 -21 33 -16 36 -13 37 -10 39 -6 41 -1 27 1 26 3 25 5 25 7 23 10 22 11 21 14 20 15 19 18 18 20 0 0 535 -583 0 325 -158 171 158 0 0 242 222 -242 223 0 -445 484 0 272 0 48 2 43 2 40 3 35 4 30 4 27 6 22 6 17 6 13 1425 -1552 -35 39 -30 44 -26 49 -22 54 -18 59 -14 64 -10 69 231 23 189 -206 17 -15 18 -13 19 -12 21 -9 22 -7 24 -5 25 -3 26 -1 27 1 25 3 24 4 22 7 21 9 19 11 18 12 16 15 14 16 13 19 11 19 9 22 6 23 5 25 3 26 1 29 -1 26 -3 26 -6 27 -8 26 -10 27 -12 27 -15 26 -16 27 -17 22 -21 26 -28 30 -630 687 -5 7 -20 42 -19 43 -16 43 -14 43 -11 44 -8 45 -6 46 124 0 1540 -1677 -39 43 -41 61 -36 70 -31 78 -25 88 -19 97 -14 106 -8 114 -2 45 464 -505 12 -11 12 -9 13 -9 13 -6 14 -6 14 -5 14 -3 15 -2 15 0 15 0 15 2 15 3 14 5 13 6 13 6 13 9 12 9 12 11 11 14 11 16 10 19 10 21 9 24 9 26 8 29 7 33 7 39 5 45 4 52 4 58 2 64 2 70 0 77 0 77 -2 71 -3 66 -4 59 -2 21 702 -763 0 101 512 -558 -16 40 -20 40 -22 38 -26 36 -29 36 -32 34 -367 400 0 149 63 -23 61 -26 59 -28 57 -32 55 -34 53 -38 50 -40 49 -43 0 751 1002 -1092 -38 44 -33 47 -28 50 -23 54 -18 57 -13 61 -7 63 -3 67 2 65 8 61 9 46 402 -437 17 -16 19 -13 19 -10 20 -9 22 -6 22 -3 24 -1 25 1 24 4 23 8 23 10 22 13 21 16 20 18 20 22 18 24 15 27 13 29 11 31 9 34 6 36 3 38 2 41 -1 37 -4 34 -5 33 -7 30 -10 27 -12 26 -14 23 -16 21 -17 18 -284 310 21 3 53 3 48 -3 46 -7 44 -12 41 -16 40 -21 38 -27 36 -30 -602 655 0 1 635 -692 -6 75 -7 68 -10 61 -11 55 -13 48 -14 41 -16 35 -18 28 -19 24 -322 350 33 7 49 5 52 2 72 -4 68 -10 65 -17 62 -24 58 -31 54 -38 51 -45 -2891 3148 -422 0 -284 0 -1 0 -266 0 -228 0 -145 0 -346 0 -92 0 -421 0 -575 0 -114 0 -206 0 -109 0 -27 0 -61 0 -93 0 -481 0 -660 0 -299 0 -43 0 -88 0 -125 0 -188 0 -40 0 -531 0 -30 0 -96 0 -252 0 -193 0 -429 0 -105 0 -168 0 -54 0 -62 0 -161 0 -50 0 -108 0 -6 0 -71 0 -87 0 -133 0 -345 0 -141 0 -138 0 -17 0 -59 0 -72 0 -253 0 -205 0 -303 0 -50 0 -18 0 -114 0 -177 0 -279 0 -161 0 -289 0 -349 0 -2 0 -187 0 -33 0 -237 0 -364 0 -71 0 -151 0 -138 0 -206 0 -298 0 -179 0 -35 0 -349 0 -39 0 -171 0 -153 0 -87 0 -438 0 -483 0 -235 0 -71 0 -435 0 -98 0 -99 0 -93 0 -44 0 -85 0 -101 0 -36 0 -223 0 -157 0 -7 0 -47 0 -48 0 -63 0 -133 0 -9 0 -84 0 -46 0 -39 0 -53 0 -154 0 -4 0 -40 0 -157 0 -116 0 -71 0 -209 0 -145 0 -209 0 -67 0 -222 0 -41 0 -24 0 -84 0 -74 0 -189 0 -318 0 -9 0zm15139 -16354l0 0z"/>
   <g>
    <path class="fil3" d="M23453 3671l0 8331 -4463 0 0 -2097 1041 1042 1474 -1474 -1474 -1472 -1041 1042 0 -3289 2381 0 0 1786 -893 0 1191 1190 1189 -1190 -892 0 0 -2380 -2976 0 0 -1489 4463 0 0 0zm-8333 3063l271 -10c137,41 310,22 411,120 231,227 129,839 -172,943 -77,27 -160,31 -241,35l-271 0 2 -1088 0 0zm-1 1686l328 6c381,-23 826,-180 1030,-504 283,-445 280,-1209 -98,-1574 -470,-451 -1295,-216 -1945,-181l0 3416 345 19 344 21 -4 -1203 0 0zm-2972 -4899l6546 -1040 0 10711 -6546 -1040 0 -8631z"/>
    <path class="fil4" d="M5384 17013l0 -1809 359 0 428 1280c40,119 68,209 86,268 21,-66 53,-162 97,-290l436 -1258 320 0 0 1809 -230 0 0 -1514 -528 1514 -215 0 -523 -1542 0 1542 -230 0zm2082 -1557l0 -252 223 0 0 252 -223 0zm0 1557l0 -1311 223 0 0 1311 -223 0zm1418 -480l218 30c-24,149 -85,266 -183,351 -98,84 -219,127 -362,127 -179,0 -323,-59 -432,-176 -109,-117 -163,-285 -163,-503 0,-141 24,-265 70,-371 47,-105 118,-185 214,-238 96,-53 200,-79 313,-79 142,0 258,35 348,107 91,72 149,175 174,307l-214 33c-21,-88 -57,-154 -110,-199 -52,-44 -115,-66 -189,-66 -112,0 -203,40 -274,120 -70,80 -105,206 -105,380 0,176 34,303 101,383 68,80 156,120 265,120 87,0 160,-27 218,-80 59,-53 96,-136 111,-246zm405 480l0 -1311 199 0 0 200c51,-93 98,-154 142,-184 43,-30 91,-44 142,-44 75,0 152,23 229,70l-79 205c-54,-30 -108,-45 -162,-45 -48,0 -92,14 -130,43 -38,29 -66,70 -82,122 -25,78 -37,165 -37,259l0 685 -222 0zm760 -656c0,-242 68,-421 203,-538 112,-97 250,-145 412,-145 180,0 327,59 442,177 114,117 171,280 171,488 0,168 -25,300 -76,397 -50,96 -124,171 -221,224 -96,54 -202,81 -316,81 -184,0 -332,-59 -445,-176 -113,-118 -170,-287 -170,-508zm228 0c0,168 36,294 109,377 74,83 166,125 278,125 110,0 202,-42 276,-126 73,-84 110,-211 110,-383 0,-161 -37,-284 -111,-367 -74,-83 -166,-125 -275,-125 -112,0 -204,41 -278,124 -73,83 -109,208 -109,375zm1172 264l220 -35c12,88 47,155 103,202 57,47 136,71 237,71 102,0 178,-21 228,-63 49,-41 74,-90 74,-146 0,-50 -22,-89 -67,-118 -31,-20 -107,-45 -227,-76 -163,-40 -275,-76 -338,-106 -63,-30 -111,-71 -143,-124 -32,-53 -49,-111 -49,-176 0,-58 14,-112 40,-162 27,-49 63,-91 109,-123 35,-26 82,-47 141,-65 60,-18 124,-26 192,-26 103,0 193,14 270,44 78,30 135,70 173,121 36,51 62,119 76,204l-218 30c-9,-68 -38,-122 -85,-160 -47,-38 -114,-57 -200,-57 -101,0 -174,16 -218,50 -43,34 -65,73 -65,118 0,29 9,55 27,78 18,24 46,44 85,59 22,9 87,28 196,57 156,42 266,76 328,103 63,26 111,66 147,116 36,51 53,114 53,190 0,74 -21,143 -65,208 -43,66 -105,116 -187,152 -81,36 -173,54 -276,54 -170,0 -300,-36 -390,-106 -89,-71 -146,-175 -171,-314zm1269 -264c0,-242 67,-421 202,-538 113,-97 250,-145 413,-145 179,0 327,59 441,177 114,117 172,280 172,488 0,168 -26,300 -76,397 -51,96 -124,171 -221,224 -97,54 -202,81 -316,81 -184,0 -332,-59 -446,-176 -113,-118 -169,-287 -169,-508zm227 0c0,168 37,294 110,377 74,83 166,125 278,125 110,0 202,-42 275,-126 74,-84 110,-211 110,-383 0,-161 -37,-284 -110,-367 -74,-83 -166,-125 -275,-125 -112,0 -204,41 -278,124 -73,83 -110,208 -110,375zm1314 656l0 -1140 -197 0 0 -171 197 0 0 -140c0,-88 8,-153 24,-195 21,-58 58,-104 112,-140 54,-36 129,-54 226,-54 63,0 131,8 207,23l-33 194c-46,-8 -90,-12 -131,-12 -67,0 -115,14 -143,43 -28,29 -42,82 -42,160l0 121 255 0 0 171 -252 0 0 1140 -223 0zm1132 -199l30 197c-62,13 -118,19 -167,19 -80,0 -143,-12 -187,-38 -45,-26 -76,-59 -94,-101 -18,-41 -27,-129 -27,-262l0 -756 -164 0 0 -171 164 0 0 -325 223 -133 0 458 222 0 0 171 -222 0 0 768c0,64 3,105 11,123 8,18 21,32 38,43 18,11 43,16 76,16 24,0 57,-3 97,-9zm949 199l0 -1809 683 0c120,0 212,6 276,17 88,15 163,43 223,84 60,42 109,100 145,175 37,74 55,156 55,246 0,153 -49,283 -147,389 -97,107 -275,160 -531,160l-464 0 0 738 -240 0zm240 -950l468 0c155,0 264,-29 329,-87 65,-57 98,-138 98,-243 0,-75 -19,-140 -58,-194 -38,-54 -89,-90 -151,-107 -40,-11 -115,-16 -223,-16l-463 0 0 647zm1415 950l0 -1311 200 0 0 200c50,-93 98,-154 141,-184 43,-30 91,-44 143,-44 75,0 151,23 229,70l-80 205c-54,-30 -107,-45 -161,-45 -49,0 -92,14 -130,43 -39,29 -66,70 -83,122 -24,78 -37,165 -37,259l0 685 -222 0zm761 -656c0,-242 67,-421 202,-538 113,-97 250,-145 412,-145 180,0 328,59 442,177 114,117 171,280 171,488 0,168 -25,300 -75,397 -51,96 -125,171 -221,224 -97,54 -203,81 -317,81 -183,0 -331,-59 -445,-176 -113,-118 -169,-287 -169,-508zm227 0c0,168 37,294 110,377 73,83 166,125 277,125 111,0 202,-42 276,-126 73,-84 110,-211 110,-383 0,-161 -37,-284 -111,-367 -73,-83 -165,-125 -275,-125 -111,0 -204,41 -277,124 -73,83 -110,208 -110,375zm1260 -896l0 -257 222 0 0 257 -222 0zm-281 2059l40 -188c45,11 80,17 106,17 45,0 79,-15 101,-45 23,-30 34,-106 34,-226l0 -1376 222 0 0 1381c0,161 -21,274 -63,337 -53,82 -142,123 -267,123 -60,0 -117,-8 -173,-23zm1738 -932l230 31c-36,133 -103,237 -201,311 -97,74 -222,111 -374,111 -191,0 -343,-59 -455,-177 -112,-118 -168,-283 -168,-496 0,-220 57,-391 170,-512 113,-122 260,-182 441,-182 175,0 317,59 428,178 111,119 167,287 167,503 0,13 -1,33 -2,59l-976 0c8,144 48,254 122,330 73,76 164,115 273,115 81,0 151,-22 208,-65 58,-43 103,-111 137,-206zm-728 -356l731 0c-10,-110 -38,-193 -84,-248 -71,-85 -162,-128 -275,-128 -102,0 -187,34 -257,102 -69,68 -107,160 -115,274zm2095 301l218 30c-24,149 -85,266 -183,351 -98,84 -219,127 -362,127 -179,0 -323,-59 -432,-176 -109,-117 -163,-285 -163,-503 0,-141 24,-265 70,-371 47,-105 118,-185 214,-238 96,-53 200,-79 313,-79 142,0 258,35 349,107 90,72 148,175 173,307l-214 33c-21,-88 -57,-154 -110,-199 -52,-44 -115,-66 -189,-66 -112,0 -203,40 -274,120 -70,80 -105,206 -105,380 0,176 34,303 102,383 67,80 155,120 264,120 87,0 160,-27 218,-80 59,-53 96,-136 111,-246zm890 281l30 197c-62,13 -118,19 -167,19 -81,0 -143,-12 -188,-38 -44,-26 -75,-59 -93,-101 -18,-41 -27,-129 -27,-262l0 -756 -164 0 0 -171 164 0 0 -325 222 -133 0 458 223 0 0 171 -223 0 0 768c0,64 4,105 12,123 8,18 20,32 38,43 18,11 43,16 76,16 24,0 57,-3 97,-9zm2033 -122l0 321 -1215 0c13,-122 52,-238 118,-347 66,-109 196,-254 389,-434 157,-146 252,-245 288,-297 47,-71 71,-142 71,-212 0,-78 -20,-137 -62,-179 -41,-42 -99,-62 -172,-62 -72,0 -129,22 -172,65 -43,44 -67,116 -74,218l-346 -35c21,-191 85,-328 194,-412 108,-83 244,-124 407,-124 178,0 319,48 421,144 102,97 153,217 153,361 0,81 -15,159 -44,233 -29,73 -75,151 -139,231 -42,54 -118,131 -227,232 -110,101 -180,167 -209,200 -29,33 -53,66 -71,97l690 0zm820 -1498c175,0 312,62 411,188 118,148 177,394 177,738 0,343 -60,590 -178,740 -98,124 -235,186 -410,186 -176,0 -318,-68 -426,-204 -107,-135 -161,-377 -161,-725 0,-342 59,-588 177,-738 99,-123 235,-185 410,-185zm0 288c-41,0 -78,13 -110,40 -33,27 -58,75 -76,144 -23,90 -35,241 -35,454 0,213 11,359 32,439 21,79 47,132 79,159 32,27 69,40 110,40 41,0 79,-14 111,-41 32,-26 57,-74 75,-144 23,-89 35,-240 35,-453 0,-213 -10,-359 -31,-438 -21,-80 -48,-133 -80,-160 -32,-27 -69,-40 -110,-40zm1705 1531l-346 0 0 -1310c-127,119 -276,207 -447,264l0 -316c90,-30 188,-86 294,-169 106,-82 178,-178 218,-288l281 0 0 1819zm531 -421l336 -37c8,69 29,120 63,153 35,33 80,50 136,50 71,0 132,-34 181,-100 50,-66 81,-203 95,-411 -87,101 -195,152 -326,152 -142,0 -265,-55 -368,-165 -104,-110 -155,-252 -155,-429 0,-183 54,-331 163,-443 110,-112 248,-168 417,-168 183,0 334,71 451,213 118,142 177,376 177,702 0,331 -61,570 -183,716 -123,147 -282,221 -478,221 -141,0 -255,-38 -342,-114 -87,-75 -143,-189 -167,-340zm781 -758c0,-112 -26,-199 -77,-260 -51,-62 -111,-92 -178,-92 -64,0 -117,25 -159,75 -43,51 -64,134 -64,248 0,117 23,202 69,257 46,54 103,82 172,82 67,0 123,-26 168,-79 46,-53 69,-130 69,-231z"/>
   </g>
  </g>
 </g>
</svg>
