<?xml version="1.0" encoding="UTF-8"?>
<!DOCTYPE svg PUBLIC "-//W3C//DTD SVG 1.0//EN" "http://www.w3.org/TR/2001/REC-SVG-20010904/DTD/svg10.dtd">
<!-- Creator: CorelDRAW 2017 -->
<svg xmlns="http://www.w3.org/2000/svg" xml:space="preserve" width="356px" height="200px" version="1.0" shape-rendering="geometricPrecision" text-rendering="geometricPrecision" image-rendering="optimizeQuality" fill-rule="evenodd" clip-rule="evenodd"
viewBox="0 0 35600 20025"
 xmlns:xlink="http://www.w3.org/1999/xlink">
 <g id="Layer_x0020_1">
  <metadata id="CorelCorpID_0Corel-Layer"/>
  <g id="_2293472614848">
   <path fill="#E6E7E8" d="M0 0l35600 0 0 20025 -35600 0 0 -20025z"/>
   <path fill="#373435" fill-opacity="0.031373" d="M2102 17538c67,103 111,202 155,311 31,64 48,183 198,183 44,0 107,-14 163,-45 63,-33 111,-82 135,-159l61 -201 145 -72 10 10c-19,76 -24,148 -24,206 0,169 145,233 262,233 68,0 128,-33 128,-95 0,-81 -34,-216 -78,-338 68,-68 136,-136 214,-191l12 6c34,144 53,286 53,381 0,92 -41,195 -75,263 -70,132 -194,237 -344,237 -114,0 -240,-57 -327,-163l-5 0c-83,101 -209,194 -412,194l-63 0c-10,134 -39,229 -82,313 -122,237 -480,404 -817,404 -470,0 -705,-272 -705,-632 0,-223 72,-431 184,-577l92 37c-70,134 -116,261 -116,385 0,338 274,499 591,499 293,0 657,-188 722,-404 -24,-237 -114,-348 -250,-565 42,-72 95,-144 160,-220l13 0zm5414 -1273c99,62 196,136 290,221 -53,74 -118,142 -201,201 -94,-76 -189,-142 -286,-212 66,-74 131,-146 197,-210zm51 925c-160,0 -291,105 -291,183 0,167 320,219 702,217 -48,-196 -215,-400 -411,-400zm-359 894c208,0 390,-6 528,-41 155,-39 286,-118 286,-171 0,-15 0,-31 -5,-46 -87,9 -186,9 -274,9 -281,0 -496,-64 -581,-223 -22,-43 -36,-93 -36,-148 0,-153 65,-303 181,-406 97,-84 204,-138 313,-138 196,0 354,159 463,408 60,136 101,292 101,490 0,132 -36,243 -118,326 -153,148 -434,204 -865,204l-197 0 0 0 -51 0c-106,0 -184,-19 -244,-66l-10 0c2,24 5,49 5,72 0,97 -32,220 -97,319 -192,286 -400,410 -579,410 -182,0 -405,-70 -606,-161l36 -70c66,27 155,45 279,45 325,0 751,-313 804,-617 -12,-25 -33,-58 -65,-93 -94,-113 -155,-208 -211,-307 49,-95 92,-171 134,-239l16 -2c139,282 265,445 546,445l43 0 0 0 204 0zm-1406 299c24,-130 26,-276 26,-412l0 -202c0,-377 -48,-925 -87,-1281 68,-75 163,-161 238,-219l21 6c51,449 64,971 64,1450 0,126 -5,250 -17,340 -8,114 -73,200 -214,332l-31 -14zm-1447 -596c7,177 94,317 397,317 189,0 349,-49 526,-133 31,-15 48,-33 48,-50 0,-111 -84,-257 -228,-391 -138,-126 -322,-237 -494,-311 -58,-25 -77,-52 -77,-76 0,-52 68,-159 123,-235l20 -2c196,103 416,255 579,426 148,157 240,315 240,488 0,128 -39,250 -102,361 -216,109 -446,191 -674,191 -276,0 -465,-129 -465,-434 0,-33 0,-85 12,-151l95 0zm-500 -502l172 278c63,103 121,214 121,391l0 227c0,183 -117,379 -306,572 -147,132 -278,188 -399,188 -180,0 -386,-56 -623,-159l26 -70c76,21 163,37 270,37 341,-2 690,-251 850,-556 19,-35 27,-68 27,-91 0,-35 -20,-74 -34,-109 -87,-165 -184,-315 -291,-453 56,-88 111,-173 172,-257l15 2z"/>
   <path fill="#373435" fill-opacity="0.078431" d="M7158 20025l-26 0 -146 0 -10 0 -12 0 -11 0 -116 0 -79 0 -9 0 0 0 -75 0 -146 0 -48 0 -8 0 -19 0 -189 0 -32 0 -220 0 -45 0 -17 0 -21 0 -4 0 -29 0 -135 0 -45 0 -30 0 -45 0 -218 0 -42 0 -136 0 -43 0 -147 0 -41 0 -8 0 -12 0 -30 0 -9 0 -29 0 -26 0 -50 0 0 0 -62 0 -45 0 -5 0 -94 0 -62 0 -124 0 -175 0 -119 0 -71 0 -233 0 -80 0 -152 0 -50 0 -67 0 -5 0 -175 0 -46 0 -80 0 -25 0 -23 0 -79 0 -43 0 -290 0 -25 0 -31 0 -353 0 -131 0 -199 0 -171 0 -40 0 -167 0 -203 0 -26 0 -21 0 -264 0 -203 0 -126 0 -42 0 -274 0 -35 0 -195 0 -130 0 -109 0 0 -70 0 -14 0 -8 0 -2 0 -32 0 -116 0 -11 0 -252 0 -81 0 -2472 0 -1644 0 -5 0 -81 0 -180 0 -99 0 -30 0 -65 0 -70 0 -189 0 -3 0 -65 0 -104 0 -226 0 -220 0 -150 0 -68 0 -150 0 -47 0 -220 0 -201 0 -243 0 -96 0 -16 0 -95 0 -72 0 -55 0 -91 0 -68 0 -109 0 -14 0 -78 11289 -8549 -28 114 20 3 19 3 17 3 15 2 13 3 12 3 9 3 8 2 7 3 6 3 6 4 6 4 6 5 5 5 4 5 5 6 3 7 4 7 3 9 2 9 2 10 1 11 1 13 0 13 0 22 -2 25 -3 28 -4 30 -5 32 -6 35 -8 37 -8 40 -210 935 790 -598 -35 27 -35 31 -36 33 -37 37 -37 40 -38 43 -584 443 -41 180 813 -615 30 -23 29 -20 30 -15 29 -13 29 -8 29 -6 29 -2 19 1 18 3 16 5 15 7 14 9 13 10 11 13 10 14 9 17 7 19 7 20 5 23 4 25 3 27 2 29 0 31 0 43 -2 43 -4 44 -4 45 -7 46 -7 46 -9 48 -10 48 -11 48 -12 47 -12 44 -13 43 -13 41 -14 39 -14 38 -15 36 -15 34 -15 33 -16 31 -15 30 -16 27 -15 27 -16 24 -16 23 -16 22 -16 20 -17 18 -16 17 -17 15 -18 14 -310 235 7 1 28 3 28 3 28 1 29 0 37 0 37 -2 37 -3 36 -4 35 -5 35 -6 34 -7 33 -8 33 -10 32 -10 32 -12 31 -13 31 -13 30 -15 29 -16 29 -17 28 -18 28 -19 27 -20 -3913 2963 -10 151 -11 179 -11 184 -11 188 -10 193 -10 197 -9 202 -9 206 -9 211 -7 195 -7 189 -8 185 -7 180 -8 176 -8 170 -8 167 -9 161 -8 157 -9 152 -8 147 -9 142 -10 138 -9 134 -9 128 -10 124 -2 31 6232 -4720 -35 28 -34 30 -32 30 -31 32 -28 33 -27 35 -26 35 -23 37 -22 39 -22 41 -20 43 -19 46 -19 48 -17 51 -16 53 -16 56 -10 37 -10 34 -11 31 -10 28 -11 25 0 1 952 -721 18 -12 18 -9 20 -7 22 -6 22 -3 23 -1 20 1 18 3 17 5 16 7 14 9 13 10 11 13 11 14 9 17 8 20 7 22 7 25 5 28 5 30 4 33 2 36 309 0 -1715 1298 -35 154 810 -614 514 0 -1430 1083 -76 339 3317 -2512 -129 106 -119 119 -108 133 -99 146 -45 77 -42 79 -40 82 -6 13 891 -674 117 -74 126 -62 135 -52 -1329 1007 -4 10 -31 87 -27 89 -25 91 -22 93 -19 96 -16 97 -13 99 -11 101 -7 102 -4 105 -2 107 2 107 4 105 7 104 10 101 14 99 16 97 2 12 2277 -1724 -43 33 -42 37 -40 41 -40 45 -38 50 -38 53 -36 57 -35 61 128 59 240 -182 9 -7 10 -6 9 -5 10 -4 10 -4 11 -2 11 -2 11 -2 12 0 10 1 10 1 9 2 10 4 9 4 8 6 9 6 8 7 8 9 8 10 9 13 8 14 9 17 8 18 8 18 2008 -1521 -65 184 136 52 127 62 117 74 108 84 99 95 90 106 81 117 71 128 33 68 30 70 28 72 27 74 24 77 21 78 20 81 18 83 16 85 13 87 12 89 9 91 8 94 5 96 3 97 1 88 2856 -2162 -38 155 25 3 23 4 21 3 19 3 16 3 15 3 12 3 10 3 9 3 8 3 8 3 7 4 7 4 7 4 6 4 5 5 6 5 4 5 5 6 4 6 4 6 4 7 3 6 3 8 2 8 2 8 2 9 2 10 1 11 1 11 0 13 0 12 0 15 -1 17 -1 19 -2 20 -3 23 -3 23 -4 26 -5 27 -5 27 -4 26 -5 24 -4 22 -4 21 -4 19 -4 17 -3 16 -82 366 -259 196 20 10 21 14 18 16 17 19 14 22 12 24 10 26 8 29 7 32 4 34 3 36 1 39 0 43 -2 44 -3 44 -4 44 -6 44 -6 44 -8 44 -9 44 -19 88 -20 88 -21 83 -21 79 -22 73 -23 69 -23 64 -25 59 -24 54 -26 51 -29 50 -30 48 -32 46 -34 44 -36 43 -38 41 -39 39 -23 20 2426 -1837 -42 33 -42 37 -41 41 -39 45 -39 50 -37 53 -36 57 -36 61 128 59 241 -182 9 -7 9 -6 10 -5 10 -4 10 -4 10 -2 11 -2 12 -2 12 0 10 1 9 1 10 2 9 4 9 4 9 6 8 6 9 7 8 9 8 10 8 13 9 14 8 17 9 18 9 20 9 22 9 25 9 28 10 32 10 35 10 39 10 42 11 46 11 50 11 52 11 55 6 29 1117 -846 -20 15 -21 17 -21 18 -21 20 -21 21 -22 23 -23 24 -23 26 -23 27 -24 29 -24 31 -26 33 -28 37 -31 41 -33 45 -35 49 -38 52 -41 56 -43 61 -560 424 2 11 13 67 12 69 -29 37 1079 -818 12 -8 11 -8 11 -6 9 -5 10 -4 9 -3 9 -3 9 -2 8 -2 9 -2 8 0 9 -1 18 2 16 5 14 7 12 11 10 15 8 17 6 20 4 24 215 0 -1420 1075 13 0 10 62 11 59 10 56 11 52 11 50 11 47 11 43 12 41 12 38 12 36 13 33 13 32 14 29 14 27 15 25 15 23 15 20 17 20 17 17 18 16 19 15 20 13 20 12 19 8 745 -563 -20 38 -19 35 -18 32 -17 28 -16 24 -15 21 -15 17 -13 14 -13 10 -493 374 29 3 32 3 33 2 36 1 58 -2 56 -6 55 -10 52 -13 51 -18 48 -21 47 -25 45 -30 -11092 8400 -248 0 -142 0 -1 0 -139 0 -4 0 -307 0 -428 0 -293 0 -28 0 -152 0 -145 0 -10 0 -13 0 -11 0 -116 0 -79 0 -9 0 -75 0 -146 0 -48 0 -7 0 -20 0 -188 0 -33 0 -94 0 -24 0 -101 0 -84 0 -4 0 -69 0 -103 0 -36 0 -25 0 -300 0 -147 0 -230 0 -20 0 -94 0 -13 0 -38 0 0 0 -30 0 -5 0 -64 0 -40 0 -66 0 -136 0 -47 0 -4 0 -4 0 -214 0 -409 0 -163 0 -97 0 -171 0 -235 0 -20 0 -155 0 -57 0 -69 0 -97 0 -41 0 -113 0 -150 0 -143 0 -109 0 -30 0 -163 0 -205 0 -89 0 -31 0 -46 0 -51 0 -97 0 -174 0 -151 0 -16 0 -308 0 -249 0 -141 0 -1 0 -139 0 -5 0 -306 0 -18 0 -410 0 -293 0 -29 0 -125 0z"/>
   <path fill="#4B4B4D" fill-rule="nonzero" d="M10180 5641l-265 0c-5,-87 -24,-154 -57,-199 -34,-46 -95,-68 -184,-68 -223,0 -386,251 -488,753 -102,501 -193,1887 -275,4155 -81,2041 -239,3436 -474,4185 -235,749 -552,1123 -952,1123 -82,0 -156,-6 -225,-19 -68,-13 -129,-33 -182,-62l46 -523 241 0c24,105 55,178 93,221 39,42 97,63 175,63 143,0 281,-248 413,-743 132,-496 236,-1792 311,-3889 92,-2275 241,-3773 446,-4494 204,-720 543,-1081 1016,-1081 85,0 162,8 231,23 69,15 128,34 176,56l-46 499z"/>
   <path fill="#CC0052" fill-rule="nonzero" d="M13593 9639l43 -193c110,-2 188,-10 233,-24 46,-14 83,-41 112,-79 30,-38 58,-109 85,-212 40,-152 90,-277 151,-377 60,-99 139,-186 236,-260 98,-74 211,-129 341,-163 130,-34 273,-51 429,-51 159,0 309,14 449,43l-107 478 -309 0c-6,-99 -22,-169 -47,-211 -26,-41 -66,-62 -120,-62 -64,0 -115,23 -155,67 -40,45 -74,105 -101,182 -27,76 -54,177 -81,301l-60 263 512 0 -65 298 -514 0 -432 1998c-85,388 -221,675 -409,862 -188,187 -423,281 -705,281 -68,0 -123,-4 -165,-12l58 -268c32,5 60,7 86,7 91,0 166,-50 226,-150 59,-101 112,-251 159,-452l511 -2266 -361 0z"/>
   <path fill="#CC0052" fill-rule="nonzero" d="M16535 10502c0,558 89,1018 268,1379 180,362 453,604 821,727l-57 184c-467,-123 -824,-387 -1073,-793 -249,-405 -373,-896 -373,-1473 0,-575 125,-1066 374,-1473 249,-407 607,-672 1072,-795l64 184c-372,123 -648,362 -828,718 -179,356 -268,804 -268,1342z"/>
   <path fill="#CC0052" fill-rule="nonzero" d="M19489 10361c55,336 101,577 137,723 36,146 73,240 111,283 23,24 50,36 82,36 39,0 76,-15 111,-46 34,-31 78,-101 132,-209l218 100c-93,169 -197,295 -314,377 -118,83 -255,125 -413,125 -97,0 -175,-13 -233,-37 -58,-25 -107,-66 -148,-123 -41,-58 -76,-139 -107,-243 -31,-104 -61,-241 -88,-410l-24 0c-135,195 -243,343 -325,445 -81,102 -151,178 -209,229 -58,51 -114,87 -167,108 -53,20 -118,31 -192,31 -35,0 -78,-5 -128,-13 -50,-9 -88,-18 -114,-28l113 -518 215 0c1,33 10,58 25,75 15,17 34,25 58,25 29,0 56,-6 80,-18 25,-12 59,-39 103,-80 44,-41 99,-103 166,-183 67,-80 180,-222 340,-424 -34,-188 -65,-350 -95,-486 -29,-137 -56,-235 -80,-297 -24,-61 -47,-102 -68,-123 -22,-21 -46,-31 -73,-31 -32,0 -60,8 -84,25 -23,17 -48,44 -75,81 -26,38 -54,88 -85,150l-217 -101c92,-169 196,-294 312,-377 115,-83 247,-124 395,-124 128,0 225,19 292,57 67,38 122,105 165,200 43,94 83,246 122,455l24 0c117,-166 209,-291 274,-374 66,-84 126,-151 182,-201 56,-50 110,-86 162,-106 53,-21 115,-31 187,-31 79,0 160,14 241,43l-112 516 -215 0c-8,-67 -38,-101 -89,-101 -22,0 -45,6 -70,17 -25,11 -57,36 -98,75 -41,39 -91,96 -152,170 -60,74 -151,187 -272,338z"/>
   <path fill="#CC0052" fill-rule="nonzero" d="M21773 10502c0,-538 -89,-986 -268,-1342 -178,-356 -454,-595 -829,-718l65 -184c465,123 822,388 1072,795 249,407 374,898 374,1473 0,577 -125,1068 -373,1473 -249,406 -607,670 -1073,793l-58 -184c368,-123 642,-365 821,-727 179,-361 269,-821 269,-1379z"/>
   <path fill="#CC0052" fill-rule="nonzero" d="M25451 11138l172 172c-167,167 -311,282 -432,345 -121,63 -249,95 -383,95 -133,0 -239,-37 -317,-111 -78,-75 -117,-172 -117,-293 0,-40 4,-78 14,-115l-31 -7c-152,183 -293,317 -424,400 -132,84 -289,126 -472,126 -180,0 -320,-66 -420,-196 -99,-131 -149,-320 -149,-567 0,-215 31,-428 93,-640 62,-212 151,-395 268,-549 116,-153 262,-274 438,-363 176,-88 375,-132 596,-132 142,0 279,24 411,74l82 -366c9,-40 20,-97 33,-172 13,-75 19,-132 19,-170 0,-35 -3,-62 -10,-82 -8,-20 -18,-36 -33,-49 -14,-13 -33,-23 -57,-30 -24,-7 -71,-16 -141,-25l38 -155 715 -39 270 0 -605 2677c-24,105 -36,196 -36,272 0,53 9,94 27,122 17,29 47,43 90,43 50,0 103,-22 161,-67 57,-44 124,-110 200,-198zm-915 -913c25,-118 38,-235 38,-351 0,-107 -20,-188 -59,-242 -40,-54 -106,-81 -196,-81 -149,0 -280,75 -395,223 -114,150 -207,350 -277,602 -70,251 -105,477 -105,676 0,116 17,203 51,260 34,58 87,86 159,86 105,0 212,-51 322,-154 109,-102 197,-223 264,-362 67,-138 126,-328 179,-569l19 -88zm2977 136c56,336 102,577 138,723 36,146 73,240 111,283 22,24 49,36 81,36 40,0 77,-15 111,-46 34,-31 79,-101 133,-209l217 100c-92,169 -197,295 -314,377 -117,83 -255,125 -412,125 -97,0 -175,-13 -233,-37 -58,-25 -108,-66 -148,-123 -41,-58 -77,-139 -108,-243 -31,-104 -60,-241 -87,-410l-24 0c-136,195 -244,343 -325,445 -81,102 -151,178 -209,229 -58,51 -114,87 -168,108 -53,20 -117,31 -192,31 -35,0 -78,-5 -128,-13 -50,-9 -88,-18 -113,-28l112 -518 215 0c2,33 10,58 25,75 15,17 35,25 59,25 28,0 55,-6 80,-18 25,-12 59,-39 103,-80 43,-41 99,-103 166,-183 67,-80 180,-222 339,-424 -33,-188 -65,-350 -94,-486 -30,-137 -56,-235 -80,-297 -24,-61 -47,-102 -68,-123 -22,-21 -46,-31 -73,-31 -32,0 -60,8 -84,25 -24,17 -49,44 -75,81 -27,38 -55,88 -85,150l-218 -101c93,-169 197,-294 312,-377 116,-83 248,-124 396,-124 127,0 224,19 291,57 67,38 122,105 165,200 43,94 84,246 122,455l24 0c118,-166 210,-291 275,-374 65,-84 126,-151 181,-201 56,-50 110,-86 163,-106 53,-21 115,-31 186,-31 80,0 160,14 242,43l-113 516 -215 0c-8,-67 -37,-101 -88,-101 -22,0 -46,6 -71,17 -24,11 -57,36 -98,75 -40,39 -91,96 -151,170 -61,74 -152,187 -273,338z"/>
   <path fill="#4B4B4D" fill-rule="nonzero" d="M11739 4704l22 7c102,-119 197,-204 286,-257 89,-52 195,-78 318,-78 133,0 235,48 308,143 73,95 109,233 109,413 0,103 -12,215 -37,338 -24,123 -58,231 -103,326 -44,95 -97,178 -158,249 -62,71 -131,130 -207,176 -76,47 -158,82 -247,106 -88,23 -183,35 -284,35 -77,0 -150,-9 -220,-28 -70,-18 -142,-51 -216,-97l-163 125 -190 -28 442 -1971c24,-109 36,-192 36,-249 0,-36 -5,-63 -16,-79 -11,-16 -26,-28 -45,-35 -18,-7 -56,-14 -113,-22l28 -114 513 -28 204 0 -267 1068zm-156 785c-18,86 -27,170 -27,253 0,85 14,146 42,183 29,37 77,56 144,56 58,0 111,-13 159,-39 48,-26 93,-69 135,-129 43,-59 84,-135 124,-229 40,-94 75,-205 104,-336 29,-130 43,-251 43,-363 0,-86 -12,-149 -37,-191 -25,-41 -64,-62 -116,-62 -77,0 -155,38 -235,113 -79,75 -143,162 -191,261 -47,99 -91,238 -131,418l-14 65z"/>
   <path fill="#4B4B4D" fill-rule="nonzero" d="M10710 15817c-18,73 -26,139 -26,199 0,38 6,68 19,89 13,21 35,31 66,31 36,0 75,-16 117,-49 42,-32 91,-81 146,-145l126 126c-122,122 -227,206 -316,252 -88,46 -181,69 -279,69 -97,0 -175,-27 -232,-81 -57,-54 -85,-125 -85,-214 0,-29 3,-57 10,-84l-24 -3c-85,100 -158,175 -219,226 -61,50 -126,89 -195,116 -68,27 -144,40 -228,40 -140,0 -246,-47 -318,-142 -72,-95 -108,-233 -108,-414 0,-157 23,-313 68,-468 45,-155 111,-288 195,-400 85,-113 192,-201 321,-266 128,-64 274,-96 437,-96 173,0 321,41 443,125l169 -125 195 27 -282 1187zm-346 -541c19,-86 28,-172 28,-258 0,-77 -14,-135 -43,-175 -29,-39 -77,-59 -143,-59 -109,0 -204,54 -288,163 -84,109 -152,255 -203,439 -51,184 -76,348 -76,494 0,85 12,148 37,190 25,42 64,63 116,63 77,0 155,-38 235,-113 80,-75 144,-163 193,-264 48,-101 92,-240 130,-415l14 -65z"/>
  </g>
 </g>
</svg>
