<?xml version="1.0" encoding="UTF-8"?>
<!DOCTYPE svg PUBLIC "-//W3C//DTD SVG 1.0//EN" "http://www.w3.org/TR/2001/REC-SVG-20010904/DTD/svg10.dtd">
<!-- Creator: CorelDRAW 2017 -->
<svg xmlns="http://www.w3.org/2000/svg" xml:space="preserve" width="356px" height="200px" version="1.0" shape-rendering="geometricPrecision" text-rendering="geometricPrecision" image-rendering="optimizeQuality" fill-rule="evenodd" clip-rule="evenodd"
viewBox="0 0 35600 20025"
 xmlns:xlink="http://www.w3.org/1999/xlink">
 <g id="Layer_x0020_1">
  <metadata id="CorelCorpID_0Corel-Layer"/>
  <g id="_2565064560208">
   <path fill="#E6E7E8" d="M0 0l35600 0 0 20025 -35600 0 0 -20025z"/>
   <path fill="#373435" fill-opacity="0.031373" d="M2102 17538c67,103 111,202 155,311 31,64 48,183 198,183 44,0 107,-14 163,-45 63,-33 111,-82 135,-159l61 -201 145 -72 10 10c-19,76 -24,148 -24,206 0,169 145,233 262,233 68,0 128,-33 128,-95 0,-81 -34,-216 -78,-338 68,-68 136,-136 214,-191l12 6c34,144 53,286 53,381 0,92 -41,195 -75,263 -70,132 -194,237 -344,237 -114,0 -240,-57 -327,-163l-5 0c-83,101 -209,194 -412,194l-63 0c-10,134 -39,229 -82,313 -122,237 -480,404 -817,404 -470,0 -705,-272 -705,-632 0,-223 72,-431 184,-577l92 37c-70,134 -116,261 -116,385 0,338 274,499 591,499 293,0 657,-188 722,-404 -24,-237 -114,-348 -250,-565 42,-72 95,-144 160,-220l13 0zm5414 -1273c99,62 196,136 290,221 -53,74 -118,142 -201,201 -94,-76 -189,-142 -286,-212 66,-74 131,-146 197,-210zm51 925c-160,0 -291,105 -291,183 0,167 320,219 702,217 -48,-196 -215,-400 -411,-400zm-359 894c208,0 390,-6 528,-41 155,-39 286,-118 286,-171 0,-15 0,-31 -5,-46 -87,9 -186,9 -274,9 -281,0 -496,-64 -581,-223 -22,-43 -36,-93 -36,-148 0,-153 65,-303 181,-406 97,-84 204,-138 313,-138 196,0 354,159 463,408 60,136 101,292 101,490 0,132 -36,243 -118,326 -153,148 -434,204 -865,204l-197 0 0 0 -51 0c-106,0 -184,-19 -244,-66l-10 0c2,24 5,49 5,72 0,97 -32,220 -97,319 -192,286 -400,410 -579,410 -182,0 -405,-70 -606,-161l36 -70c66,27 155,45 279,45 325,0 751,-313 804,-617 -12,-25 -33,-58 -65,-93 -94,-113 -155,-208 -211,-307 49,-95 92,-171 134,-239l16 -2c139,282 265,445 546,445l43 0 0 0 204 0zm-1406 299c24,-130 26,-276 26,-412l0 -202c0,-377 -48,-925 -87,-1281 68,-75 163,-161 238,-219l21 6c51,449 64,971 64,1450 0,126 -5,250 -17,340 -8,114 -73,200 -214,332l-31 -14zm-1447 -596c7,177 94,317 397,317 189,0 349,-49 526,-133 31,-15 48,-33 48,-50 0,-111 -84,-257 -228,-391 -138,-126 -322,-237 -494,-311 -58,-25 -77,-52 -77,-76 0,-52 68,-159 123,-235l20 -2c196,103 416,255 579,426 148,157 240,315 240,488 0,128 -39,250 -102,361 -216,109 -446,191 -674,191 -276,0 -465,-129 -465,-434 0,-33 0,-85 12,-151l95 0zm-500 -502l172 278c63,103 121,214 121,391l0 227c0,183 -117,379 -306,572 -147,132 -278,188 -399,188 -180,0 -386,-56 -623,-159l26 -70c76,21 163,37 270,37 341,-2 690,-251 850,-556 19,-35 27,-68 27,-91 0,-35 -20,-74 -34,-109 -87,-165 -184,-315 -291,-453 56,-88 111,-173 172,-257l15 2z"/>
   <path fill="#373435" fill-opacity="0.078431" d="M15617 20025l762 0 1168 0 978 0 6427 -4981 -122 88 -124 86 -126 83 -129 80 -130 77 -133 74 -135 71 -136 68 -138 64 -140 61 -142 58 -143 54 -145 51 -147 48 -148 44 -150 40 -151 37 -53 12 2028 -1572 -110 80 -112 78 -113 75 -116 72 -118 70 -119 67 -121 64 -123 62 -125 58 -126 56 -128 52 -129 49 -131 47 -133 43 -133 40 -135 37 -137 33 -137 31 -139 26 -140 24 -142 20 -142 16 -143 13 -145 9 -145 6 -146 2 -148 -2 -146 -6 -145 -9 -145 -13 -143 -16 -142 -20 -141 -24 -139 -26 -138 -31 -137 -33 -136 -37 -134 -40 -133 -43 -131 -47 -130 -49 -128 -52 -126 -56 -56 -26 5546 -4299 31 -26 29 -29 29 -31 27 -34 26 -36 24 -38 24 -40 17 -42 15 -41 13 -42 10 -42 9 -41 5 -42 4 -41 1 -42 -2 -54 -5 -52 -9 -50 -13 -49 -17 -46 -22 -45 -25 -44 -30 -42 -34 -40 -36 -36 -39 -34 -42 -30 -46 -27 -49 -25 -54 -22 -37 -13 94 -73 33 -26 32 -29 28 -31 27 -34 24 -36 26 -37 21 -37 17 -38 13 -38 10 -40 7 -42 4 -43 1 -45 -1 -41 -4 -40 -6 -38 -8 -38 -10 -36 -13 -36 -15 -34 -17 -32 -20 -32 -21 -31 -24 -29 -24 -27 -26 -26 -27 -24 -27 -21 -28 -20 -28 -18 -30 -16 -30 -16 -32 -13 -33 -12 -34 -10 -36 -8 -36 -5 -39 -9 -44 -6 -49 -4 -54 -3 -59 -2 -65 -1 -70 0 -76 0 -1010 0 -2121 1644 2 -141 -2 -191 -9 -190 -15 -187 -21 -187 -26 -184 -31 -182 -37 -181 -43 -178 -47 -177 -53 -174 -58 -172 -63 -169 -68 -167 -72 -164 -78 -162 -82 -159 -86 -156 -91 -154 -96 -150 -99 -147 -104 -144 -108 -141 -112 -138 -116 -134 -120 -131 -123 -127 -127 -123 -131 -119 -134 -116 -137 -112 -141 -108 -144 -104 -145 104 -142 108 -1494 1158 55 -80 89 -122 91 -120 95 -118 97 -116 99 -114 103 -111 105 -108 108 -105 112 -103 113 -99 116 -98 118 -94 -4878 3781 -136 -338 -542 0 -2984 2313 -13 -89 -16 -142 -13 -143 -9 -145 -6 -145 -2 -146 2 -148 6 -146 9 -145 13 -145 16 -143 20 -142 23 -141 27 -139 30 -138 34 -137 37 -136 40 -134 43 -133 46 -131 50 -130 52 -128 56 -127 58 -124 61 -124 65 -121 67 -119 69 -118 73 -116 75 -114 78 -112 80 -110 83 -108 85 -106 88 -103 90 -102 92 -99 95 -97 98 -96 101 -93 102 -91 105 -89 106 -85 -2082 1614 2 -4 70 -135 74 -132 77 -131 80 -129 83 -126 86 -125 89 -122 92 -120 94 -118 97 -116 100 -114 102 -111 105 -108 108 -105 110 -103 112 -99 115 -98 117 -94 -10527 8160 0 63 0 699 0 57 0 2268 0 459 0 855 0 420 0 369 0 75 0 59 0 321 0 11 0 203 0 170 0 61 0 76 0 228 0 177 0 221 42 0 680 0 4 0 38 0 51 0 92 0 255 0 168 0 51 0 190 0 139 0 298 0 21 0 3 0 23 0 64 0 9 0 71 0 412 0 45 0 121 0 207 0 32 0 284 0 225 0 45 0 703 0 569 0 110 0 160 0 474 0 277 0 11 0 345 0 21 0 600 0 147 0 478 0 180 0 4 0 165 0 143 0 143 0 76 0 19 0 0 0 165 0 6 0 11 0 91 0 8 0 92 0 14 0 0 0 13 0 60 0 30 0 18 0 114 0 8 0 270 0 48 0 46 0 101 0 93 0 14 0 53 0 5 0 73 0 37 0 15 0 48 0 117 0 3 0 34 0 208 0 6 0 140 0 101 0 214 0 308 0 7 0 27 0 29 0 42 0 378 0 90 0 120 0 221 0 17 0 37 0 0 0 341 0 355 0 113 0 3081 0z"/>
   <g>
    <path fill="#FEFEFE" d="M14400 3736c1255,0 2420,367 3398,998 982,-631 2147,-998 3402,-998 1724,0 3301,702 4435,1836 1133,1145 1835,2710 1835,4447 0,1724 -702,3301 -1835,4434 -1134,1134 -2711,1836 -4435,1836 -1255,0 -2420,-367 -3402,-998 -978,631 -2143,998 -3398,998 -1737,0 -3301,-702 -4435,-1836 -1133,-1133 -1835,-2710 -1835,-4434 0,-1737 702,-3302 1835,-4447 1134,-1134 2698,-1836 4435,-1836z"/>
    <g>
     <path fill="#2ECC71" d="M17800 5091c1552,1084 2574,2883 2574,4928 0,2032 -1022,3831 -2574,4915 -1565,-1084 -2587,-2883 -2587,-4915 0,-2045 1022,-3844 2587,-4928zm148 7675c-25,74 -74,135 -136,185 -61,37 -123,61 -197,61 -123,0 -222,-24 -296,-74 -86,-61 -147,-135 -209,-246 -49,-99 -74,-259 -74,-456l0 -579 74 12c0,37 12,62 25,74 12,13 24,25 49,37 12,13 37,25 74,37 24,13 86,25 172,37l998 222c86,25 160,37 210,37 36,0 73,-12 86,-37 12,-12 24,-49 24,-99l62 13 0 653c0,123 -12,234 -37,308 -25,74 -62,135 -123,172 -49,37 -111,62 -197,62 -111,0 -210,-37 -296,-111 -86,-74 -148,-173 -197,-308l-12 0 0 0zm-912 -4915l74 12c0,49 12,86 49,123 37,25 99,37 197,37 25,0 62,-12 111,-12l160 0 0 -579 -123 -74c-61,-25 -111,-49 -160,-74 -37,-12 -74,-25 -111,-25 -74,0 -111,50 -123,136l-74 -12 0 -530 74 12c0,25 12,50 25,74 24,25 49,49 86,74 37,25 86,62 172,111l1442 838 0 197 -1454 98c-62,0 -111,13 -160,13 -37,12 -62,36 -86,49 -13,24 -25,49 -25,86l-74 -12 0 -542 0 0zm702 -358l0 505 419 -24c62,0 136,0 222,0 86,0 148,0 185,0l0 -25 -826 -456zm0 3080c234,0 407,-49 505,-135 111,-87 173,-210 173,-358 0,-147 -62,-271 -173,-357 -98,-86 -271,-135 -505,-135l-702 0 0 -210 702 0c284,0 493,62 641,197 148,123 209,296 209,505 0,222 -61,382 -209,518 -136,123 -333,184 -591,184l-752 0 0 -209 702 0 0 0zm284 1836c0,98 12,184 24,234 13,61 50,123 86,160 37,49 87,86 136,98 62,25 111,37 185,37 37,0 74,-12 98,-24 37,-13 62,-25 87,-62 24,-37 36,-74 49,-111 12,-37 12,-98 12,-160 0,-74 0,-148 0,-209l-677 -148 0 185 0 0zm-863 -382c0,61 0,123 0,197 0,135 13,234 37,295 37,74 87,124 160,173 74,49 173,74 284,74 86,0 160,-25 197,-86 49,-62 74,-148 74,-259l0 -222 -752 -172z"/>
     <path fill="#E67E22" fill-rule="nonzero" d="M13316 11029l-554 0 -222 -567 -1010 0 -210 567 -542 0 986 -2513 542 0 1010 2513 0 0zm-936 -998l-345 -936 -345 936 690 0 0 0z"/>
     <path fill="#2980B9" fill-rule="nonzero" d="M22493 8516l1010 0c210,0 358,0 456,25 99,12 185,49 259,98 74,49 148,123 197,210 49,86 74,184 74,295 0,123 -25,222 -99,320 -61,99 -148,173 -258,222 160,49 271,123 357,234 86,111 123,234 123,382 0,111 -25,222 -74,333 -62,111 -135,197 -222,258 -98,74 -209,111 -345,124 -86,12 -283,12 -615,12l-863 0 0 -2513 0 0zm518 419l0 579 332 0c197,0 320,0 370,-13 86,-12 160,-37 209,-86 50,-49 74,-123 74,-197 0,-74 -24,-148 -61,-197 -50,-37 -111,-74 -198,-86 -49,0 -197,0 -431,0l-295 0zm0 998l0 677 468 0c184,0 308,-12 357,-12 74,-25 136,-50 185,-111 49,-49 74,-123 74,-210 0,-74 -25,-135 -62,-197 -37,-49 -86,-86 -160,-111 -74,-24 -222,-36 -456,-36l-406 0 0 0z"/>
     <path fill="#E67E22" fill-rule="nonzero" d="M14400 3736c1737,0 3301,702 4435,1836 1133,1145 1835,2710 1835,4447 0,1724 -702,3301 -1835,4434 -1134,1134 -2698,1836 -4435,1836 -1737,0 -3301,-702 -4435,-1836 -1133,-1133 -1835,-2710 -1835,-4434 0,-1737 702,-3302 1835,-4447 1134,-1134 2698,-1836 4435,-1836zm4016 2267c-1023,-1035 -2452,-1663 -4016,-1663 -1564,0 -2981,628 -4016,1663 -1022,1022 -1663,2439 -1663,4016 0,1564 641,2981 1663,4016 1035,1022 2452,1663 4016,1663 1564,0 2993,-641 4016,-1663 1022,-1035 1663,-2452 1663,-4016 0,-1577 -641,-2994 -1663,-4016z"/>
     <path fill="#2980B9" fill-rule="nonzero" d="M21200 3736c1724,0 3301,702 4435,1836 1133,1145 1835,2710 1835,4447 0,1724 -702,3301 -1835,4434 -1134,1134 -2711,1836 -4435,1836 -1737,0 -3302,-702 -4447,-1836 -1133,-1133 -1836,-2710 -1836,-4434 0,-1737 703,-3302 1836,-4447 1146,-1134 2710,-1836 4447,-1836zm4003 2267c-1022,-1035 -2439,-1663 -4003,-1663 -1577,0 -2994,628 -4016,1663 -1035,1022 -1663,2439 -1663,4016 0,1564 628,2981 1663,4016 1022,1022 2439,1663 4016,1663 1564,0 2981,-641 4003,-1663 1035,-1035 1663,-2452 1663,-4016 0,-1577 -628,-2994 -1663,-4016z"/>
    </g>
   </g>
  </g>
 </g>
</svg>
