<?xml version="1.0" encoding="UTF-8"?>
<!DOCTYPE svg PUBLIC "-//W3C//DTD SVG 1.0//EN" "http://www.w3.org/TR/2001/REC-SVG-20010904/DTD/svg10.dtd">
<!-- Creator: CorelDRAW 2017 -->
<svg xmlns="http://www.w3.org/2000/svg" xml:space="preserve" width="356px" height="200px" version="1.0" shape-rendering="geometricPrecision" text-rendering="geometricPrecision" image-rendering="optimizeQuality" fill-rule="evenodd" clip-rule="evenodd"
viewBox="0 0 35600 20025"
 xmlns:xlink="http://www.w3.org/1999/xlink">
 <g id="Layer_x0020_1">
  <metadata id="CorelCorpID_0Corel-Layer"/>
  <g id="_1442491607792">
   <path fill="#E6E7E8" d="M0 0l35600 0 0 20025 -35600 0 0 -20025z"/>
   <path fill="#373435" fill-opacity="0.031373" d="M2082 17547c68,103 112,202 155,312 32,64 49,183 199,183 44,0 107,-14 163,-45 63,-33 111,-83 136,-159l60 -202 146 -72 10 10c-20,76 -25,149 -25,206 0,169 146,233 262,233 68,0 129,-33 129,-95 0,-80 -34,-216 -78,-338 68,-68 136,-136 214,-191l12 6c34,144 53,286 53,381 0,93 -41,196 -75,264 -70,132 -194,237 -344,237 -114,0 -241,-57 -328,-163l-5 0c-82,102 -209,194 -412,194l-63 0c-10,134 -39,229 -83,314 -121,237 -480,404 -818,404 -470,0 -706,-272 -706,-633 0,-223 73,-431 185,-578l92 38c-70,134 -117,261 -117,385 0,338 275,499 592,499 294,0 658,-187 724,-404 -25,-237 -114,-349 -250,-565 41,-72 94,-144 160,-221l12 0 0 0 0 0zm5421 -1274c99,62 196,136 291,220 -53,75 -119,143 -201,203 -95,-77 -190,-143 -287,-213 66,-74 131,-146 197,-210l0 0 0 0zm51 926c-160,0 -291,105 -291,183 0,167 320,219 703,217 -48,-196 -216,-400 -412,-400zm-359 895c208,0 390,-6 529,-41 155,-40 286,-118 286,-172 0,-14 0,-31 -5,-45 -87,8 -187,8 -274,8 -282,0 -498,-64 -583,-222 -21,-44 -36,-93 -36,-149 0,-153 66,-303 182,-406 97,-85 204,-138 313,-138 197,0 354,158 464,408 60,136 101,293 101,491 0,132 -36,243 -118,326 -153,148 -435,204 -867,204l-196 0 0 0 -51 0c-107,0 -184,-19 -245,-66l-10 0c3,25 5,49 5,72 0,97 -32,221 -97,320 -192,286 -400,410 -580,410 -182,0 -405,-70 -606,-161l36 -70c65,27 155,45 279,45 325,0 752,-313 805,-618 -12,-25 -34,-58 -65,-93 -95,-113 -155,-208 -211,-307 48,-95 92,-171 133,-240l17 -2c139,283 265,446 546,446l44 0 0 0 204 0 0 0 0 0zm-1408 299c24,-130 26,-276 26,-413l0 -202c0,-377 -48,-926 -87,-1283 68,-74 163,-160 238,-218l22 6c51,450 63,971 63,1452 0,126 -5,249 -17,340 -7,114 -73,200 -214,332l-31 -14zm-1449 -596c7,177 94,317 398,317 189,0 349,-49 526,-134 32,-14 49,-33 49,-49 0,-111 -85,-258 -228,-392 -139,-126 -323,-237 -495,-311 -59,-25 -78,-52 -78,-77 0,-51 68,-158 124,-235l19 -2c197,103 417,256 580,427 148,157 240,316 240,489 0,128 -39,249 -102,361 -216,109 -446,192 -674,192 -277,0 -466,-130 -466,-436 0,-33 0,-84 12,-150l95 0 0 0 0 0zm-501 -503l172 278c63,103 122,215 122,392l0 227c0,183 -117,379 -306,573 -148,132 -279,188 -400,188 -180,0 -386,-56 -624,-159l27 -70c75,20 162,37 269,37 342,-2 692,-252 852,-557 19,-35 26,-68 26,-91 0,-35 -19,-74 -34,-109 -87,-165 -184,-315 -291,-454 56,-88 112,-173 173,-257l14 2 0 0 0 0z"/>
   <path fill="#373435" fill-opacity="0.078431" d="M359 20025l126 0 82 0 47 0 514 0 89 0 28 0 240 0 219 0 39 0 267 0 151 0 537 0 264 0 220 0 809 0 329 0 18 0 204 0 85 0 487 0 53 0 373 0 96 0 183 0 5 0 57 0 95 0 396 0 149 0 216 0 103 0 2 0 161 0 296 0 336 0 150 0 48 0 339 0 26 0 111 0 111 0 279 0 46 0 41 0 176 0 344 0 0 0 346 0 417 0 306 0 330 0 45 0 127 0 129 0 42 0 250 0 108 0 406 0 189 0 36 0 27 0 47 0 41 0 32 0 81 0 306 0 56 0 363 0 58 0 54 0 192 0 196 0 230 0 274 0 24 0 340 0 6 0 9 0 26 0 197 0 17 0 322 0 105 0 41 0 246 0 169 0 483 0 5 0 33 0 593 0 43 0 357 0 406 0 193 0 106 0 461 0 0 0 475 0 415 0 305 0 133 0 79 0 221 0 94 0 263 0 99 0 394 0 354 0 233 0 263 0 263 0 287 0 76 0 394 0 353 0 497 0 549 0 2482 -2494 -47 44 -54 41 -59 35 -65 29 -71 25 -77 18 -83 14 -90 8 -95 3 -87 -2 -33 -3 404 -406 12 -13 11 -14 8 -15 7 -16 4 -17 3 -17 1 -19 0 -13 -2 -12 -3 -12 -3 -11 -5 -11 -6 -10 -6 -9 -8 -9 -10 -8 -13 -8 -15 -8 -18 -8 -20 -8 -24 -7 -25 -7 -29 -7 -79 -18 670 -674 -434 81 -8 -25 -9 -23 -11 -22 -13 -21 -14 -19 -15 -17 -18 -16 -19 -15 -20 -12 -23 -11 -25 -10 -27 -7 -28 -6 -32 -4 -33 -3 -35 -1 -44 1 -41 2 -38 4 -34 6 -32 7 -27 9 -25 10 -22 12 -12 10 -11 10 -386 388 -19 -31 -22 -51 -17 -54 -9 -58 -3 -61 2 -56 9 -53 14 -51 19 -49 26 -47 30 -44 37 -42 -988 992 -5 -2 -21 -8 -23 -7 -26 -7 -29 -7 -79 -18 670 -674 -434 81 -8 -25 -9 -23 -11 -22 -12 -21 -15 -19 -15 -17 -17 -16 -19 -15 -21 -12 -23 -11 -24 -10 -27 -7 -29 -6 -31 -4 -33 -3 -36 -1 -44 1 -41 2 -38 4 -34 6 -31 7 -28 9 -25 10 -22 12 -12 10 -11 10 -386 388 -18 -31 -23 -51 -16 -54 -10 -58 -3 -61 3 -56 8 -53 14 -51 20 -49 25 -47 31 -44 36 -42 -847 851 -305 0 281 -282 -2 -49 -6 -46 -8 -43 -12 -39 -14 -37 -18 -34 -20 -30 -23 -28 -25 -24 -27 -22 -28 -18 -29 -15 -30 -11 -32 -8 -33 -5 -35 -2 -37 2 -35 5 -34 9 -31 12 -31 16 -28 18 -27 23 -600 602 -2 -25 -3 -89 4 -105 11 -100 17 -94 25 -88 32 -82 39 -76 46 -70 53 -65 58 -57 -1479 1486 0 -194 987 -992 -29 -17 -28 -16 -28 -13 -28 -10 -26 -9 -27 -5 -26 -4 -25 -1 -24 1 -23 2 -22 4 -21 6 -20 8 -19 9 -18 11 -18 12 -16 15 -589 592 0 -360 427 -429 28 -42 26 -38 26 -35 25 -30 24 -27 -556 559 0 -635 -726 730 -28 15 -31 15 -31 14 -32 11 -32 10 -32 8 -46 8 -51 7 -55 6 -61 5 -65 3 -70 3 -75 2 -80 0 -70 0 506 -508 17 -17 16 -19 14 -19 13 -21 11 -21 9 -22 8 -23 6 -24 4 -25 3 -25 1 -27 -1 -32 -4 -31 -6 -29 -8 -28 -11 -27 -13 -25 -16 -23 3066 -3082 -100 98 -103 95 -104 93 -106 91 -108 88 -110 85 -111 83 -113 80 -115 78 -117 75 -118 73 -121 70 -34 19 1186 -1193 196 -205 186 -215 175 -223 165 -232 154 -240 142 -247 130 -255 119 -262 106 -268 92 -275 80 -280 66 -286 52 -291 38 -296 22 -300 8 -304 -8 -304 -22 -300 -38 -296 -52 -291 -66 -286 -80 -280 -92 -275 -106 -268 -119 -262 -130 -255 -142 -247 -154 -240 -165 -232 -175 -223 -186 -214 -196 -206 -205 -195 -214 -186 -224 -176 -231 -164 -240 -154 -248 -142 -254 -131 -262 -118 -269 -106 -274 -93 -281 -80 -285 -66 -292 -51 -295 -38 -300 -23 -304 -8 -305 8 -300 23 -296 38 -291 51 -286 66 -280 80 -274 93 -269 106 -262 118 -254 131 -248 142 -240 154 -232 164 -223 176 -214 186 -205 195 -1198 1204 28 -52 105 -178 112 -177 65 -97 66 -95 68 -93 69 -92 72 -91 73 -89 74 -88 76 -86 78 -85 79 -84 -13390 13460 0 176 0 160 0 199 0 678 0 13 0 463 0 14 0 0 0 539 0 181 359 0z"/>
   <g>
    <g>
     <path fill="#FEFEFE" d="M23711 8424c0,-3264 -2646,-5910 -5909,-5910 -3265,0 -5910,2646 -5910,5910 0,3264 2645,5910 5910,5910 3263,0 5909,-2646 5909,-5910z"/>
     <path fill="#285C81" fill-rule="nonzero" d="M18021 2277c13,5 22,9 35,9 188,14 376,27 560,49 246,23 483,76 720,135 246,62 488,138 720,237 197,85 394,170 582,264 371,188 711,420 1033,684 286,228 546,483 788,761 402,474 733,997 979,1570 179,412 313,837 394,1279 36,211 63,421 85,636 45,398 36,796 -9,1194 -76,747 -286,1454 -631,2125 -197,385 -429,752 -707,1083 -134,161 -268,317 -416,465 -532,528 -1140,953 -1825,1262 -416,187 -845,331 -1293,420 -483,99 -971,139 -1458,121 -381,-13 -756,-63 -1128,-148 -818,-183 -1561,-519 -2241,-1006 -242,-175 -470,-367 -689,-577 -564,-537 -998,-1168 -1324,-1875 -188,-416 -327,-845 -416,-1288 -103,-515 -148,-1034 -116,-1557 58,-1114 393,-2143 1006,-3078 340,-519 752,-975 1230,-1369 282,-233 586,-438 909,-617 286,-161 581,-304 894,-412 211,-67 425,-139 640,-192 188,-49 380,-81 573,-108 152,-26 308,-35 465,-49 58,-4 112,-4 165,-9 9,0 23,-4 32,-9 147,0 295,0 443,0l0 0zm35 11927l0 0c1325,-22 2698,-564 3816,-1691 1190,-1194 1763,-2653 1696,-4339 -116,-3038 -2604,-5449 -5623,-5512 -1642,-36 -3060,528 -4224,1682 -1127,1119 -1691,2492 -1695,4080 -9,3154 2550,5780 6030,5780z"/>
     <path fill="#3D81AE" fill-rule="nonzero" d="M16486 11694c-18,-40 -31,-76 -40,-111 -295,-868 -586,-1732 -881,-2595 -331,-976 -663,-1946 -994,-2921 -4,-9 -4,-14 -9,-23 -22,-76 0,-116 77,-116 174,-5 344,0 514,0 31,0 63,0 89,0 36,0 59,-23 59,-54 0,-103 0,-206 -5,-309 0,-40 -22,-53 -62,-49 -229,9 -461,18 -689,23 -300,8 -600,13 -900,17 -94,0 -183,0 -286,0 255,-398 555,-756 904,-1064 818,-729 1767,-1172 2854,-1311 1172,-148 2277,67 3310,653 345,197 658,430 958,703 -76,8 -143,13 -210,22 -202,31 -381,121 -519,273 -126,143 -188,308 -211,496 -31,300 27,586 170,850 108,206 229,403 345,604 152,264 282,537 344,837 45,210 63,420 59,635 -18,488 -144,944 -296,1400 -210,645 -420,1289 -635,1933 -5,14 -5,22 -13,40 -5,-17 -14,-26 -18,-40 -287,-850 -573,-1700 -864,-2550 -331,-980 -666,-1959 -1002,-2944 -40,-120 -13,-165 116,-165 162,-5 327,0 488,0 72,0 81,-9 81,-85 0,-85 0,-175 0,-260 0,-53 -18,-71 -72,-67 -541,9 -1083,27 -1624,27 -447,0 -890,-18 -1338,-27 -58,-4 -76,14 -76,67 0,90 0,179 0,269 0,58 14,76 76,76 179,0 358,0 537,0 81,0 125,40 152,112 94,250 188,501 278,756 165,447 326,894 492,1342 4,18 9,45 0,63 -380,1149 -765,2303 -1145,3453 -5,14 -9,23 -14,40l0 0zm3848 1365c26,-81 53,-157 85,-237 384,-1096 773,-2192 1158,-3288 166,-470 336,-935 492,-1410 139,-411 237,-836 309,-1270 45,-296 72,-595 67,-895 0,-13 0,-22 5,-36 210,376 367,770 469,1186 305,1239 197,2438 -349,3592 -487,1025 -1239,1808 -2227,2362 0,0 -5,-4 -9,-4l0 0zm-7337 -6818c845,2322 1695,4639 2541,6957 -5,4 -9,4 -14,8 -1266,-630 -2178,-1597 -2675,-2930 -506,-1355 -438,-2706 130,-4031 4,0 13,0 18,-4l0 0zm6576 7167c-595,210 -1199,313 -1821,304 -510,-5 -1002,-81 -1489,-228 541,-1553 1082,-3105 1628,-4671 564,1539 1118,3065 1682,4595l0 0z"/>
    </g>
    <path fill="#4B4B4D" fill-rule="nonzero" d="M9608 17704l-566 -2407 501 0 358 1654 439 -1654 580 0 420 1682 366 -1682 490 0 -580 2407 -521 0 -475 -1800 -477 1800 -535 0zm2671 -894c0,-153 38,-302 113,-445 76,-144 183,-253 321,-329 139,-76 293,-114 464,-114 264,0 479,86 648,258 169,172 253,388 253,650 0,264 -86,484 -255,657 -171,174 -385,261 -643,261 -160,0 -312,-36 -457,-109 -145,-72 -255,-178 -331,-318 -75,-140 -113,-310 -113,-511zm474 25c0,173 41,306 123,398 82,92 183,138 303,138 120,0 221,-46 302,-138 82,-92 123,-226 123,-401 0,-171 -41,-303 -123,-395 -81,-92 -182,-138 -302,-138 -120,0 -221,46 -303,138 -82,92 -123,225 -123,398zm2128 869l-461 0 0 -1745 427 0 0 248c73,-117 140,-194 198,-230 59,-37 126,-55 200,-55 106,0 207,30 305,87l-143 402c-78,-50 -150,-75 -217,-75 -65,0 -120,18 -165,53 -45,36 -80,100 -106,193 -26,93 -38,288 -38,584l0 538zm2468 0l-427 0 0 -256c-71,100 -156,174 -253,225 -97,50 -195,75 -294,75 -201,0 -373,-81 -516,-243 -143,-162 -215,-387 -215,-677 0,-295 70,-521 209,-675 140,-154 316,-231 529,-231 195,0 364,82 506,244l0 -869 461 0 0 2407zm-1231 -906c0,187 26,322 77,405 75,121 178,182 312,182 105,0 196,-46 270,-136 74,-91 111,-226 111,-407 0,-201 -36,-345 -108,-434 -72,-88 -164,-133 -277,-133 -109,0 -200,44 -274,131 -74,88 -111,219 -111,392zm1688 906l0 -2407 779 0c295,0 487,12 577,36 138,36 253,115 346,236 93,121 140,277 140,469 0,148 -27,271 -80,372 -54,101 -122,180 -204,238 -83,57 -167,95 -252,114 -116,23 -283,34 -503,34l-316 0 0 908 -487 0zm487 -2000l0 686 265 0c191,0 318,-13 383,-38 64,-26 115,-65 151,-119 36,-54 55,-116 55,-188 0,-88 -26,-160 -77,-217 -51,-58 -116,-93 -195,-108 -58,-11 -174,-16 -348,-16l-234 0zm2192 2000l-461 0 0 -1745 427 0 0 248c74,-117 140,-194 199,-230 58,-37 125,-55 200,-55 105,0 206,30 304,87l-143 402c-78,-50 -150,-75 -217,-75 -65,0 -120,18 -165,53 -44,36 -80,100 -105,193 -26,93 -39,288 -39,584l0 538zm1876 -551l461 77c-59,169 -152,297 -280,386 -127,88 -287,132 -478,132 -303,0 -528,-99 -673,-298 -115,-159 -173,-359 -173,-602 0,-289 76,-516 227,-680 150,-164 341,-246 572,-246 259,0 464,86 614,258 149,171 221,434 214,788l-1153 0c4,137 41,243 112,319 70,77 159,115 264,115 73,0 133,-20 182,-59 49,-39 86,-103 111,-190zm27 -467c-3,-134 -37,-237 -103,-306 -65,-70 -145,-105 -239,-105 -100,0 -183,37 -249,111 -65,73 -97,173 -96,300l687 0zm670 527l464 -70c19,89 59,157 120,203 60,46 144,69 252,69 120,0 209,-22 270,-66 40,-30 60,-72 60,-123 0,-35 -11,-64 -33,-87 -23,-22 -74,-43 -154,-61 -372,-83 -608,-158 -708,-225 -138,-95 -207,-226 -207,-394 0,-152 60,-279 179,-382 119,-103 304,-155 555,-155 238,0 416,40 532,117 116,79 196,194 240,347l-434 81c-18,-68 -54,-121 -106,-158 -52,-36 -127,-54 -224,-54 -122,0 -209,17 -263,51 -35,24 -52,56 -52,94 0,33 15,61 46,84 42,31 186,74 432,130 247,56 419,124 516,205 97,82 145,197 145,344 0,160 -66,297 -200,412 -134,115 -331,173 -594,173 -237,0 -425,-48 -564,-144 -139,-96 -230,-226 -272,-391zm1870 0l464 -70c19,89 59,157 119,203 60,46 145,69 253,69 120,0 209,-22 270,-66 40,-30 60,-72 60,-123 0,-35 -11,-64 -33,-87 -23,-22 -74,-43 -154,-61 -373,-83 -608,-158 -708,-225 -139,-95 -207,-226 -207,-394 0,-152 59,-279 179,-382 119,-103 304,-155 554,-155 239,0 417,40 533,117 116,79 196,194 240,347l-434 81c-19,-68 -54,-121 -107,-158 -52,-36 -126,-54 -223,-54 -122,0 -210,17 -263,51 -35,24 -53,56 -53,94 0,33 16,61 46,84 42,31 186,74 433,130 247,56 418,124 516,205 97,82 145,197 145,344 0,160 -67,297 -200,412 -134,115 -332,173 -594,173 -237,0 -426,-48 -565,-144 -138,-96 -229,-226 -271,-391z"/>
   </g>
  </g>
 </g>
</svg>
