<?xml version="1.0" encoding="UTF-8"?>
<!DOCTYPE svg PUBLIC "-//W3C//DTD SVG 1.0//EN" "http://www.w3.org/TR/2001/REC-SVG-20010904/DTD/svg10.dtd">
<!-- Creator: CorelDRAW 2017 -->
<svg xmlns="http://www.w3.org/2000/svg" xml:space="preserve" width="356px" height="200px" version="1.0" shape-rendering="geometricPrecision" text-rendering="geometricPrecision" image-rendering="optimizeQuality" fill-rule="evenodd" clip-rule="evenodd"
viewBox="0 0 35600 20025"
 xmlns:xlink="http://www.w3.org/1999/xlink">
 <g id="Layer_x0020_1">
  <metadata id="CorelCorpID_0Corel-Layer"/>
  <g id="_2746345700896">
   <path fill="#E6E7E8" d="M0 0l35600 0 0 20025 -35600 0 0 -20025z"/>
   <path fill="#373435" fill-opacity="0.078431" d="M23356 11854l-3844 3652 1 2 20 33 16 36 12 40 9 42 5 46 2 48 -1 25 -1 25 -3 25 -4 24 -5 24 -6 23 -7 23 -8 23 -9 22 -11 23 -11 22 -13 23 -14 22 -14 22 -16 22 -17 22 -19 22 -19 22 -20 22 -21 22 -22 22 -24 23 -972 923 -17 33 -22 46 -21 46 -19 49 -16 50 -14 51 -11 53 -9 54 -6 56 -4 58 -1 59 0 152 2995 -2846 -87 86 -80 100 -70 112 -62 124 -51 137 -43 148 -32 160 -24 173 -14 184 -1 27 944 -896 90 -52 105 -18 97 17 85 51 72 85 59 119 45 152 33 187 19 220 7 254 -2 87 1311 -1246 0 578 23 -3 23 -4 23 -4 23 -4 23 -5 23 -5 23 -5 24 -6 23 -6 23 -7 23 -7 22 -8 23 -8 22 -8 22 -8 22 -9 21 -9 21 -9 21 -10 21 -10 20 -10 20 -11 20 -11 19 -11 20 -11 18 -11 18 -12 17 -11 16 -12 16 -12 15 -12 15 -13 0 1644 2181 -2072 -51 50 -50 53 -47 56 -45 60 -42 62 -39 66 -36 68 -34 71 -32 75 -28 77 -27 80 -23 83 -20 85 -17 88 -14 90 -10 92 -8 95 -2 45 975 -927 30 -24 31 -23 32 -22 33 -19 35 -18 36 -16 37 -13 38 -12 38 -9 40 -7 41 -6 42 -3 43 -1 69 2 68 7 67 10 65 15 64 19 62 23 62 27 60 32 -1878 1783 2 9 9 24 736 -700 15 -13 16 -13 16 -12 18 -11 17 -10 19 -9 19 -8 20 -7 21 -6 21 -5 21 -4 22 -2 23 -2 23 -1 96 8 83 24 71 39 58 55 45 71 32 86 19 102 6 117 0 29 -1 28 -3 27 -3 27 -4 26 -5 26 -5 25 -7 24 -7 24 -9 23 -9 22 -9 21 -11 20 -11 19 -12 19 -13 17 -14 17 -14 15 -15 15 -603 572 42 13 58 13 60 11 61 8 63 4 65 2 58 -1 57 -4 56 -7 55 -9 53 -11 52 -15 51 -17 50 -20 49 -22 47 -23 45 -26 43 -28 42 -30 40 -31 39 -34 -2401 2281 -25363 0 0 -5540 12093 -11487 0 0 0 144 0 144 0 145 0 144 0 144 0 145 0 144 0 72 837 -795 10285 0 0 8460 -275 261 53 0 103 -10 96 -31 87 -47 77 -64z"/>
   <g>
    <path fill="#4B4B4D" fill-rule="nonzero" d="M9146 17968l-1650 0 0 -3114 1581 0 0 330 -1216 0 0 1036 1125 0 0 328 -1125 0 0 1090 1285 0 0 330zm2176 -2224l-747 1125 734 1099 -414 0 -437 -721c-28,-45 -60,-101 -98,-169l-9 0c-7,12 -41,69 -102,169l-445 721 -411 0 759 -1091 -726 -1133 415 0 430 760c32,57 63,115 94,174l8 0 556 -934 393 0zm1898 2122c-171,103 -374,154 -608,154 -317,0 -573,-103 -768,-309 -194,-206 -292,-474 -292,-803 0,-366 105,-660 315,-883 210,-222 490,-333 841,-333 195,0 367,36 516,108l0 365c-165,-116 -341,-173 -530,-173 -227,0 -413,81 -559,244 -145,163 -218,377 -218,641 0,261 69,467 205,617 137,151 320,226 551,226 194,0 376,-64 547,-193l0 339zm2325 -921l-1570 0c6,248 73,439 200,574 128,134 303,201 526,201 250,0 480,-82 691,-247l0 334c-196,142 -455,213 -776,213 -314,0 -561,-101 -740,-303 -180,-202 -270,-486 -270,-852 0,-346 99,-628 294,-846 197,-218 441,-327 731,-327 291,0 516,94 676,283 159,187 238,449 238,783l0 187zm-365 -302c-1,-205 -51,-365 -148,-480 -98,-114 -233,-171 -407,-171 -168,0 -311,60 -428,180 -117,120 -190,277 -217,471l1200 0zm1261 1325l-357 0 0 -3292 357 0 0 3292zm2510 -569l1320 0 0 569 -2071 0 0 -234c0,-160 26,-303 80,-430 54,-126 121,-240 202,-341 81,-100 170,-189 266,-266 97,-78 188,-148 275,-210 91,-65 171,-128 240,-187 69,-59 126,-118 174,-177 47,-59 81,-118 105,-178 23,-60 35,-124 35,-192 0,-133 -38,-234 -113,-302 -75,-68 -191,-102 -346,-102 -268,0 -524,106 -769,319l0 -604c272,-175 577,-263 917,-263 158,0 299,21 424,63 126,41 232,100 319,177 87,76 153,169 199,278 45,110 68,232 68,367 0,143 -22,270 -66,381 -45,112 -103,214 -176,305 -73,91 -158,175 -253,251 -96,76 -195,149 -297,220 -70,49 -137,98 -201,146 -65,49 -122,97 -171,144 -49,47 -89,93 -118,138 -29,44 -43,88 -43,128zm2888 623c-741,0 -1112,-520 -1112,-1561 0,-540 100,-952 301,-1235 200,-283 492,-425 872,-425 724,0 1086,530 1086,1588 0,527 -99,931 -297,1212 -197,281 -481,421 -850,421zm31 -2697c-297,0 -445,372 -445,1118 0,703 145,1053 436,1053 284,0 426,-361 426,-1086 0,-723 -139,-1085 -417,-1085zm3073 -541l0 3184 -684 0 0 -2411c-38,34 -83,65 -135,94 -51,30 -106,58 -163,81 -58,24 -118,44 -180,61 -63,16 -124,28 -185,36l0 -578c178,-52 346,-118 504,-200 158,-81 300,-170 428,-267l415 0zm3161 2148c0,154 -26,297 -80,430 -54,133 -128,249 -224,346 -95,98 -209,175 -341,230 -132,57 -275,84 -432,84 -175,0 -332,-33 -470,-98 -138,-64 -255,-159 -351,-283 -95,-124 -168,-276 -219,-455 -51,-180 -76,-383 -76,-610 0,-268 33,-511 98,-729 66,-218 161,-404 283,-559 122,-155 270,-275 444,-359 174,-85 369,-128 586,-128 241,0 427,29 561,85l0 574c-158,-90 -330,-135 -517,-135 -116,0 -221,23 -315,67 -94,45 -175,109 -242,191 -67,83 -121,183 -158,299 -39,116 -60,247 -63,390l14 0c147,-205 365,-306 653,-306 129,0 246,23 350,69 104,46 193,112 267,197 74,84 131,186 172,305 40,119 60,250 60,395zm-671 43c0,-334 -137,-502 -410,-502 -62,0 -119,12 -170,35 -50,23 -93,56 -130,98 -36,43 -64,92 -83,149 -20,57 -30,120 -30,190 0,77 10,148 30,215 21,67 49,125 86,175 37,49 81,90 131,118 52,29 108,43 170,43 63,0 118,-12 169,-37 49,-26 92,-61 128,-107 35,-45 62,-100 81,-165 19,-64 28,-135 28,-212z"/>
    <g>
     <rect fill="#FEFEFE" x="12930" y="3285" width="10285" height="8461"/>
     <path fill="#207245" d="M12093 2998c951,-140 1961,-290 3039,-447 1150,-171 2385,-352 3708,-548l-2 1028 4152 0c285,0 517,233 517,515l0 7943c0,285 -232,517 -514,517l-4192 0 -5 1207c-1315,-202 -2540,-390 -3682,-566 -1070,-163 -2078,-318 -3021,-462 0,-1523 0,-3050 0,-4580 0,-1532 0,-3067 0,-4607l0 0zm1749 2553c184,-13 347,-26 491,-36 132,-8 251,-18 357,-26 111,295 214,571 313,832l261 695 284 -705c111,-277 230,-569 357,-884 111,-8 235,-16 372,-23 150,-11 320,-24 511,-34 -209,429 -403,824 -581,1186 -166,333 -315,644 -457,933 144,295 299,615 467,959 181,374 380,780 595,1222 -207,-10 -388,-21 -548,-31 -142,-8 -269,-13 -385,-21 -124,-312 -241,-607 -352,-883 -103,-261 -201,-510 -294,-742 -88,212 -179,442 -279,685 -106,263 -220,545 -344,850 -109,-5 -228,-8 -359,-13 -148,-5 -310,-10 -494,-15 209,-409 398,-778 569,-1112 157,-305 299,-586 431,-842 -126,-277 -261,-574 -408,-889 -155,-341 -326,-708 -507,-1106l0 0zm6518 -1321l1790 0 0 869 -1790 0 0 -869zm0 5724l1790 0 0 869 -1790 0 0 -869zm0 -1444l1790 0 0 868 -1790 0 0 -868zm0 -1411l1790 0 0 868 -1790 0 0 -868zm0 -1458l1790 0 0 869 -1790 0 0 -869zm-1520 -1411l1026 0 0 869 -1026 0 0 542 1026 0 0 869 -1026 0 0 589 1026 0 0 868 -1026 0 0 543 1026 0 0 868 -1026 0 0 577 1026 0 0 868 -1026 0 0 801 4259 0 0 -8202 -4259 0 0 808 0 0z"/>
    </g>
   </g>
   <path fill="#373435" fill-opacity="0.031373" d="M2082 17547c68,103 112,202 155,312 32,64 49,183 199,183 44,0 107,-14 163,-45 63,-33 111,-83 136,-159l60 -202 146 -72 10 10c-20,76 -25,149 -25,206 0,169 146,233 262,233 68,0 129,-33 129,-95 0,-80 -34,-216 -78,-338 68,-68 136,-136 214,-191l12 6c34,144 53,286 53,381 0,93 -41,196 -75,264 -70,132 -194,237 -344,237 -114,0 -241,-57 -328,-163l-5 0c-82,102 -209,194 -412,194l-63 0c-10,134 -39,229 -83,314 -121,237 -480,404 -818,404 -470,0 -706,-272 -706,-633 0,-223 73,-431 185,-578l92 38c-70,134 -117,261 -117,385 0,338 275,499 592,499 294,0 658,-187 724,-404 -25,-237 -114,-349 -250,-565 41,-72 94,-144 160,-221l12 0zm5421 -1274c99,62 196,136 291,220 -53,75 -119,143 -201,203 -95,-77 -190,-143 -287,-213 66,-74 131,-146 197,-210zm51 926c-160,0 -291,105 -291,183 0,167 320,219 703,217 -48,-196 -216,-400 -412,-400zm-359 895c208,0 390,-6 529,-41 155,-40 286,-118 286,-172 0,-14 0,-31 -5,-45 -87,8 -187,8 -274,8 -282,0 -498,-64 -583,-222 -21,-44 -36,-93 -36,-149 0,-153 66,-303 182,-406 97,-85 204,-138 313,-138 197,0 354,158 464,408 60,136 101,293 101,491 0,132 -36,243 -118,326 -153,148 -435,204 -867,204l-196 0 0 0 -51 0c-107,0 -184,-19 -245,-66l-10 0c3,25 5,49 5,72 0,97 -32,221 -97,320 -192,286 -400,410 -580,410 -182,0 -405,-70 -606,-161l36 -70c65,27 155,45 279,45 325,0 752,-313 805,-618 -12,-25 -34,-58 -65,-93 -95,-113 -155,-208 -211,-307 48,-95 92,-171 133,-240l17 -2c139,283 265,446 546,446l44 0 0 0 204 0zm-1408 299c24,-130 26,-276 26,-413l0 -202c0,-377 -48,-926 -87,-1283 68,-74 163,-160 238,-218l22 6c51,450 63,971 63,1452 0,126 -5,249 -17,340 -7,114 -73,200 -214,332l-31 -14zm-1449 -596c7,177 94,317 398,317 189,0 349,-49 526,-134 32,-14 49,-33 49,-49 0,-111 -85,-258 -228,-392 -139,-126 -323,-237 -495,-311 -59,-25 -78,-52 -78,-77 0,-51 68,-158 124,-235l19 -2c197,103 417,256 580,427 148,157 240,316 240,489 0,128 -39,249 -102,361 -216,109 -446,192 -674,192 -277,0 -466,-130 -466,-436 0,-33 0,-84 12,-150l95 0zm-501 -503l172 278c63,103 122,215 122,392l0 227c0,183 -117,379 -306,573 -148,132 -279,188 -400,188 -180,0 -386,-56 -624,-159l27 -70c75,20 162,37 269,37 342,-2 692,-252 852,-557 19,-35 26,-68 26,-91 0,-35 -19,-74 -34,-109 -87,-165 -184,-315 -291,-454 56,-88 112,-173 173,-257l14 2z"/>
  </g>
 </g>
</svg>
