<?xml version="1.0" encoding="UTF-8"?>
<!DOCTYPE svg PUBLIC "-//W3C//DTD SVG 1.1//EN" "http://www.w3.org/Graphics/SVG/1.1/DTD/svg11.dtd">
<!-- Creator: CorelDRAW 2017 -->
<svg xmlns="http://www.w3.org/2000/svg" xml:space="preserve" width="3.70333in" height="2.08333in" version="1.1" style="shape-rendering:geometricPrecision; text-rendering:geometricPrecision; image-rendering:optimizeQuality; fill-rule:evenodd; clip-rule:evenodd"
viewBox="0 0 3703 2083"
 xmlns:xlink="http://www.w3.org/1999/xlink">
 <defs>
  <style type="text/css">
   <![CDATA[
    .fil0 {fill:#E6E7E8}
    .fil7 {fill:#252422;fill-rule:nonzero}
    .fil5 {fill:#347AB4;fill-rule:nonzero}
    .fil3 {fill:#66CEDB;fill-rule:nonzero}
    .fil6 {fill:#E7E7E9;fill-rule:nonzero}
    .fil4 {fill:#FEFEFE;fill-rule:nonzero}
    .fil8 {fill:#FFEA00;fill-rule:nonzero}
    .fil2 {fill:black;fill-opacity:0.031373}
    .fil1 {fill:#373435;fill-opacity:0.101961}
   ]]>
  </style>
 </defs>
 <g id="Layer_x0020_1">
  <metadata id="CorelCorpID_0Corel-Layer"/>
  <polygon class="fil0" points="0,0 3703,0 3703,2083 0,2083 "/>
  <polygon class="fil1" points="1096,2083 1080,2083 1079,2083 1078,2083 1071,2083 1052,2083 1009,2083 1007,2083 966,2083 949,2083 931,2083 894,2083 888,2083 874,2083 854,2083 836,2083 831,2083 793,2083 760,2083 759,2083 743,2083 735,2083 734,2083 719,2083 718,2083 713,2083 704,2083 703,2083 699,2083 682,2083 675,2083 674,2083 671,2083 667,2083 665,2083 655,2083 654,2083 649,2083 648,2083 614,2083 602,2083 598,2083 588,2083 578,2083 574,2083 570,2083 570,2083 564,2083 555,2083 543,2083 531,2083 526,2083 524,2083 519,2083 504,2083 504,2083 498,2083 497,2083 495,2083 490,2083 483,2083 474,2083 458,2083 448,2083 447,2083 441,2083 438,2083 432,2083 429,2083 428,2083 422,2083 418,2083 404,2083 401,2083 396,2083 390,2083 389,2083 377,2083 370,2083 363,2083 356,2083 346,2083 345,2083 321,2083 318,2083 300,2083 298,2083 292,2083 284,2083 272,2083 272,2083 256,2083 250,2083 247,2083 209,2083 207,2083 205,2083 179,2083 178,2083 175,2083 171,2083 169,2083 163,2083 140,2083 139,2083 137,2083 127,2083 126,2083 124,2083 123,2083 123,2083 116,2083 116,2083 109,2083 102,2083 101,2083 94,2083 81,2083 80,2083 76,2083 42,2083 0,2083 0,2080 0,2063 0,1978 0,1978 0,1974 0,1968 0,1946 0,1944 0,1927 0,1915 0,1879 0,1846 0,1738 0,1733 0,1710 0,1701 0,1701 0,1681 1638,343 1633,348 1629,353 1625,358 1621,364 1618,370 1615,377 1614,384 1613,388 1639,367 1639,367 1661,349 1661,387 1672,378 1676,375 1681,374 1686,373 2432,373 2495,326 2495,327 2434,373 2497,373 2502,374 2507,375 2511,377 2514,380 2517,384 2520,388 2521,392 2522,397 2522,517 2487,542 2550,542 2517,566 2517,1113 2519,1113 2520,1113 2519,1118 2518,1122 2516,1126 2513,1130 2509,1133 2462,1165 2544,1165 2519,1181 2522,1180 2528,1177 2534,1174 2282,1342 2282,1614 2248,1636 2302,1636 2282,1649 2335,1649 2335,1732 2294,1758 2328,1758 2331,1757 2335,1756 2339,1755 1812,2083 1805,2083 1774,2083 1716,2083 1716,2083 1650,2083 1601,2083 1550,2083 1467,2083 1399,2083 1331,2083 1267,2083 1236,2083 1218,2083 1206,2083 1171,2083 1168,2083 1152,2083 1143,2083 1140,2083 1122,2083 "/>
  <path class="fil2" d="M217 1826c7,11 12,21 16,32 3,7 5,19 21,19 5,0 11,-1 17,-5 7,-3 12,-9 14,-17l6 -21 15 -7 1 1c-2,8 -3,16 -3,21 0,18 15,24 27,24 7,0 13,-3 13,-10 0,-8 -4,-22 -8,-35 7,-7 14,-14 22,-20l1 1c4,15 6,30 6,40 0,10 -4,20 -8,27 -7,14 -20,25 -36,25 -12,0 -25,-6 -34,-17l-1 0c-9,11 -22,20 -43,20l-7 0c-1,14 -4,24 -9,33 -13,25 -50,42 -85,42 -49,0 -73,-28 -73,-66 0,-23 8,-45 19,-60l10 4c-7,14 -12,27 -12,40 0,35 29,52 62,52 31,0 68,-19 75,-42 -3,-25 -12,-36 -26,-59 4,-7 10,-15 17,-23l1 0 0 0 2 1 0 0 0 0zm564 -133c10,6 20,14 30,23 -6,8 -12,15 -21,21 -10,-8 -20,-15 -30,-22 7,-8 14,-15 20,-22l0 0 1 0 0 0 0 0zm5 96c-17,0 -30,11 -30,19 0,17 33,23 73,23 -5,-20 -22,-42 -43,-42zm-37 93c22,0 41,-1 55,-4 16,-4 30,-12 30,-18 0,-1 0,-3 -1,-5 -9,1 -19,1 -29,1 -29,0 -52,-7 -61,-23 -2,-5 -4,-10 -4,-16 0,-16 7,-32 19,-42 10,-9 21,-14 33,-14 20,0 37,16 48,42 6,14 11,30 11,51 0,14 -4,25 -12,34 -16,15 -45,21 -90,21l-20 0 0 0 -5 0c-11,0 -19,-2 -25,-7l-1 0c0,3 1,5 1,7 0,10 -3,23 -10,33 -20,30 -42,43 -60,43 -19,0 -42,-7 -63,-17l4 -7c7,3 16,5 29,5 34,0 78,-33 84,-64 -1,-3 -4,-6 -7,-10 -10,-12 -16,-22 -22,-32 5,-10 10,-18 14,-25l2 0c14,29 28,46 57,46l5 0 0 0 21 0 0 0 -3 1 0 0 0 0zm-146 31c2,-14 3,-29 3,-43l0 -21c0,-39 -5,-96 -9,-133 7,-8 17,-17 25,-23l2 1c5,47 7,101 7,151 0,13 -1,26 -2,35 -1,12 -8,21 -22,35l-3 -1 -1 -1 0 0 0 0zm-151 -62c1,18 10,33 41,33 20,0 36,-5 55,-14 3,-1 5,-3 5,-5 0,-12 -9,-27 -24,-41 -14,-13 -34,-25 -51,-32 -6,-3 -8,-5 -8,-8 0,-5 7,-16 13,-24l2 0c20,11 43,27 60,44 15,16 25,33 25,51 0,13 -4,26 -11,38 -22,11 -46,20 -70,20 -29,0 -48,-14 -48,-45 0,-3 0,-9 1,-16l10 0 0 0 0 -1 0 0 0 0zm-52 -52l18 29c7,11 13,22 13,41l0 24c0,19 -12,39 -32,60 -15,14 -29,20 -42,20 -19,0 -40,-6 -65,-17l3 -7c8,2 17,4 28,4 36,0 72,-26 89,-58 2,-4 3,-7 3,-9 0,-4 -2,-8 -4,-11 -9,-17 -19,-33 -30,-47 6,-9 12,-18 18,-27l1 0 0 0 0 -2 0 0 0 0z"/>
  <g id="_2873484209632">
   <polygon class="fil3" points="1214,1636 2302,1636 2302,993 1214,993 "/>
   <polygon class="fil4" points="1661,1165 2544,1165 2544,349 1661,349 "/>
   <polygon class="fil5" points="1639,542 2550,542 2550,367 1639,367 "/>
   <polygon class="fil6" points="1182,1732 2335,1732 2335,1649 1182,1649 "/>
   <path class="fil7" d="M2520 517l-858 0 0 -119c0,-13 11,-24 24,-24l811 0c13,0 24,11 24,24l0 119 -1 0 -1 0zm0 596c0,13 -11,24 -24,24l-811 0c-13,0 -24,-11 -24,-24l0 -549 858 0 0 549 1 0 1 0zm-209 596l-1107 0 -9 -47 467 0c0,13 11,24 24,24l142 0c13,0 24,-11 24,-24l467 0 -9 47 0 0zm-1078 -691c0,-13 11,-24 24,-24l358 0 0 119c0,39 32,72 72,72l596 0 0 429 -454 0c-13,0 -24,11 -24,24l-95 0c0,-13 -11,-24 -24,-24l-454 0 0 -596 1 0zm1263 -691l-811 0c-39,0 -72,32 -72,72l0 549 -358 0c-39,0 -72,32 -72,72l0 596 -21 0c-7,0 -14,3 -19,8 -3,4 -5,9 -5,15 0,2 0,3 1,5l21 95c2,11 12,19 23,19l1145 0c11,0 21,-7 23,-19l21 -95c1,-6 0,-14 -4,-20 -4,-5 -11,-8 -19,-8l-21 0 0 -429 167 0c39,0 72,-32 72,-72l0 -715c0,-39 -32,-72 -72,-72l0 0 1 -1 0 1z"/>
   <polygon class="fil7" points="2424,468 2472,468 2472,421 2424,421 "/>
   <polygon class="fil7" points="2330,468 2376,468 2376,421 2330,421 "/>
   <polygon class="fil7" points="2234,468 2281,468 2281,421 2234,421 "/>
   <path class="fil7" d="M1354 1084l-82 82c-5,5 -5,14 0,20l82 82 20 -20 -73 -73 73 -73 -20 -20 0 1z"/>
   <path class="fil7" d="M1511 1084l-20 20 73 73 -73 73 20 20 82 -82c5,-5 5,-14 0,-20l-82 -82 0 -1z"/>
   <polygon class="fil7" points="1378,1296 1460,1049 1487,1057 1404,1306 "/>
   <polygon class="fil7" points="1494,1492 1709,1492 1709,1445 1494,1445 "/>
   <polygon class="fil7" points="1280,1492 1446,1492 1446,1445 1280,1445 "/>
   <polygon class="fil7" points="1280,1588 1614,1588 1614,1540 1280,1540 "/>
   <polygon class="fil7" points="1995,1492 2234,1492 2234,1445 1995,1445 "/>
   <polygon class="fil7" points="1757,1492 1948,1492 1948,1445 1757,1445 "/>
   <polygon class="fil7" points="1661,1588 2234,1588 2234,1540 1661,1540 "/>
   <g>
    <path class="fil5" d="M1857 853c0,-6 0,-11 0,-16 0,0 0,-1 0,-1 0,-11 1,-19 3,-30 1,-11 4,-20 7,-30 4,-13 12,-24 23,-34 7,-7 18,-12 27,-15 6,-1 13,-1 19,-1 56,0 110,0 165,0 0,0 1,0 1,0 0,-6 0,-12 0,-18 -39,0 -79,0 -119,0 0,0 0,-1 0,-1 0,-18 0,-35 0,-53 0,0 0,-1 0,-1 0,-3 0,-4 0,-7 1,-8 6,-15 12,-20 7,-7 15,-12 23,-15 13,-6 26,-8 41,-11 11,-1 20,-1 31,-3 0,0 1,0 1,0 6,0 13,0 19,0 0,0 1,0 1,0 12,0 23,1 35,3 12,1 22,4 32,8 11,4 20,8 27,18 7,7 12,15 13,24 1,4 1,8 1,13 0,37 0,72 0,108 0,6 0,12 -1,18 -3,15 -12,26 -23,35 -13,7 -26,12 -41,12 -39,0 -77,0 -117,0 -7,0 -15,0 -23,3 -13,3 -24,11 -34,22 -11,13 -13,30 -13,45 0,19 0,38 0,57 0,0 0,1 0,1 0,0 -1,0 -1,0 -13,0 -27,0 -41,0 -3,0 -6,0 -7,-1 -11,-1 -20,-7 -27,-15 -8,-8 -16,-19 -20,-31 -4,-11 -7,-20 -8,-31 -1,-8 -3,-19 -3,-27 0,-3 0,-6 0,-8l0 0 -3 0 2 0zm178 -214l0 0c-12,0 -22,11 -22,22 0,12 11,22 22,22 12,0 22,-11 22,-22 0,-12 -11,-22 -22,-22l0 0z"/>
    <path class="fil8" d="M2349 812c0,22 0,43 0,68 0,1 0,4 -1,6 -1,11 -4,19 -7,27 -4,13 -12,24 -22,34 -11,8 -22,15 -35,16 -4,0 -8,0 -13,0 -54,0 -110,0 -164,0 0,0 -1,0 -1,0 0,6 0,12 0,18 39,0 79,0 119,0 0,0 0,1 0,1 0,19 0,38 0,57 0,1 0,4 0,6 -1,8 -7,16 -13,22 -8,7 -19,12 -30,16 -15,4 -30,7 -45,8 -8,0 -18,1 -27,1 -12,0 -23,0 -35,-1 -7,-1 -13,-1 -20,-3 -12,-1 -23,-6 -34,-12 -11,-4 -19,-12 -24,-20 -4,-6 -7,-13 -8,-22 0,-3 0,-6 0,-8 0,-35 0,-70 0,-104 0,-6 0,-13 1,-19 3,-15 12,-26 23,-35 13,-8 26,-12 41,-12 39,0 77,0 117,0 7,0 16,0 23,-3 13,-3 23,-11 32,-20 11,-13 15,-27 15,-43 0,-19 0,-39 0,-58 0,0 0,-1 0,-1 0,0 1,0 1,0 13,0 26,0 39,0 8,0 16,1 23,6 12,6 20,15 26,24 11,16 15,32 18,51 0,1 0,4 1,6l0 0 0 -3 -1 -3zm-176 241l0 0c12,0 22,-11 22,-22 0,-12 -11,-22 -22,-22 -12,0 -22,11 -22,22 0,12 8,22 22,22z"/>
   </g>
   <polygon class="fil7" points="1494,1400 1709,1400 1709,1353 1494,1353 "/>
   <polygon class="fil7" points="1280,1400 1446,1400 1446,1353 1280,1353 "/>
   <polygon class="fil7" points="1995,1400 2234,1400 2234,1353 1995,1353 "/>
   <polygon class="fil7" points="1757,1400 1948,1400 1948,1353 1757,1353 "/>
  </g>
 </g>
</svg>
