<?xml version="1.0" encoding="utf-8"?>
<!-- Generator: Adobe Illustrator 21.1.0, SVG Export Plug-In . SVG Version: 6.00 Build 0)  -->
<svg version="1.1" id="Layer_1" xmlns="http://www.w3.org/2000/svg" xmlns:xlink="http://www.w3.org/1999/xlink" x="0px" y="0px"
	 viewBox="0 0 997 167.1" style="enable-background:new 0 0 997 167.1;" xml:space="preserve">
<style type="text/css">
	.st0{fill:#2196F3;}
	.st1{fill:#1976D2;}
	.st2{fill:#181818;}
	.st3{fill:#CFD8DC;}
	.st4{fill:url(#SVGID_1_);}
</style>
<title>Artboard 1</title>
<path class="st0" d="M975.3,37.2h-9.2c-1.8,0-3.5,0-5.3,0.1c-16.6,0.3-33.2,1.4-49.5,3.1C788.9,53.6,673.2,103.8,589,114.2
	c-105,12.9-152.3-14.6-237.2-14.1c-81.8,0.5-145.1,24.2-234,36.5c-67,9.3-103.2,6.9-128.8,5.3v24.8h1019V38.9
	C997.1,37.9,986.2,37.4,975.3,37.2z"/>
<path class="st1" d="M975.3,43c-3.1-0.1-6.1-0.1-9.2-0.1c-142.2-0.6-272,70.1-366.9,84.1c-103.3,15.2-162.5-21.5-247.3-21
	c-81.8,0.4-148.3,24.7-234,39.7c-66.7,11.7-106.4,7.6-128.8,4.8v10.2h1019V45.2C997,44,986.1,43.3,975.3,43z"/>
<path class="st2" d="M983,61.8h-7.7c-3.1,0-6.2,0.1-9.2,0.1c-2.6,0-5.1,0.1-7.6,0.2c-182.8,4.8-262.5,60-359.3,71.3
	c-105.3,12.3-177.8-13.7-262.7-13.2c-81.7,0.5-133,16.9-218.7,31.9C55.2,163.1,7.4,159.2-11,156.9v10.2h1019V62
	C999.4,61.8,991.1,61.7,983,61.8z"/>
<circle class="st2" cx="880.8" cy="71.2" r="9.2"/>
<rect x="75" y="98.2" class="st2" width="5" height="69"/>
<polygon class="st3" points="75,125.9 75,99.9 97.5,112.9 75,125.9 75,99.9 97.5,112.9 "/>
<rect x="340" y="60.2" class="st2" width="5" height="76"/>
<polygon class="st3" points="340,87.9 340,61.9 362.5,74.9 340,87.9 340,61.9 362.5,74.9 "/>
<rect x="666" y="58.2" class="st2" width="5" height="76"/>
<polygon class="st3" points="666,85.9 666,59.9 688.5,72.9 666,85.9 666,59.9 688.5,72.9 "/>
<path class="st2" d="M878.3,1.9C878.3,1.9,878.3,1.9,878.3,1.9c0-1,0.8-1.9,1.8-1.9l1.6,0c0,0,0,0,0,0c1,0,1.8,0.9,1.8,1.9v62.4
	c0,1-0.8,1.8-1.8,1.9h-1.6c0,0,0,0,0,0c-1,0-1.8-0.9-1.8-1.9V1.9L878.3,1.9z"/>
<linearGradient id="SVGID_1_" gradientUnits="userSpaceOnUse" x1="71" y1="854.852" x2="114.12" y2="854.852" gradientTransform="matrix(-1 0 0 1 997 -836.85)">
	<stop  offset="0" style="stop-color:#689F38"/>
	<stop  offset="1" style="stop-color:#8BC34A"/>
</linearGradient>
<path class="st4" d="M882.9,3.4v29.2c20.9-8.9,21,8.9,43.1,0V3.4C903.9,12.3,903.8-5.5,882.9,3.4z"/>
</svg>
